<svg width="781" height="521" viewBox="0 0 781 521" fill="none" xmlns="http://www.w3.org/2000/svg">
<g clip-path="url(#clip0)">
<rect width="781" height="521" fill="#3BA4CA"/>
<path d="M776 72.6865C776 84.9794 762.672 94.9468 746.243 94.9468H647.843C647.843 94.9468 612.065 96.8656 612.065 77.6484C612.065 77.1845 612 76.7169 612 76.2431C612 65.8674 623.239 57.4523 637.113 57.4523C639.26 57.4523 641.335 57.654 643.322 58.035C645.462 47.6813 657.429 39.7561 671.871 39.7561C674.586 39.7561 677.2 40.0448 679.689 40.5619C683.547 29.5926 699.83 20.3439 718.989 22.2507C737.872 24.1298 751.702 38.5744 749.03 50.5242C764.157 51.5751 776 61.0906 776 72.6865Z" fill="#F7EDE3"/>
<path d="M622.54 77.415C622.54 76.9982 622.492 76.5785 622.492 76.1532C622.492 67.3891 631.264 60.3081 641.442 61.9242C642.497 62.0915 643.503 61.4786 643.758 60.5342C646.358 50.92 657.789 44.5452 668.641 46.3022C669.61 46.4589 670.568 45.9915 670.925 45.1576C676.357 32.4693 687.946 26.0245 701.587 27.6731C709.708 28.6545 716.558 33.4568 720.485 39.4129C717.121 31.0219 708.421 23.543 697.67 22.2437C682.329 20.3898 669.29 29.384 666.201 40.0521C664.207 39.5487 662.115 39.2684 659.941 39.2684C648.377 39.2684 638.794 46.9755 637.081 57.0454C635.489 56.6748 633.828 56.4786 632.109 56.4786C620.999 56.4786 612 64.6628 612 74.7535C612 75.2143 612.052 75.669 612.052 76.1202C612.052 94.8097 640.701 92.9437 640.701 92.9437H644.782C637.319 92.6071 622.54 90.3136 622.54 77.415Z" fill="#DBD2CA"/>
<path d="M517 152.687C517 164.979 503.672 174.947 487.243 174.947H388.843C388.843 174.947 353.065 176.866 353.065 157.648C353.065 157.184 353 156.717 353 156.243C353 145.867 364.239 137.452 378.113 137.452C380.26 137.452 382.335 137.654 384.322 138.035C386.462 127.681 398.429 119.756 412.871 119.756C415.586 119.756 418.2 120.045 420.689 120.562C424.547 109.593 440.83 100.344 459.989 102.251C478.872 104.13 492.702 118.574 490.03 130.524C505.157 131.575 517 141.091 517 152.687Z" fill="#F7EDE3"/>
<path d="M363.54 157.415C363.54 156.998 363.492 156.578 363.492 156.153C363.492 147.389 372.264 140.308 382.442 141.924C383.497 142.092 384.503 141.479 384.758 140.534C387.358 130.92 398.789 124.545 409.641 126.302C410.61 126.459 411.568 125.991 411.925 125.158C417.357 112.469 428.946 106.024 442.587 107.673C450.708 108.654 457.558 113.457 461.485 119.413C458.121 111.022 449.421 103.543 438.67 102.244C423.329 100.39 410.29 109.384 407.201 120.052C405.207 119.549 403.115 119.268 400.941 119.268C389.377 119.268 379.794 126.975 378.081 137.045C376.489 136.675 374.828 136.479 373.109 136.479C361.999 136.479 353 144.663 353 154.753C353 155.214 353.052 155.669 353.052 156.12C353.052 174.81 381.701 172.944 381.701 172.944H385.782C378.319 172.607 363.54 170.314 363.54 157.415Z" fill="#DBD2CA"/>
<path d="M373 74.2148C373 85.6657 361.379 94.9505 347.053 94.9505H261.253C261.253 94.9505 230.057 96.7378 230.057 78.8369C230.057 78.4047 230 77.9692 230 77.5278C230 67.8628 239.8 60.024 251.897 60.024C253.77 60.024 255.578 60.2119 257.311 60.5669C259.178 50.9223 269.612 43.5399 282.205 43.5399C284.572 43.5399 286.851 43.8089 289.021 44.2906C292.385 34.0725 306.584 25.4573 323.289 27.2335C339.754 28.9839 351.813 42.4391 349.484 53.5705C362.674 54.5494 373 63.4132 373 74.2148Z" fill="#F7EDE3"/>
<path d="M239.19 78.6194C239.19 78.2312 239.148 77.8402 239.148 77.444C239.148 69.2803 246.798 62.6843 255.672 64.1897C256.592 64.3455 257.469 63.7746 257.691 62.8949C259.958 53.9392 269.926 48.001 279.388 49.6377C280.233 49.7836 281.068 49.3482 281.379 48.5714C286.116 36.7522 296.221 30.7488 308.115 32.2845C315.196 33.1987 321.17 37.6721 324.594 43.2202C321.66 35.404 314.074 28.4373 304.7 27.227C291.323 25.5001 279.954 33.8782 277.261 43.8157C275.522 43.3468 273.698 43.0856 271.802 43.0856C261.719 43.0856 253.363 50.2648 251.869 59.645C250.482 59.2999 249.033 59.1171 247.534 59.1171C237.847 59.1171 230 66.7407 230 76.1402C230 76.5695 230.046 76.9931 230.046 77.4134C230.046 94.8228 255.025 93.0845 255.025 93.0845H258.584C252.077 92.771 239.19 90.6346 239.19 78.6194Z" fill="#DBD2CA"/>
<path d="M802 188.687C802 200.979 788.672 210.947 772.243 210.947H673.843C673.843 210.947 638.065 212.866 638.065 193.648C638.065 193.184 638 192.717 638 192.243C638 181.867 649.239 173.452 663.113 173.452C665.26 173.452 667.335 173.654 669.322 174.035C671.462 163.681 683.429 155.756 697.871 155.756C700.586 155.756 703.2 156.045 705.689 156.562C709.547 145.593 725.83 136.344 744.989 138.251C763.872 140.13 777.702 154.574 775.03 166.524C790.157 167.575 802 177.091 802 188.687Z" fill="#F7EDE3"/>
<path d="M648.54 193.415C648.54 192.998 648.492 192.578 648.492 192.153C648.492 183.389 657.264 176.308 667.442 177.924C668.497 178.092 669.503 177.479 669.758 176.534C672.358 166.92 683.789 160.545 694.641 162.302C695.61 162.459 696.568 161.991 696.925 161.158C702.357 148.469 713.946 142.024 727.587 143.673C735.708 144.654 742.558 149.457 746.485 155.413C743.121 147.022 734.421 139.543 723.67 138.244C708.329 136.39 695.29 145.384 692.201 156.052C690.207 155.549 688.115 155.268 685.941 155.268C674.377 155.268 664.794 162.975 663.081 173.045C661.489 172.675 659.828 172.479 658.109 172.479C646.999 172.479 638 180.663 638 190.753C638 191.214 638.052 191.669 638.052 192.12C638.052 210.81 666.701 208.944 666.701 208.944H670.782C663.319 208.607 648.54 206.314 648.54 193.415Z" fill="#DBD2CA"/>
<path d="M1 46H181V69H1V46Z" fill="#D8D8E4"/>
<path d="M3 46H181L92.0009 -1L3 46Z" fill="#898998"/>
<path d="M-1 189H181V206H-1V189Z" fill="#D8D8E4"/>
<path d="M173.039 168.832H153.505C149.11 168.832 145.545 172.308 145.545 176.596V189H181V176.596C181 172.308 177.436 168.832 173.039 168.832V168.832Z" fill="#EDF2FA"/>
<path d="M181 69H145.545V81.4043C145.545 85.6923 149.11 89.1681 153.507 89.1681H173.04C177.436 89.1681 181 85.6923 181 81.4043V69Z" fill="#EDF2FA"/>
<path d="M153.818 89.1681H172.727V168.832H153.818V89.1681Z" fill="#D8D8E4"/>
<path d="M124.584 168.832H105.051C100.655 168.832 97.0909 172.308 97.0909 176.596V189H132.545V176.596C132.545 172.308 128.981 168.832 124.584 168.832V168.832Z" fill="#EDF2FA"/>
<path d="M132.545 69H97.0909V81.4043C97.0909 85.6923 100.655 89.1681 105.052 89.1681H124.586C128.981 89.1681 132.545 85.6923 132.545 81.4043V69Z" fill="#EDF2FA"/>
<path d="M105.364 89.1681H124.273V168.832H105.364V89.1681Z" fill="#D8D8E4"/>
<path d="M76.1294 168.832H56.5959C52.2007 168.832 48.6364 172.308 48.6364 176.596V189H84.0909V176.596C84.0909 172.308 80.5266 168.832 76.1294 168.832V168.832Z" fill="#EDF2FA"/>
<path d="M84.0909 69H48.6364V81.4043C48.6364 85.6923 52.2007 89.1681 56.5979 89.1681H76.1313C80.5266 89.1681 84.0909 85.6923 84.0909 81.4043V69Z" fill="#EDF2FA"/>
<path d="M56.9091 89.1681H75.8181V168.832H56.9091V89.1681Z" fill="#D8D8E4"/>
<path d="M28.8567 168.832H9.32322C4.92795 168.832 1.36365 172.308 1.36365 176.596V189H36.8182V176.596C36.8182 172.308 33.2539 168.832 28.8567 168.832V168.832Z" fill="#EDF2FA"/>
<path d="M36.8182 69H1.36365V81.4043C1.36365 85.6923 4.92795 89.1681 9.32515 89.1681H28.8586C33.2539 89.1681 36.8182 85.6923 36.8182 81.4043V69Z" fill="#EDF2FA"/>
<path d="M9.63635 89.1681H28.5454V168.832H9.63635V89.1681Z" fill="#D8D8E4"/>
<path d="M1 46H181V69H1V46Z" fill="#D8D8E4"/>
<path d="M3 46H181L92.0009 -1L3 46Z" fill="#898998"/>
<path d="M-1 189H181V206H-1V189Z" fill="#D8D8E4"/>
<path d="M173.039 168.832H153.505C149.11 168.832 145.545 172.308 145.545 176.596V189H181V176.596C181 172.308 177.436 168.832 173.039 168.832V168.832Z" fill="#EDF2FA"/>
<path d="M181 69H145.545V81.4043C145.545 85.6923 149.11 89.1681 153.507 89.1681H173.04C177.436 89.1681 181 85.6923 181 81.4043V69Z" fill="#EDF2FA"/>
<path d="M153.818 89.1681H172.727V168.832H153.818V89.1681Z" fill="#D8D8E4"/>
<path d="M124.584 168.832H105.051C100.655 168.832 97.0909 172.308 97.0909 176.596V189H132.545V176.596C132.545 172.308 128.981 168.832 124.584 168.832V168.832Z" fill="#EDF2FA"/>
<path d="M132.545 69H97.0909V81.4043C97.0909 85.6923 100.655 89.1681 105.052 89.1681H124.586C128.981 89.1681 132.545 85.6923 132.545 81.4043V69Z" fill="#EDF2FA"/>
<path d="M105.364 89.1681H124.273V168.832H105.364V89.1681Z" fill="#D8D8E4"/>
<path d="M76.1294 168.832H56.5959C52.2007 168.832 48.6364 172.308 48.6364 176.596V189H84.0909V176.596C84.0909 172.308 80.5266 168.832 76.1294 168.832V168.832Z" fill="#EDF2FA"/>
<path d="M84.0909 69H48.6364V81.4043C48.6364 85.6923 52.2007 89.1681 56.5979 89.1681H76.1313C80.5266 89.1681 84.0909 85.6923 84.0909 81.4043V69Z" fill="#EDF2FA"/>
<path d="M56.9091 89.1681H75.8181V168.832H56.9091V89.1681Z" fill="#D8D8E4"/>
<path d="M28.8567 168.832H9.32322C4.92795 168.832 1.36365 172.308 1.36365 176.596V189H36.8182V176.596C36.8182 172.308 33.2539 168.832 28.8567 168.832V168.832Z" fill="#EDF2FA"/>
<path d="M36.8182 69H1.36365V81.4043C1.36365 85.6923 4.92795 89.1681 9.32515 89.1681H28.8586C33.2539 89.1681 36.8182 85.6923 36.8182 81.4043V69Z" fill="#EDF2FA"/>
<path d="M9.63635 89.1681H28.5454V168.832H9.63635V89.1681Z" fill="#D8D8E4"/>
<path d="M151 180H331V203H151V180Z" fill="#D8D8E4"/>
<path d="M153 180H331L242.001 133L153 180Z" fill="#898998"/>
<path d="M149 323H331V340H149V323Z" fill="#D8D8E4"/>
<path d="M323.039 302.832H303.505C299.11 302.832 295.545 306.308 295.545 310.596V323H331V310.596C331 306.308 327.436 302.832 323.039 302.832V302.832Z" fill="#EDF2FA"/>
<path d="M331 203H295.545V215.404C295.545 219.692 299.11 223.168 303.507 223.168H323.04C327.436 223.168 331 219.692 331 215.404V203Z" fill="#EDF2FA"/>
<path d="M303.818 223.168H322.727V302.832H303.818V223.168Z" fill="#D8D8E4"/>
<path d="M274.584 302.832H255.051C250.655 302.832 247.091 306.308 247.091 310.596V323H282.545V310.596C282.545 306.308 278.981 302.832 274.584 302.832V302.832Z" fill="#EDF2FA"/>
<path d="M282.545 203H247.091V215.404C247.091 219.692 250.655 223.168 255.052 223.168H274.586C278.981 223.168 282.545 219.692 282.545 215.404V203Z" fill="#EDF2FA"/>
<path d="M255.364 223.168H274.273V302.832H255.364V223.168Z" fill="#D8D8E4"/>
<path d="M226.129 302.832H206.596C202.201 302.832 198.636 306.308 198.636 310.596V323H234.091V310.596C234.091 306.308 230.527 302.832 226.129 302.832V302.832Z" fill="#EDF2FA"/>
<path d="M234.091 203H198.636V215.404C198.636 219.692 202.201 223.168 206.598 223.168H226.131C230.527 223.168 234.091 219.692 234.091 215.404V203Z" fill="#EDF2FA"/>
<path d="M206.909 223.168H225.818V302.832H206.909V223.168Z" fill="#D8D8E4"/>
<path d="M178.857 302.832H159.323C154.928 302.832 151.364 306.308 151.364 310.596V323H186.818V310.596C186.818 306.308 183.254 302.832 178.857 302.832V302.832Z" fill="#EDF2FA"/>
<path d="M186.818 203H151.364V215.404C151.364 219.692 154.928 223.168 159.325 223.168H178.859C183.254 223.168 186.818 219.692 186.818 215.404V203Z" fill="#EDF2FA"/>
<path d="M159.636 223.168H178.545V302.832H159.636V223.168Z" fill="#D8D8E4"/>
<path d="M151 180H331V203H151V180Z" fill="#D8D8E4"/>
<path d="M153 180H331L242.001 133L153 180Z" fill="#898998"/>
<path d="M149 323H331V340H149V323Z" fill="#D8D8E4"/>
<path d="M323.039 302.832H303.505C299.11 302.832 295.545 306.308 295.545 310.596V323H331V310.596C331 306.308 327.436 302.832 323.039 302.832V302.832Z" fill="#EDF2FA"/>
<path d="M331 203H295.545V215.404C295.545 219.692 299.11 223.168 303.507 223.168H323.04C327.436 223.168 331 219.692 331 215.404V203Z" fill="#EDF2FA"/>
<path d="M303.818 223.168H322.727V302.832H303.818V223.168Z" fill="#D8D8E4"/>
<path d="M274.584 302.832H255.051C250.655 302.832 247.091 306.308 247.091 310.596V323H282.545V310.596C282.545 306.308 278.981 302.832 274.584 302.832V302.832Z" fill="#EDF2FA"/>
<path d="M282.545 203H247.091V215.404C247.091 219.692 250.655 223.168 255.052 223.168H274.586C278.981 223.168 282.545 219.692 282.545 215.404V203Z" fill="#EDF2FA"/>
<path d="M255.364 223.168H274.273V302.832H255.364V223.168Z" fill="#D8D8E4"/>
<path d="M226.129 302.832H206.596C202.201 302.832 198.636 306.308 198.636 310.596V323H234.091V310.596C234.091 306.308 230.527 302.832 226.129 302.832V302.832Z" fill="#EDF2FA"/>
<path d="M234.091 203H198.636V215.404C198.636 219.692 202.201 223.168 206.598 223.168H226.131C230.527 223.168 234.091 219.692 234.091 215.404V203Z" fill="#EDF2FA"/>
<path d="M206.909 223.168H225.818V302.832H206.909V223.168Z" fill="#D8D8E4"/>
<path d="M178.857 302.832H159.323C154.928 302.832 151.364 306.308 151.364 310.596V323H186.818V310.596C186.818 306.308 183.254 302.832 178.857 302.832V302.832Z" fill="#EDF2FA"/>
<path d="M186.818 203H151.364V215.404C151.364 219.692 154.928 223.168 159.325 223.168H178.859C183.254 223.168 186.818 219.692 186.818 215.404V203Z" fill="#EDF2FA"/>
<path d="M159.636 223.168H178.545V302.832H159.636V223.168Z" fill="#D8D8E4"/>
<path d="M-4 283H176V306H-4V283Z" fill="#D8D8E4"/>
<path d="M-2 283H176L87.0009 236L-2 283Z" fill="#898998"/>
<path d="M-6 426H176V443H-6V426Z" fill="#D8D8E4"/>
<path d="M168.039 405.832H148.505C144.11 405.832 140.545 409.308 140.545 413.596V426H176V413.596C176 409.308 172.436 405.832 168.039 405.832V405.832Z" fill="#EDF2FA"/>
<path d="M176 306H140.545V318.404C140.545 322.692 144.11 326.168 148.507 326.168H168.04C172.436 326.168 176 322.692 176 318.404V306Z" fill="#EDF2FA"/>
<path d="M148.818 326.168H167.727V405.832H148.818V326.168Z" fill="#D8D8E4"/>
<path d="M119.584 405.832H100.051C95.6552 405.832 92.0909 409.308 92.0909 413.596V426H127.545V413.596C127.545 409.308 123.981 405.832 119.584 405.832V405.832Z" fill="#EDF2FA"/>
<path d="M127.545 306H92.0909V318.404C92.0909 322.692 95.6552 326.168 100.052 326.168H119.586C123.981 326.168 127.545 322.692 127.545 318.404V306Z" fill="#EDF2FA"/>
<path d="M100.364 326.168H119.273V405.832H100.364V326.168Z" fill="#D8D8E4"/>
<path d="M71.1294 405.832H51.5959C47.2007 405.832 43.6364 409.308 43.6364 413.596V426H79.0909V413.596C79.0909 409.308 75.5266 405.832 71.1294 405.832V405.832Z" fill="#EDF2FA"/>
<path d="M79.0909 306H43.6364V318.404C43.6364 322.692 47.2007 326.168 51.5979 326.168H71.1313C75.5266 326.168 79.0909 322.692 79.0909 318.404V306Z" fill="#EDF2FA"/>
<path d="M51.9091 326.168H70.8181V405.832H51.9091V326.168Z" fill="#D8D8E4"/>
<path d="M23.8567 405.832H4.32322C-0.0720475 405.832 -3.63635 409.308 -3.63635 413.596V426H31.8182V413.596C31.8182 409.308 28.2539 405.832 23.8567 405.832V405.832Z" fill="#EDF2FA"/>
<path d="M31.8182 306H-3.63635V318.404C-3.63635 322.692 -0.072048 326.168 4.32515 326.168H23.8586C28.2539 326.168 31.8182 322.692 31.8182 318.404V306Z" fill="#EDF2FA"/>
<path d="M4.63635 326.168H23.5454V405.832H4.63635V326.168Z" fill="#D8D8E4"/>
<path d="M-4 283H176V306H-4V283Z" fill="#D8D8E4"/>
<path d="M-2 283H176L87.0009 236L-2 283Z" fill="#898998"/>
<path d="M-6 426H176V443H-6V426Z" fill="#D8D8E4"/>
<path d="M168.039 405.832H148.505C144.11 405.832 140.545 409.308 140.545 413.596V426H176V413.596C176 409.308 172.436 405.832 168.039 405.832V405.832Z" fill="#EDF2FA"/>
<path d="M176 306H140.545V318.404C140.545 322.692 144.11 326.168 148.507 326.168H168.04C172.436 326.168 176 322.692 176 318.404V306Z" fill="#EDF2FA"/>
<path d="M148.818 326.168H167.727V405.832H148.818V326.168Z" fill="#D8D8E4"/>
<path d="M119.584 405.832H100.051C95.6552 405.832 92.0909 409.308 92.0909 413.596V426H127.545V413.596C127.545 409.308 123.981 405.832 119.584 405.832V405.832Z" fill="#EDF2FA"/>
<path d="M127.545 306H92.0909V318.404C92.0909 322.692 95.6552 326.168 100.052 326.168H119.586C123.981 326.168 127.545 322.692 127.545 318.404V306Z" fill="#EDF2FA"/>
<path d="M100.364 326.168H119.273V405.832H100.364V326.168Z" fill="#D8D8E4"/>
<path d="M71.1294 405.832H51.5959C47.2007 405.832 43.6364 409.308 43.6364 413.596V426H79.0909V413.596C79.0909 409.308 75.5266 405.832 71.1294 405.832V405.832Z" fill="#EDF2FA"/>
<path d="M79.0909 306H43.6364V318.404C43.6364 322.692 47.2007 326.168 51.5979 326.168H71.1313C75.5266 326.168 79.0909 322.692 79.0909 318.404V306Z" fill="#EDF2FA"/>
<path d="M51.9091 326.168H70.8181V405.832H51.9091V326.168Z" fill="#D8D8E4"/>
<path d="M23.8567 405.832H4.32322C-0.0720475 405.832 -3.63635 409.308 -3.63635 413.596V426H31.8182V413.596C31.8182 409.308 28.2539 405.832 23.8567 405.832V405.832Z" fill="#EDF2FA"/>
<path d="M31.8182 306H-3.63635V318.404C-3.63635 322.692 -0.072048 326.168 4.32515 326.168H23.8586C28.2539 326.168 31.8182 322.692 31.8182 318.404V306Z" fill="#EDF2FA"/>
<path d="M4.63635 326.168H23.5454V405.832H4.63635V326.168Z" fill="#D8D8E4"/>
<path d="M712.807 339.262C721.751 335.507 728.532 326.335 729.557 315.089C730.611 303.518 725.267 293.008 716.729 287.844C718.527 277.058 714.62 265.742 705.965 259.426C699.981 255.059 692.898 253.941 686.359 255.666C684.469 251.455 681.598 247.738 677.816 244.979C668.001 237.815 655.219 239.373 646.747 247.921C642.635 241.917 636.342 237.813 628.993 237.143C621.811 236.489 615.028 239.247 609.935 244.194C606.162 241.287 601.599 239.495 596.587 239.299C583.404 238.786 571.726 249.857 570.021 264.47C569.201 271.489 570.746 278.154 573.942 283.528C570.496 290.575 568.213 298.773 567.36 308.146L551.75 357.661C550.69 361.028 552.72 364.552 555.891 364.841L568.415 365.982L568.036 399.093C568.093 412.503 578.86 422.472 590.757 420.13L616.027 415.157L613.503 442.866L566.145 455.093C548.793 459.572 532.947 469.728 520.66 484.244L506 499.528L756.54 522.348L741.295 491.882C736.435 479.746 729.385 468.89 720.577 459.975L680.084 418.987L684.904 366.066L684.863 366.024C690.861 358.936 695.704 350.581 699.007 341.321L712.807 339.262Z" fill="#FFDAAB"/>
<path d="M705.965 259.428C699.981 255.06 692.898 253.943 686.358 255.666C684.469 251.458 681.598 247.738 677.816 244.979C671.078 240.063 662.945 239.255 655.767 241.997L631.271 510.94L756.54 522.35L741.294 491.885C736.435 479.749 729.384 468.892 720.577 459.977L680.084 418.987L684.904 366.066L684.863 366.024C690.861 358.936 695.704 350.583 699.007 341.323L712.807 339.264C721.751 335.507 728.53 326.337 729.554 315.091C730.608 303.52 725.267 293.011 716.727 287.846C718.527 277.058 714.62 265.742 705.965 259.428V259.428Z" fill="#FFBE85"/>
<path d="M724.523 283.621C724.875 271.203 719.524 259.407 710.093 252.527C704.126 248.171 697.2 246.194 690.159 246.753C687.917 243.351 685.136 240.408 681.944 238.078C671.562 230.501 658.324 230.358 647.72 237.131C642.683 232.46 636.408 229.561 629.739 228.954C622.576 228.302 615.571 230.225 609.538 234.421C605.636 232.397 601.374 231.258 596.99 231.087C579.968 230.424 564.907 244.692 562.704 263.569C562.696 263.639 562.688 263.709 562.679 263.782C561.496 274.395 566.705 284.484 575.383 288.822L672.119 331.073C682.359 333.659 690.042 345.095 689.054 355.951C688.695 359.889 687.317 363.46 685.248 366.373C686.425 366.676 687.635 366.895 688.875 367.008C701.049 368.117 712.154 359.364 716.202 346.538C727.575 341.328 735.656 329.364 736.895 315.758C738.044 303.16 733.272 291.077 724.523 283.621V283.621Z" fill="#CC8135"/>
<path d="M724.523 283.621C724.875 271.203 719.524 259.407 710.093 252.527C704.126 248.171 697.2 246.194 690.159 246.752C687.917 243.351 685.136 240.407 681.944 238.078C674.301 232.501 665.112 230.956 656.565 233.227L648.59 320.795L672.121 331.073C682.359 333.659 690.042 345.095 689.054 355.95C688.695 359.889 687.317 363.46 685.25 366.373C686.427 366.676 687.635 366.895 688.875 367.008C701.049 368.117 712.154 359.364 716.204 346.538C727.575 341.327 735.657 329.364 736.897 315.758C738.044 303.16 733.272 291.077 724.523 283.621V283.621Z" fill="#A15615"/>
<path d="M669.772 381.179C665.718 380.81 662.766 376.843 663.178 372.322C663.59 367.798 667.21 364.432 671.264 364.801C676.249 365.255 680.731 360.967 681.253 355.241C681.774 349.517 678.14 344.489 673.155 344.035C669.101 343.666 666.149 339.701 666.561 335.177C666.973 330.654 670.593 327.287 674.647 327.657C687.727 328.848 697.275 341.822 695.931 356.578C694.587 371.335 682.852 382.371 669.772 381.179Z" fill="#F59258"/>
<path d="M595.465 339.092L590.39 338.63C586.335 338.261 583.383 334.296 583.795 329.772C584.207 325.251 587.827 321.882 591.882 322.251L596.957 322.714C601.009 323.083 603.963 327.05 603.551 331.572C603.139 336.095 599.517 339.461 595.465 339.092Z" fill="#F59258"/>
<path d="M655.544 513.08L604.919 445.08L566.145 455.091C562.284 456.088 558.498 457.368 554.809 458.912L590.741 507.178L655.544 513.08Z" fill="#034051"/>
<path d="M655.544 513.08L633.741 483.796L631.271 510.938L655.544 513.08Z" fill="#034051"/>
<path d="M685.022 291.368C683.143 291.197 681.337 290.226 680.048 288.499L647.414 244.661C644.84 241.201 645.312 236.017 648.469 233.079C651.627 230.143 656.274 230.566 658.85 234.024L691.485 277.862C694.059 281.32 693.586 286.506 690.43 289.444C688.851 290.911 686.899 291.539 685.022 291.368Z" fill="#FFC12E"/>
<path d="M658.85 234.025C658.228 233.192 657.486 232.539 656.674 232.061L654.642 254.369L680.048 288.499C681.336 290.227 683.143 291.198 685.022 291.369C686.899 291.54 688.851 290.911 690.43 289.445C693.586 286.507 694.059 281.322 691.485 277.862L658.85 234.025Z" fill="#F7A520"/>
<path d="M673.737 357.196C672.434 357.077 671.174 356.584 670.085 355.741C668.266 354.332 667.114 352.09 666.934 349.614L664.11 310.687C662.614 290.084 674.611 271.151 692.635 265.673L769.766 242.22C771.719 241.625 773.787 241.915 775.517 243.025C777.247 244.135 778.498 245.974 778.993 248.137C781.405 258.687 780.398 269.656 776.155 279.024C772.131 287.901 765.67 294.39 757.798 297.526C758.316 305.467 756.95 313.357 753.782 320.351C749.366 330.096 742.014 336.959 733.082 339.677L676.37 356.922C675.5 357.187 674.609 357.275 673.737 357.196Z" fill="#FFC12E"/>
<path d="M666.923 349.465C667.037 351.03 667.486 352.55 668.314 353.811C669.648 355.842 671.64 357.006 673.737 357.197C674.609 357.276 675.5 357.188 676.368 356.923L733.082 339.677C742.014 336.96 749.366 330.097 753.781 320.352C756.948 313.361 758.314 305.476 757.799 297.542L685.346 319.572C673.712 323.108 665.904 335.43 666.871 348.727L666.923 349.465Z" fill="#FFE645"/>
<path d="M150.833 505.454V513H265.999V441C202.343 441.001 150.833 469.407 150.833 505.454Z" fill="#57D0DD"/>
<path d="M0 441.001V513.001H120.063V505.455C120.063 469.407 63.6563 441.001 0 441.001Z" fill="#57D0DD"/>
<path d="M150.833 505.454V513H151.829C159.153 481.067 207.414 457 265.999 457V441C202.343 441.001 150.833 469.407 150.833 505.454Z" fill="#B6DEDC"/>
<path d="M0 441.001V457.001C58.5846 457.001 110.99 481.068 118.975 513.001H120.063V505.455C120.063 469.407 63.6563 441.001 0 441.001Z" fill="#B6DEDC"/>
<path d="M0 505.001H266V521.001H0V505.001Z" fill="#344496"/>
<path d="M0.219238 489.033L0.684885 473.056L84.8446 481.056L84.3789 497.033L0.219238 489.033Z" fill="#576396"/>
<path d="M181.374 481.038L265.533 473.01L266 488.987L181.841 497.015L181.374 481.038Z" fill="#576396"/>
<path d="M410.833 505.454V513H525.999V441C462.343 441.001 410.833 469.407 410.833 505.454Z" fill="#57D0DD"/>
<path d="M260 441.001V513.001H380.063V505.455C380.063 469.407 323.656 441.001 260 441.001Z" fill="#57D0DD"/>
<path d="M410.833 505.454V513H411.829C419.153 481.067 467.414 457 525.999 457V441C462.343 441.001 410.833 469.407 410.833 505.454Z" fill="#B6DEDC"/>
<path d="M260 441.001V457.001C318.585 457.001 370.99 481.068 378.975 513.001H380.063V505.455C380.063 469.407 323.656 441.001 260 441.001Z" fill="#B6DEDC"/>
<path d="M260 505.001H526V521.001H260V505.001Z" fill="#344496"/>
<path d="M260.219 489.033L260.685 473.056L344.845 481.056L344.379 497.033L260.219 489.033Z" fill="#576396"/>
<path d="M441.374 481.038L525.533 473.01L526 488.987L441.841 497.015L441.374 481.038Z" fill="#576396"/>
<path d="M665.833 505.454V513H780.999V441C717.343 441.001 665.833 469.407 665.833 505.454Z" fill="#57D0DD"/>
<path d="M515 441.001V513.001H635.063V505.455C635.063 469.407 578.656 441.001 515 441.001Z" fill="#57D0DD"/>
<path d="M665.833 505.454V513H666.829C674.153 481.067 722.414 457 780.999 457V441C717.343 441.001 665.833 469.407 665.833 505.454Z" fill="#B6DEDC"/>
<path d="M515 441.001V457.001C573.585 457.001 625.99 481.068 633.975 513.001H635.063V505.455C635.063 469.407 578.656 441.001 515 441.001Z" fill="#B6DEDC"/>
<path d="M515 505.001H781V521.001H515V505.001Z" fill="#344496"/>
<path d="M515.219 489.033L515.685 473.056L599.845 481.056L599.379 497.033L515.219 489.033Z" fill="#576396"/>
<path d="M696.374 481.038L780.533 473.01L781 488.987L696.841 497.015L696.374 481.038Z" fill="#576396"/>
<path d="M357.374 132.017C349.463 144.437 353.808 159.678 367.08 166.06C380.351 172.44 397.523 167.544 405.434 155.124L357.374 132.017Z" fill="#009BDE"/>
<path d="M355.95 155.48C358.227 159.868 361.996 163.615 367.079 166.06C373.475 169.134 380.775 169.584 387.51 167.841C382.238 157.353 369.049 151.948 355.95 155.48Z" fill="#6EB4E7"/>
<path d="M400.69 152.844C398.264 156.652 399.597 161.326 403.666 163.283C407.737 165.24 413.003 163.738 415.428 159.929L400.69 152.844Z" fill="#3288C7"/>
<path d="M373.487 153.558C381.328 157.328 391.474 154.435 396.149 147.097C400.823 139.759 398.255 130.753 390.414 126.983L373.487 153.558Z" fill="#6EB4E7"/>
<path d="M373.487 153.558C380.115 156.745 388.692 154.3 392.644 148.096C396.595 141.893 394.424 134.28 387.796 131.093L373.487 153.558Z" fill="#3288C7"/>
<path d="M342.745 142.549L344.637 142.01L346.552 148.726L337.094 151.423C336.036 147.713 338.566 143.741 342.745 142.549Z" fill="#FFB819"/>
<path d="M355.847 151.124C361.815 149.423 365.429 143.749 363.919 138.452C362.409 133.154 356.346 130.239 350.378 131.941C344.409 133.643 340.796 139.316 342.306 144.614C343.816 149.911 349.879 152.826 355.847 151.124Z" fill="#009BDE"/>
<path d="M352.114 143.695C354.036 143.147 355.2 141.32 354.713 139.615C354.227 137.909 352.275 136.97 350.353 137.518C348.431 138.066 347.267 139.893 347.754 141.599C348.24 143.305 350.192 144.243 352.114 143.695Z" fill="white"/>
<path d="M351.674 142.151C352.635 141.877 353.217 140.963 352.973 140.111C352.73 139.258 351.754 138.788 350.793 139.062C349.832 139.336 349.25 140.25 349.494 141.103C349.737 141.956 350.713 142.425 351.674 142.151Z" fill="#512C1D"/>
<path d="M357.374 132.017C349.463 144.437 353.808 159.678 367.08 166.06C380.351 172.44 397.523 167.544 405.434 155.124L357.374 132.017Z" fill="#4A7284"/>
<path d="M355.95 155.48C358.227 159.868 361.996 163.615 367.079 166.06C373.475 169.134 380.775 169.584 387.51 167.841C382.238 157.353 369.049 151.948 355.95 155.48Z" fill="#6EB4E7"/>
<path d="M400.69 152.844C398.264 156.652 399.597 161.326 403.666 163.283C407.737 165.24 413.003 163.738 415.428 159.929L400.69 152.844Z" fill="#3288C7"/>
<path d="M373.487 153.558C381.328 157.328 391.474 154.435 396.149 147.097C400.823 139.759 398.255 130.753 390.414 126.983L373.487 153.558Z" fill="#6EB4E7"/>
<path d="M373.487 153.558C380.115 156.745 388.692 154.3 392.644 148.096C396.595 141.893 394.424 134.28 387.796 131.093L373.487 153.558Z" fill="#3288C7"/>
<path d="M342.745 142.549L344.637 142.01L346.552 148.726L337.094 151.423C336.036 147.713 338.566 143.741 342.745 142.549Z" fill="#FFB819"/>
<path d="M355.847 151.124C361.815 149.423 365.429 143.749 363.919 138.452C362.409 133.154 356.346 130.239 350.378 131.941C344.409 133.643 340.796 139.316 342.306 144.614C343.816 149.911 349.879 152.826 355.847 151.124Z" fill="#4482C3"/>
<path d="M352.114 143.695C354.036 143.147 355.2 141.32 354.713 139.615C354.227 137.909 352.275 136.97 350.353 137.518C348.431 138.066 347.267 139.893 347.754 141.599C348.24 143.305 350.192 144.243 352.114 143.695Z" fill="white"/>
<path d="M351.674 142.151C352.635 141.877 353.217 140.963 352.973 140.111C352.73 139.258 351.754 138.788 350.793 139.062C349.832 139.336 349.25 140.25 349.494 141.103C349.737 141.956 350.713 142.425 351.674 142.151Z" fill="#512C1D"/>
<path d="M254.824 48.9908C243.811 58.7662 243.811 74.6151 254.824 84.3905C265.837 94.1655 283.693 94.1655 294.707 84.3905L254.824 48.9908Z" fill="#009BDE"/>
<path d="M247.022 71.1652C248.008 76.0092 250.605 80.6458 254.823 84.3905C260.131 89.1011 267.028 91.5348 273.982 91.7055C271.789 80.1733 260.586 71.3598 247.022 71.1652Z" fill="#6EB4E7"/>
<path d="M290.77 80.8964C287.392 83.894 287.392 88.7543 290.77 91.7516C294.147 94.7495 299.623 94.7495 303 91.7516L290.77 80.8964Z" fill="#3288C7"/>
<path d="M264.413 74.1248C270.92 79.9002 281.471 79.9002 287.978 74.1248C294.485 68.3491 294.485 58.9844 287.978 53.2087L264.413 74.1248Z" fill="#6EB4E7"/>
<path d="M264.413 74.1248C269.914 79.007 278.832 79.007 284.333 74.1248C289.834 69.2423 289.834 61.3265 284.333 56.444L264.413 74.1248Z" fill="#3288C7"/>
<path d="M237.868 55.1091H239.835V62.0928H230C230 58.2357 233.523 55.1091 237.868 55.1091Z" fill="#FFB819"/>
<path d="M248.117 66.9477C254.323 66.9477 259.354 62.4823 259.354 56.9739C259.354 51.4654 254.323 47 248.117 47C241.91 47 236.879 51.4654 236.879 56.9739C236.879 62.4823 241.91 66.9477 248.117 66.9477Z" fill="#009BDE"/>
<path d="M246.564 58.78C248.562 58.78 250.182 57.3421 250.182 55.5682C250.182 53.7944 248.562 52.3564 246.564 52.3564C244.565 52.3564 242.945 53.7944 242.945 55.5682C242.945 57.3421 244.565 58.78 246.564 58.78Z" fill="white"/>
<path d="M246.564 57.1741C247.563 57.1741 248.373 56.4551 248.373 55.5682C248.373 54.6813 247.563 53.9623 246.564 53.9623C245.564 53.9623 244.754 54.6813 244.754 55.5682C244.754 56.4551 245.564 57.1741 246.564 57.1741Z" fill="#512C1D"/>
<path d="M254.824 48.9908C243.811 58.7662 243.811 74.6151 254.824 84.3905C265.837 94.1655 283.693 94.1655 294.707 84.3905L254.824 48.9908Z" fill="#4A7284"/>
<path d="M247.022 71.1652C248.008 76.0092 250.605 80.6458 254.823 84.3905C260.131 89.1011 267.028 91.5348 273.982 91.7055C271.789 80.1733 260.586 71.3598 247.022 71.1652Z" fill="#6EB4E7"/>
<path d="M290.77 80.8964C287.392 83.894 287.392 88.7543 290.77 91.7516C294.147 94.7495 299.623 94.7495 303 91.7516L290.77 80.8964Z" fill="#3288C7"/>
<path d="M264.413 74.1248C270.92 79.9002 281.471 79.9002 287.978 74.1248C294.485 68.3491 294.485 58.9844 287.978 53.2087L264.413 74.1248Z" fill="#6EB4E7"/>
<path d="M264.413 74.1248C269.914 79.007 278.832 79.007 284.333 74.1248C289.834 69.2423 289.834 61.3265 284.333 56.444L264.413 74.1248Z" fill="#3288C7"/>
<path d="M237.868 55.1091H239.835V62.0928H230C230 58.2357 233.523 55.1091 237.868 55.1091Z" fill="#FFB819"/>
<path d="M248.117 66.9477C254.323 66.9477 259.354 62.4823 259.354 56.9739C259.354 51.4654 254.323 47 248.117 47C241.91 47 236.879 51.4654 236.879 56.9739C236.879 62.4823 241.91 66.9477 248.117 66.9477Z" fill="#4482C3"/>
<path d="M246.564 58.78C248.562 58.78 250.182 57.3421 250.182 55.5682C250.182 53.7944 248.562 52.3564 246.564 52.3564C244.565 52.3564 242.945 53.7944 242.945 55.5682C242.945 57.3421 244.565 58.78 246.564 58.78Z" fill="white"/>
<path d="M246.564 57.1741C247.563 57.1741 248.373 56.4551 248.373 55.5682C248.373 54.6813 247.563 53.9623 246.564 53.9623C245.564 53.9623 244.754 54.6813 244.754 55.5682C244.754 56.4551 245.564 57.1741 246.564 57.1741Z" fill="#512C1D"/>
<path d="M508.663 114.036C499.28 125.385 501.71 141.046 514.092 149.017C526.474 156.987 544.119 154.249 553.503 142.901L508.663 114.036Z" fill="#009BDE"/>
<path d="M504.354 137.144C506.072 141.78 509.349 145.963 514.092 149.017C520.059 152.858 527.247 154.205 534.146 153.307C530.21 142.248 517.788 135.257 504.354 137.144Z" fill="#6EB4E7"/>
<path d="M549.077 140.051C546.199 143.532 546.945 148.334 550.742 150.778C554.539 153.223 559.95 152.383 562.827 148.903L549.077 140.051Z" fill="#3288C7"/>
<path d="M521.993 137.402C529.309 142.111 539.735 140.493 545.28 133.788C550.824 127.083 549.388 117.829 542.072 113.12L521.993 137.402Z" fill="#6EB4E7"/>
<path d="M521.993 137.402C528.178 141.383 536.991 140.015 541.678 134.347C546.365 128.679 545.151 120.857 538.967 116.876L521.993 137.402Z" fill="#3288C7"/>
<path d="M492.847 122.682L494.79 122.38L495.861 129.281L486.142 130.79C485.551 126.978 488.552 123.348 492.847 122.682Z" fill="#FFB819"/>
<path d="M504.789 132.809C510.922 131.857 515.209 126.673 514.364 121.23C513.519 115.787 507.863 112.145 501.73 113.097C495.597 114.049 491.311 119.233 492.156 124.676C493 130.12 498.657 133.761 504.789 132.809Z" fill="#009BDE"/>
<path d="M502.002 124.976C503.977 124.67 505.357 123 505.085 121.247C504.813 119.494 502.992 118.322 501.017 118.628C499.042 118.935 497.662 120.604 497.934 122.357C498.206 124.11 500.027 125.283 502.002 124.976Z" fill="white"/>
<path d="M501.756 123.389C502.743 123.236 503.433 122.401 503.297 121.525C503.161 120.648 502.251 120.062 501.263 120.215C500.276 120.368 499.586 121.203 499.722 122.08C499.858 122.956 500.768 123.542 501.756 123.389Z" fill="#512C1D"/>
<path d="M508.663 114.036C499.28 125.385 501.71 141.046 514.092 149.017C526.474 156.987 544.119 154.249 553.503 142.901L508.663 114.036Z" fill="#4A7284"/>
<path d="M504.354 137.144C506.072 141.78 509.349 145.963 514.092 149.017C520.059 152.858 527.247 154.205 534.146 153.307C530.21 142.248 517.788 135.257 504.354 137.144Z" fill="#6EB4E7"/>
<path d="M549.077 140.051C546.199 143.532 546.945 148.334 550.742 150.778C554.539 153.223 559.95 152.383 562.827 148.903L549.077 140.051Z" fill="#3288C7"/>
<path d="M521.993 137.402C529.309 142.111 539.735 140.493 545.28 133.788C550.824 127.083 549.388 117.829 542.072 113.12L521.993 137.402Z" fill="#6EB4E7"/>
<path d="M521.993 137.402C528.178 141.383 536.991 140.015 541.678 134.347C546.365 128.679 545.151 120.857 538.967 116.876L521.993 137.402Z" fill="#3288C7"/>
<path d="M492.847 122.682L494.79 122.38L495.861 129.281L486.142 130.79C485.551 126.978 488.552 123.348 492.847 122.682Z" fill="#FFB819"/>
<path d="M504.789 132.809C510.922 131.857 515.209 126.673 514.364 121.23C513.519 115.787 507.863 112.145 501.73 113.097C495.597 114.049 491.311 119.233 492.156 124.676C493 130.12 498.657 133.761 504.789 132.809Z" fill="#4482C3"/>
<path d="M502.002 124.976C503.977 124.67 505.357 123 505.085 121.247C504.813 119.494 502.992 118.322 501.017 118.628C499.042 118.935 497.662 120.604 497.934 122.357C498.206 124.11 500.027 125.283 502.002 124.976Z" fill="white"/>
<path d="M501.756 123.389C502.743 123.236 503.433 122.401 503.297 121.525C503.161 120.648 502.251 120.062 501.263 120.215C500.276 120.368 499.586 121.203 499.722 122.08C499.858 122.956 500.768 123.542 501.756 123.389Z" fill="#512C1D"/>
<path d="M665.207 56.6333C655.513 67.7183 657.51 83.4409 669.667 91.7509C681.824 100.06 699.538 97.8108 709.232 86.7261L665.207 56.6333Z" fill="#009BDE"/>
<path d="M660.261 79.6139C661.85 84.295 665.01 88.5676 669.666 91.7509C675.525 95.7552 682.674 97.3006 689.594 96.5938C685.965 85.4299 673.742 78.098 660.261 79.6139Z" fill="#6EB4E7"/>
<path d="M704.886 83.7558C701.913 87.155 702.526 91.9766 706.254 94.5245C709.982 97.073 715.414 96.3831 718.387 92.9837L704.886 83.7558Z" fill="#3288C7"/>
<path d="M677.886 80.3588C685.069 85.2683 695.536 83.939 701.264 77.3898C706.991 70.8403 705.811 61.5503 698.628 56.6405L677.886 80.3588Z" fill="#6EB4E7"/>
<path d="M677.886 80.3588C683.958 84.5091 692.806 83.3855 697.648 77.8491C702.489 72.3125 701.492 64.4597 695.42 60.3091L677.886 80.3588Z" fill="#3288C7"/>
<path d="M649.157 64.8389L651.109 64.5911L651.988 71.5191L642.232 72.7582C641.746 68.9319 644.846 65.3864 649.157 64.8389Z" fill="#FFB819"/>
<path d="M660.816 75.2921C666.972 74.5102 671.4 69.4465 670.706 63.982C670.012 58.5175 664.459 54.7214 658.302 55.5033C652.146 56.2852 647.717 61.3489 648.411 66.8134C649.105 72.278 654.659 76.074 660.816 75.2921Z" fill="#009BDE"/>
<path d="M658.246 67.3851C660.228 67.1334 661.655 65.5027 661.431 63.743C661.208 61.9833 659.419 60.7609 657.437 61.0127C655.454 61.2645 654.028 62.8951 654.252 64.6548C654.475 66.4145 656.263 67.6369 658.246 67.3851Z" fill="white"/>
<path d="M658.044 65.792C659.035 65.6661 659.748 64.8508 659.636 63.9709C659.524 63.0911 658.63 62.4799 657.639 62.6058C656.648 62.7317 655.935 63.547 656.046 64.4268C656.158 65.3067 657.052 65.9179 658.044 65.792Z" fill="#512C1D"/>
<path d="M665.207 56.6333C655.513 67.7183 657.51 83.4409 669.667 91.7509C681.824 100.06 699.538 97.8108 709.232 86.7261L665.207 56.6333Z" fill="#4A7284"/>
<path d="M660.261 79.6139C661.85 84.295 665.01 88.5676 669.666 91.7509C675.525 95.7552 682.674 97.3006 689.594 96.5938C685.965 85.4299 673.742 78.098 660.261 79.6139Z" fill="#6EB4E7"/>
<path d="M704.886 83.7558C701.913 87.155 702.526 91.9766 706.254 94.5245C709.982 97.073 715.414 96.3831 718.387 92.9837L704.886 83.7558Z" fill="#3288C7"/>
<path d="M677.886 80.3588C685.069 85.2683 695.536 83.939 701.264 77.3898C706.991 70.8403 705.811 61.5503 698.628 56.6405L677.886 80.3588Z" fill="#6EB4E7"/>
<path d="M677.886 80.3588C683.958 84.5091 692.806 83.3855 697.648 77.8491C702.489 72.3125 701.492 64.4597 695.42 60.3091L677.886 80.3588Z" fill="#3288C7"/>
<path d="M649.157 64.8389L651.109 64.5911L651.988 71.5191L642.232 72.7582C641.746 68.9319 644.846 65.3864 649.157 64.8389Z" fill="#FFB819"/>
<path d="M660.816 75.2921C666.972 74.5102 671.4 69.4465 670.706 63.982C670.012 58.5175 664.459 54.7214 658.302 55.5033C652.146 56.2852 647.717 61.3489 648.411 66.8134C649.105 72.278 654.659 76.074 660.816 75.2921Z" fill="#4482C3"/>
<path d="M658.246 67.3851C660.228 67.1334 661.655 65.5027 661.431 63.743C661.208 61.9833 659.419 60.7609 657.437 61.0127C655.454 61.2645 654.028 62.8951 654.252 64.6548C654.475 66.4145 656.263 67.6369 658.246 67.3851Z" fill="white"/>
<path d="M658.044 65.792C659.035 65.6661 659.748 64.8508 659.636 63.9709C659.524 63.0911 658.63 62.4799 657.639 62.6058C656.648 62.7317 655.935 63.547 656.046 64.4268C656.158 65.3067 657.052 65.9179 658.044 65.792Z" fill="#512C1D"/>
<path d="M462.824 33.9908C451.811 43.7662 451.811 59.6151 462.824 69.3905C473.837 79.1655 491.693 79.1655 502.707 69.3905L462.824 33.9908Z" fill="#009BDE"/>
<path d="M455.022 56.1652C456.008 61.0092 458.605 65.6458 462.823 69.3905C468.131 74.1011 475.028 76.5348 481.982 76.7055C479.789 65.1733 468.586 56.3598 455.022 56.1652Z" fill="#6EB4E7"/>
<path d="M498.77 65.8964C495.392 68.894 495.392 73.7543 498.77 76.7516C502.147 79.7495 507.623 79.7495 511 76.7516L498.77 65.8964Z" fill="#3288C7"/>
<path d="M472.413 59.1248C478.92 64.9002 489.471 64.9002 495.978 59.1248C502.485 53.3491 502.485 43.9844 495.978 38.2087L472.413 59.1248Z" fill="#6EB4E7"/>
<path d="M472.413 59.1248C477.914 64.007 486.832 64.007 492.333 59.1248C497.834 54.2423 497.834 46.3265 492.333 41.444L472.413 59.1248Z" fill="#3288C7"/>
<path d="M445.868 40.1091H447.835V47.0928H438C438 43.2357 441.523 40.1091 445.868 40.1091Z" fill="#FFB819"/>
<path d="M456.117 51.9477C462.323 51.9477 467.354 47.4823 467.354 41.9739C467.354 36.4654 462.323 32 456.117 32C449.91 32 444.879 36.4654 444.879 41.9739C444.879 47.4823 449.91 51.9477 456.117 51.9477Z" fill="#009BDE"/>
<path d="M454.564 43.78C456.562 43.78 458.182 42.3421 458.182 40.5682C458.182 38.7944 456.562 37.3564 454.564 37.3564C452.565 37.3564 450.945 38.7944 450.945 40.5682C450.945 42.3421 452.565 43.78 454.564 43.78Z" fill="white"/>
<path d="M454.564 42.1741C455.563 42.1741 456.373 41.4551 456.373 40.5682C456.373 39.6813 455.563 38.9623 454.564 38.9623C453.564 38.9623 452.754 39.6813 452.754 40.5682C452.754 41.4551 453.564 42.1741 454.564 42.1741Z" fill="#512C1D"/>
<path d="M462.824 33.9908C451.811 43.7662 451.811 59.6151 462.824 69.3905C473.837 79.1655 491.693 79.1655 502.707 69.3905L462.824 33.9908Z" fill="#4A7284"/>
<path d="M455.022 56.1652C456.008 61.0092 458.605 65.6458 462.823 69.3905C468.131 74.1011 475.028 76.5348 481.982 76.7055C479.789 65.1733 468.586 56.3598 455.022 56.1652Z" fill="#6EB4E7"/>
<path d="M498.77 65.8964C495.392 68.894 495.392 73.7543 498.77 76.7516C502.147 79.7495 507.623 79.7495 511 76.7516L498.77 65.8964Z" fill="#3288C7"/>
<path d="M472.413 59.1248C478.92 64.9002 489.471 64.9002 495.978 59.1248C502.485 53.3491 502.485 43.9844 495.978 38.2087L472.413 59.1248Z" fill="#6EB4E7"/>
<path d="M472.413 59.1248C477.914 64.007 486.832 64.007 492.333 59.1248C497.834 54.2423 497.834 46.3265 492.333 41.444L472.413 59.1248Z" fill="#3288C7"/>
<path d="M445.868 40.1091H447.835V47.0928H438C438 43.2357 441.523 40.1091 445.868 40.1091Z" fill="#FFB819"/>
<path d="M456.117 51.9477C462.323 51.9477 467.354 47.4823 467.354 41.9739C467.354 36.4654 462.323 32 456.117 32C449.91 32 444.879 36.4654 444.879 41.9739C444.879 47.4823 449.91 51.9477 456.117 51.9477Z" fill="#4482C3"/>
<path d="M454.564 43.78C456.562 43.78 458.182 42.3421 458.182 40.5682C458.182 38.7944 456.562 37.3564 454.564 37.3564C452.565 37.3564 450.945 38.7944 450.945 40.5682C450.945 42.3421 452.565 43.78 454.564 43.78Z" fill="white"/>
<path d="M454.564 42.1741C455.563 42.1741 456.373 41.4551 456.373 40.5682C456.373 39.6813 455.563 38.9623 454.564 38.9623C453.564 38.9623 452.754 39.6813 452.754 40.5682C452.754 41.4551 453.564 42.1741 454.564 42.1741Z" fill="#512C1D"/>
<path d="M747.824 130.991C736.811 140.766 736.811 156.615 747.824 166.39C758.837 176.165 776.693 176.165 787.707 166.39L747.824 130.991Z" fill="#009BDE"/>
<path d="M740.022 153.165C741.008 158.009 743.605 162.646 747.823 166.39C753.131 171.101 760.028 173.535 766.982 173.705C764.789 162.173 753.586 153.36 740.022 153.165Z" fill="#6EB4E7"/>
<path d="M783.77 162.896C780.392 165.894 780.392 170.754 783.77 173.752C787.147 176.749 792.623 176.749 796 173.752L783.77 162.896Z" fill="#3288C7"/>
<path d="M757.413 156.125C763.92 161.9 774.471 161.9 780.978 156.125C787.485 150.349 787.485 140.984 780.978 135.209L757.413 156.125Z" fill="#6EB4E7"/>
<path d="M757.413 156.125C762.914 161.007 771.832 161.007 777.333 156.125C782.834 151.242 782.834 143.326 777.333 138.444L757.413 156.125Z" fill="#3288C7"/>
<path d="M730.868 137.109H732.835V144.093H723C723 140.236 726.523 137.109 730.868 137.109Z" fill="#FFB819"/>
<path d="M741.117 148.948C747.323 148.948 752.354 144.482 752.354 138.974C752.354 133.465 747.323 129 741.117 129C734.91 129 729.879 133.465 729.879 138.974C729.879 144.482 734.91 148.948 741.117 148.948Z" fill="#009BDE"/>
<path d="M739.564 140.78C741.562 140.78 743.182 139.342 743.182 137.568C743.182 135.794 741.562 134.356 739.564 134.356C737.565 134.356 735.945 135.794 735.945 137.568C735.945 139.342 737.565 140.78 739.564 140.78Z" fill="white"/>
<path d="M739.564 139.174C740.563 139.174 741.373 138.455 741.373 137.568C741.373 136.681 740.563 135.962 739.564 135.962C738.564 135.962 737.754 136.681 737.754 137.568C737.754 138.455 738.564 139.174 739.564 139.174Z" fill="#512C1D"/>
<path d="M747.824 130.991C736.811 140.766 736.811 156.615 747.824 166.39C758.837 176.165 776.693 176.165 787.707 166.39L747.824 130.991Z" fill="#4A7284"/>
<path d="M740.022 153.165C741.008 158.009 743.605 162.646 747.823 166.39C753.131 171.101 760.028 173.535 766.982 173.705C764.789 162.173 753.586 153.36 740.022 153.165Z" fill="#6EB4E7"/>
<path d="M783.77 162.896C780.392 165.894 780.392 170.754 783.77 173.752C787.147 176.749 792.623 176.749 796 173.752L783.77 162.896Z" fill="#3288C7"/>
<path d="M757.413 156.125C763.92 161.9 774.471 161.9 780.978 156.125C787.485 150.349 787.485 140.984 780.978 135.209L757.413 156.125Z" fill="#6EB4E7"/>
<path d="M757.413 156.125C762.914 161.007 771.832 161.007 777.333 156.125C782.834 151.242 782.834 143.326 777.333 138.444L757.413 156.125Z" fill="#3288C7"/>
<path d="M730.868 137.109H732.835V144.093H723C723 140.236 726.523 137.109 730.868 137.109Z" fill="#FFB819"/>
<path d="M741.117 148.948C747.323 148.948 752.354 144.482 752.354 138.974C752.354 133.465 747.323 129 741.117 129C734.91 129 729.879 133.465 729.879 138.974C729.879 144.482 734.91 148.948 741.117 148.948Z" fill="#4482C3"/>
<path d="M739.564 140.78C741.562 140.78 743.182 139.342 743.182 137.568C743.182 135.794 741.562 134.356 739.564 134.356C737.565 134.356 735.945 135.794 735.945 137.568C735.945 139.342 737.565 140.78 739.564 140.78Z" fill="white"/>
<path d="M739.564 139.174C740.563 139.174 741.373 138.455 741.373 137.568C741.373 136.681 740.563 135.962 739.564 135.962C738.564 135.962 737.754 136.681 737.754 137.568C737.754 138.455 738.564 139.174 739.564 139.174Z" fill="#512C1D"/>
</g>
<defs>
<clipPath id="clip0">
<rect width="781" height="521" fill="white"/>
</clipPath>
</defs>
</svg>
