<svg width="781" height="521" viewBox="0 0 781 521" fill="none" xmlns="http://www.w3.org/2000/svg">
<g clip-path="url(#clip0)">
<rect width="781" height="521" fill="#3BA4CA"/>
<path d="M186.628 129.469C186.628 129.187 186.597 128.904 186.597 128.616C186.597 122.696 192.114 117.912 198.514 119.004C199.177 119.117 199.809 118.703 199.97 118.065C201.605 111.57 211.152 111.92 217.976 113.107C217.752 113.671 218.586 113.213 217.976 113.107C222.196 118.065 228.035 98.1871 236.613 99.3007C241.719 99.9637 245.747 99.7735 248.217 103.797C246.101 98.1287 240.631 93.0765 233.87 92.1988C224.223 90.9464 216.025 97.0222 214.082 104.229C212.828 103.889 211.513 103.699 210.146 103.699C202.874 103.699 196.849 108.906 195.771 115.708C194.77 115.458 193.726 115.325 192.645 115.325C185.659 115.325 180 120.854 180 127.671C180 127.982 180.033 128.289 180.033 128.594C180.033 141.219 198.047 139.959 198.047 139.959L208.482 135.997C203.789 135.77 186.628 138.183 186.628 129.469Z" fill="#DBD2CA"/>
<path d="M259.972 108.043L254.839 108.037C253.157 98.9677 245.606 92.0687 236.602 92.0587C227.598 92.0487 220.027 98.9311 218.317 107.997L198.512 107.975C190.261 107.966 183.498 115.139 183.485 123.914C183.471 132.691 190.213 139.88 198.465 139.889L259.925 139.957C268.178 139.966 274.939 132.792 274.952 124.015C274.966 115.24 268.225 108.052 259.972 108.043V108.043Z" fill="#F7EDE3"/>
<path d="M316.581 132.177C316.581 131.808 316.542 131.436 316.542 131.059C316.542 123.288 323.684 117.01 331.97 118.443C332.829 118.591 333.648 118.048 333.856 117.21C335.972 108.686 348.334 109.145 357.169 110.703C356.879 111.443 357.959 110.842 357.169 110.703C362.632 117.21 370.193 91.1205 381.299 92.5822C387.91 93.4524 393.126 93.2028 396.322 98.4836C393.583 91.0439 386.501 84.4129 377.748 83.2609C365.258 81.6171 354.642 89.5917 352.127 99.0504C350.504 98.6041 348.801 98.3555 347.031 98.3555C337.616 98.3555 329.815 105.189 328.419 114.117C327.124 113.789 325.771 113.615 324.372 113.615C315.327 113.615 308 120.871 308 129.818C308 130.226 308.043 130.63 308.043 131.03C308.043 147.6 331.366 145.946 331.366 145.946L344.877 140.746C338.801 140.448 316.581 143.615 316.581 132.177Z" fill="#DBD2CA"/>
<path d="M411.547 104.074L404.902 104.065C402.721 92.1616 392.942 83.1048 381.285 83.0896C369.628 83.0744 359.826 92.1057 357.615 104.004L331.973 103.97C321.29 103.956 312.535 113.37 312.52 124.887C312.506 136.407 321.237 145.844 331.92 145.858L411.494 145.961C422.18 145.975 430.933 136.562 430.947 125.042C430.962 113.524 422.233 104.088 411.547 104.074V104.074Z" fill="#F7EDE3"/>
<path d="M666.051 187.436C625.156 169.944 602.022 132.345 614.379 103.456C623.418 82.3232 648.948 71.7084 678.012 74.3784C644.41 67.4392 613.184 77.8925 602.978 101.753C590.621 130.642 613.756 168.241 654.65 185.733C665.629 190.429 676.771 193.196 687.436 194.176C680.356 192.714 673.169 190.481 666.051 187.436Z" fill="#4482C3"/>
<path d="M79 380H194V454H79V380Z" fill="#B0AC9B"/>
<path d="M137 380H194V454H137V380Z" fill="#878477"/>
<path d="M78.5012 460C73.2533 460 69 455.703 69 450.405V379.595C69 374.297 73.2533 370 78.5012 370C83.7467 370 88 374.297 88 379.595V450.405C88 455.703 83.7467 460 78.5012 460V460Z" fill="#E5E2D6"/>
<path d="M116.5 454C111.254 454 107 449.655 107 444.296V379.704C107 374.345 111.254 370 116.5 370C121.746 370 126 374.345 126 379.704V444.296C126 449.655 121.746 454 116.5 454V454Z" fill="#E5E2D6"/>
<path d="M156.501 454C151.253 454 147 449.655 147 444.296V379.704C147 374.345 151.253 370 156.501 370C161.747 370 166 374.345 166 379.704V444.296C166 449.655 161.747 454 156.501 454V454Z" fill="#C9C5B1"/>
<path d="M194.499 460C189.253 460 185 455.703 185 450.405V379.595C185 374.297 189.253 370 194.499 370C199.747 370 204 374.297 204 379.595V450.405C204 455.703 199.747 460 194.499 460V460Z" fill="#C9C5B1"/>
<path d="M66 380H207L136.513 337L66 380Z" fill="#B0AC9B"/>
<path d="M137 380H207L137.246 337L137 337.151V380Z" fill="#878477"/>
<path d="M209.294 390H63.7055C59.3752 390 55.5681 387.167 54.3749 383.053C53.1842 378.942 54.8957 374.549 58.5713 372.285L131.376 327.452C134.521 325.515 138.507 325.517 141.649 327.452L214.431 372.285C218.104 374.549 219.816 378.945 218.625 383.053C217.432 387.167 213.625 390 209.294 390V390ZM97.6102 370.835H175.402L136.513 346.877L97.6102 370.835Z" fill="#E5E2D6"/>
<path d="M214.472 372.283L142.332 327.446C140.703 326.435 138.847 325.956 137 326.003V347.023L137.241 346.873L175.787 370.83H137V390H209.38C213.672 390 217.446 387.164 218.628 383.053C219.809 378.944 218.112 374.548 214.472 372.283V372.283Z" fill="#C9C5B1"/>
<path d="M30.4242 86.5628C30.4242 86.1755 30.3808 85.7852 30.3808 85.3898C30.3808 77.2424 38.225 70.6597 47.3255 72.1621C48.2682 72.3176 49.1675 71.7479 49.3959 70.8699C51.7207 61.9321 65.297 62.4136 75 64.047C74.6808 64.8222 75.8669 64.1926 75 64.047C81 70.8699 89.3031 43.5144 101.5 45.047C108.761 45.9594 114.489 45.6977 118 51.2347C114.992 43.4341 107.213 36.4814 97.6004 35.2735C83.8832 33.5501 72.225 41.9114 69.4628 51.8289C67.6802 51.361 65.8094 51.1003 63.8657 51.1003C53.5257 51.1003 44.9578 58.2651 43.4256 67.6265C42.0026 67.282 40.5173 67.0997 38.9801 67.0997C29.0466 67.0997 21 74.7079 21 84.0887C21 84.517 21.0469 84.9398 21.0469 85.3592C21.0469 102.734 46.6621 100.999 46.6621 100.999L61.5 95.547C54.827 95.2345 30.4242 98.5549 30.4242 86.5628Z" fill="#DBD2CA"/>
<path d="M134.722 57.1006L127.423 57.0912C125.027 44.6099 114.287 35.1134 101.485 35.0969C88.6822 35.0805 77.9179 44.5494 75.4903 57.0245L47.3291 56.9883C35.5962 56.9733 25.9816 66.8431 25.9661 78.919C25.9505 90.9978 35.5398 100.892 47.2727 100.907L134.665 101.02C146.401 101.035 156.013 91.1649 156.028 79.0861C156.044 67.0101 146.457 57.1157 134.722 57.1006V57.1006Z" fill="#F7EDE3"/>
<path d="M220.424 155.563C220.424 155.175 220.381 154.785 220.381 154.39C220.381 146.242 228.225 139.66 237.326 141.162C238.268 141.318 239.167 140.748 239.396 139.87C241.721 130.932 255.297 131.414 265 133.047C264.681 133.822 265.867 133.193 265 133.047C271 139.87 279.303 112.514 291.5 114.047C298.761 114.959 304.489 114.698 308 120.235C304.992 112.434 297.213 105.481 287.6 104.274C273.883 102.55 262.225 110.911 259.463 120.829C257.68 120.361 255.809 120.1 253.866 120.1C243.526 120.1 234.958 127.265 233.426 136.627C232.003 136.282 230.517 136.1 228.98 136.1C219.047 136.1 211 143.708 211 153.089C211 153.517 211.047 153.94 211.047 154.359C211.047 171.734 236.662 169.999 236.662 169.999L251.5 164.547C244.827 164.235 220.424 167.555 220.424 155.563Z" fill="#DBD2CA"/>
<path d="M324.722 126.101L317.423 126.091C315.027 113.61 304.287 104.113 291.485 104.097C278.682 104.08 267.918 113.549 265.49 126.025L237.329 125.988C225.596 125.973 215.982 135.843 215.966 147.919C215.951 159.998 225.54 169.892 237.273 169.907L324.665 170.02C336.401 170.035 346.013 160.165 346.028 148.086C346.044 136.01 336.457 126.116 324.722 126.101V126.101Z" fill="#F7EDE3"/>
<path d="M506.628 169.667C506.628 169.444 506.597 169.219 506.597 168.992C506.597 164.304 512.114 160.517 518.514 161.381C519.177 161.471 519.809 161.143 519.97 160.638C521.605 155.495 531.152 155.772 537.976 156.712C537.752 157.158 538.586 156.796 537.976 156.712C542.196 160.638 548.035 144.899 556.613 145.781C561.719 146.305 565.747 146.155 568.217 149.341C566.101 144.853 560.631 140.852 553.87 140.157C544.223 139.166 536.025 143.976 534.082 149.682C532.828 149.413 531.513 149.263 530.146 149.263C522.874 149.263 516.849 153.386 515.771 158.772C514.77 158.573 513.726 158.468 512.645 158.468C505.659 158.468 500 162.846 500 168.243C500 168.49 500.033 168.733 500.033 168.974C500.033 178.97 518.047 177.972 518.047 177.972L528.482 174.836C523.789 174.656 506.628 176.566 506.628 169.667Z" fill="#DBD2CA"/>
<path d="M579.977 152.72L574.844 152.714C573.159 145.533 565.606 140.069 556.602 140.059C547.598 140.049 540.029 145.496 538.322 152.674L518.517 152.652C510.266 152.643 503.505 158.321 503.494 165.269C503.484 172.218 510.228 177.911 518.48 177.92L579.939 177.988C588.193 177.998 594.952 172.319 594.962 165.37C594.973 158.422 588.23 152.729 579.977 152.72V152.72Z" fill="#F7EDE3"/>
<path d="M391.628 233.667C391.628 233.444 391.597 233.219 391.597 232.992C391.597 228.304 397.114 224.517 403.514 225.381C404.177 225.471 404.809 225.143 404.97 224.638C406.605 219.495 416.152 219.772 422.976 220.712C422.752 221.158 423.586 220.796 422.976 220.712C427.196 224.638 433.035 208.899 441.613 209.781C446.719 210.305 450.747 210.155 453.217 213.341C451.101 208.853 445.631 204.852 438.87 204.157C429.223 203.166 421.025 207.976 419.082 213.682C417.828 213.413 416.513 213.263 415.146 213.263C407.874 213.263 401.849 217.386 400.771 222.772C399.77 222.573 398.726 222.468 397.645 222.468C390.659 222.468 385 226.846 385 232.243C385 232.49 385.033 232.733 385.033 232.974C385.033 242.97 403.047 241.972 403.047 241.972L413.482 238.836C408.789 238.656 391.628 240.566 391.628 233.667Z" fill="#DBD2CA"/>
<path d="M464.977 216.72L459.844 216.714C458.159 209.533 450.606 204.069 441.602 204.059C432.598 204.049 425.029 209.496 423.322 216.674L403.517 216.652C395.266 216.643 388.505 222.321 388.494 229.269C388.484 236.218 395.228 241.911 403.48 241.92L464.939 241.988C473.193 241.998 479.952 236.319 479.962 229.37C479.973 222.422 473.23 216.729 464.977 216.72V216.72Z" fill="#F7EDE3"/>
<path d="M708.628 276.667C708.628 276.444 708.597 276.219 708.597 275.992C708.597 271.304 714.114 267.517 720.514 268.381C721.177 268.471 721.809 268.143 721.97 267.638C723.605 262.495 733.152 262.772 739.976 263.712C739.752 264.158 740.586 263.796 739.976 263.712C744.196 267.638 750.035 251.899 758.613 252.781C763.719 253.305 767.747 253.155 770.217 256.341C768.101 251.853 762.631 247.852 755.87 247.157C746.223 246.166 738.025 250.976 736.082 256.682C734.828 256.413 733.513 256.263 732.146 256.263C724.874 256.263 718.849 260.386 717.771 265.772C716.77 265.573 715.726 265.468 714.645 265.468C707.659 265.468 702 269.846 702 275.243C702 275.49 702.033 275.733 702.033 275.974C702.033 285.97 720.047 284.972 720.047 284.972L730.482 281.836C725.789 281.656 708.628 283.566 708.628 276.667Z" fill="#DBD2CA"/>
<path d="M781.977 259.72L776.844 259.714C775.159 252.533 767.606 247.069 758.602 247.059C749.598 247.049 742.029 252.496 740.322 259.674L720.517 259.652C712.266 259.643 705.505 265.321 705.494 272.269C705.484 279.218 712.228 284.911 720.48 284.92L781.939 284.988C790.193 284.998 796.952 279.319 796.962 272.37C796.973 265.422 790.23 259.729 781.977 259.72V259.72Z" fill="#F7EDE3"/>
<path d="M559.628 266.667C559.628 266.444 559.597 266.219 559.597 265.992C559.597 261.304 565.114 257.517 571.514 258.381C572.177 258.471 572.809 258.143 572.97 257.638C574.605 252.495 584.152 252.772 590.976 253.712C590.752 254.158 591.586 253.796 590.976 253.712C595.196 257.638 601.035 241.899 609.613 242.781C614.719 243.305 618.747 243.155 621.217 246.341C619.101 241.853 613.631 237.852 606.87 237.157C597.223 236.166 589.025 240.976 587.082 246.682C585.828 246.413 584.513 246.263 583.146 246.263C575.874 246.263 569.849 250.386 568.771 255.772C567.77 255.573 566.726 255.468 565.645 255.468C558.659 255.468 553 259.846 553 265.243C553 265.49 553.033 265.733 553.033 265.974C553.033 275.97 571.047 274.972 571.047 274.972L581.482 271.836C576.789 271.656 559.628 273.566 559.628 266.667Z" fill="#DBD2CA"/>
<path d="M632.977 249.72L627.844 249.714C626.159 242.533 618.606 237.069 609.602 237.059C600.598 237.049 593.029 242.496 591.322 249.674L571.517 249.652C563.266 249.643 556.505 255.321 556.494 262.269C556.484 269.218 563.228 274.911 571.48 274.92L632.939 274.988C641.193 274.998 647.952 269.319 647.962 262.37C647.973 255.422 641.23 249.729 632.977 249.72V249.72Z" fill="#F7EDE3"/>
<path d="M291.823 529.248H-0.177331L0.177331 484.752L57.7886 456.486C84.7852 443.242 115.25 436.248 145.923 436.248C146.139 436.248 146.347 436.248 146.563 436.25C177.454 436.347 208.098 443.539 235.179 457.049L291.823 485.304V529.248Z" fill="#C9C5B1"/>
<path d="M421 523H130L130.353 478.504L187.767 450.238C214.672 436.994 245.032 430 275.6 430C275.816 430 276.022 430 276.238 430.002C307.023 430.099 337.562 437.291 364.551 450.801L421 479.056V523Z" fill="#C9C5B1"/>
<path d="M232.554 454.524C232.344 454.574 232.144 454.624 231.935 454.676C231.903 454.684 70.5322 515.992 70.4999 516L257.21 544.551L398.108 509.377L386.119 466.921L323.747 453.269C293.927 446.741 262.392 447.175 232.554 454.524Z" fill="#B0AC9B"/>
<path d="M333.741 460.002C333.524 460 333.317 460 333.1 460C333.067 460 333.033 460 333 460V553H479L541 525L422.357 480.801C395.275 467.291 364.632 460.099 333.741 460.002Z" fill="#B0AC9B"/>
<path d="M347.359 430.902L352.222 419.47C352.281 419.335 352.303 419.189 352.286 419.045L352.041 416.971C351.999 416.62 351.732 416.319 351.35 416.194C350.968 416.069 350.537 416.141 350.237 416.381L348.466 417.795C348.343 417.894 348.248 418.015 348.189 418.15L343.326 429.582" fill="#B0D3F0"/>
<path d="M344.965 436.026C344.998 435.97 345.03 435.904 345.063 435.839L348.156 429.032L344.125 427.716L341.58 433.265" fill="#297EA3"/>
<path d="M326.918 423.986V421.711H328.546C328.869 421.711 329.175 421.586 329.38 421.37C329.584 421.154 329.666 420.87 329.603 420.596L328.783 417.049C328.663 416.585 328.435 416.147 328.115 415.761L331.166 413.123C331.391 412.929 331.506 412.658 331.479 412.384C331.451 412.11 331.284 411.861 331.023 411.703C328.171 409.969 324.529 409.53 321.237 410.521C319.283 411.018 317.644 412.174 316.687 413.729C315.619 415.64 316.18 417.915 316.924 419.846C317.446 421.286 317.057 422.857 315.9 423.986H326.918Z" fill="#154550"/>
<path d="M315.016 427.716C315.016 428.232 315.498 428.649 316.094 428.649C316.689 428.649 317.172 428.232 317.172 427.716C317.172 427.201 316.689 426.784 316.094 426.784C315.498 426.784 315.016 427.201 315.016 427.716Z" fill="black"/>
<path d="M326.875 426.784C326.875 427.299 327.358 427.716 327.953 427.716C328.548 427.716 329.031 427.299 329.031 426.784C329.031 426.269 328.548 425.852 327.953 425.852C327.358 425.852 326.875 426.269 326.875 426.784Z" fill="black"/>
<path d="M326.875 429.582C326.875 430.097 327.358 430.514 327.953 430.514C328.548 430.514 329.031 430.097 329.031 429.582C329.031 429.067 328.548 428.649 327.953 428.649C327.358 428.649 326.875 429.067 326.875 429.582Z" fill="black"/>
<path d="M331.996 447.412L332.675 454.07L327.306 454.481L326.67 448.186L331.996 447.412Z" fill="#464F5D"/>
<path d="M322.778 448.186L322.131 454.527L316.762 454.126L317.441 447.412L322.778 448.186Z" fill="#464F5D"/>
<path d="M315.382 445.295C315.142 445.992 315.533 446.736 316.299 447.039C316.67 447.183 317.052 447.308 317.441 447.412C319.173 447.873 320.967 448.133 322.778 448.186C323.382 448.214 324.029 448.232 324.719 448.232C325.419 448.232 326.066 448.214 326.67 448.186C328.477 448.133 330.268 447.873 331.996 447.412C332.233 447.347 332.46 447.281 332.664 447.207C333.703 446.851 334.251 445.865 333.926 444.941L331.187 437.042H325.506C325.323 437.751 319.673 436.389 319.328 437.042C318.994 437.685 316.568 439.271 316.094 439.84C314.671 441.593 317.366 442.824 315.015 443.57C314.304 443.803 316.018 445.062 315.479 445.277C315.448 445.287 315.415 445.293 315.382 445.295V445.295Z" fill="#154550"/>
<path d="M315.899 423.986H328.039C328.692 423.988 329.337 424.115 329.926 424.359L333.149 425.712C333.539 425.875 333.887 426.103 334.174 426.383C334.407 426.617 334.597 426.881 334.734 427.166L336.6 431.102C336.699 431.326 336.902 431.505 337.16 431.596L343.694 434.067C344.786 434.482 345.283 435.584 344.804 436.529C344.325 437.474 343.05 437.904 341.957 437.49L337.871 435.941H337.861L334.637 434.72C333.87 434.427 333.264 433.889 332.945 433.219L331.877 430.981L331.532 431.68C331.305 432.143 331.187 432.641 331.187 433.144V437.042H325.506C326.893 431.597 323.236 426.139 317.085 424.471C316.676 424.359 316.277 424.276 315.846 424.192L315.899 423.986Z" fill="#2C6198"/>
<path d="M331.877 430.98L332.945 433.219C333.264 433.889 333.87 434.427 334.637 434.72L337.861 435.941H337.871L341.957 437.49C342.665 437.758 343.483 437.68 344.105 437.284C344.727 436.889 345.057 436.236 344.973 435.573C344.888 434.909 344.4 434.335 343.694 434.067L337.16 431.596C336.902 431.505 336.699 431.326 336.6 431.102L334.734 427.166C334.597 426.881 334.407 426.617 334.174 426.383" fill="#547580"/>
<path d="M319.781 417.375C320.061 418.578 321.172 419.52 321.236 420.779C322.589 420.364 324.083 420.476 325.333 421.086C325.784 421.263 326.217 421.472 326.627 421.711H328.546C328.869 421.711 329.175 421.586 329.38 421.37C329.584 421.154 329.666 420.87 329.603 420.596L328.783 417.049C328.582 416.368 328.185 415.742 327.63 415.23C326.082 413.97 323.806 413.645 321.872 414.409C320.417 414.808 319.525 416.073 319.781 417.375Z" fill="#4482C3"/>
<path d="M322.907 417.878L324.622 418.624L325.333 421.086C325.784 421.263 326.217 421.472 326.627 421.711H327.705C327.705 421.636 327.694 421.56 327.673 421.487L326.594 417.757C326.517 417.492 326.308 417.27 326.023 417.151L323.867 416.218C323.524 416.066 323.112 416.085 322.789 416.268C322.467 416.451 322.283 416.77 322.307 417.103C322.331 417.436 322.561 417.732 322.907 417.878Z" fill="#155A8D"/>
<path d="M320.169 423.949V423.986H326.918V421.711H326.627C326.217 421.472 325.784 421.263 325.333 421.086C324.083 420.476 322.589 420.364 321.236 420.778C321.236 420.778 321.84 422.877 320.169 423.949Z" fill="#547580"/>
<path d="M330.977 464.018C331.974 463.943 332.895 463.528 333.539 462.865C334.182 462.202 334.494 461.345 334.407 460.483L333.854 455.018C333.819 454.666 333.556 454.362 333.177 454.232L333.057 454.191C332.069 453.854 331.003 453.719 329.944 453.799H329.942C328.883 453.88 327.861 454.172 326.955 454.653L326.846 454.711C326.498 454.896 326.3 455.235 326.336 455.587L326.889 461.052C327.07 462.847 328.901 464.176 330.977 464.018V464.018Z" fill="#547580"/>
<path d="M318.46 464.073C317.463 463.998 316.542 463.583 315.898 462.92C315.255 462.256 314.943 461.399 315.03 460.537L315.583 455.073C315.618 454.721 315.881 454.417 316.261 454.287L316.38 454.246C317.368 453.908 318.434 453.774 319.493 453.854H319.495C320.554 453.934 321.577 454.227 322.482 454.708L322.591 454.766C322.939 454.951 323.137 455.29 323.101 455.642L322.548 461.107C322.366 462.902 320.536 464.23 318.46 464.073V464.073Z" fill="#547580"/>
<path d="M329.031 456.625C329.031 457.14 329.514 457.558 330.109 457.558C330.704 457.558 331.187 457.14 331.187 456.625C331.187 456.11 330.704 455.693 330.109 455.693C329.514 455.693 329.031 456.11 329.031 456.625Z" fill="#84B5CB"/>
<path d="M318.25 456.625C318.25 457.14 318.733 457.558 319.328 457.558C319.924 457.558 320.406 457.14 320.406 456.625C320.406 456.11 319.924 455.693 319.328 455.693C318.733 455.693 318.25 456.11 318.25 456.625Z" fill="#84B5CB"/>
<path d="M343.327 429.582L345.645 430.346L351.37 416.209C350.987 416.068 350.544 416.133 350.238 416.377L348.47 417.795C348.344 417.891 348.248 418.013 348.189 418.149L343.327 429.582Z" fill="#90BAE1"/>
<path d="M349.506 428.316L343.456 426.337C342.898 426.155 342.276 426.397 342.065 426.879L341.303 428.623C341.092 429.105 341.373 429.643 341.929 429.826L347.98 431.805C348.536 431.987 349.159 431.745 349.369 431.263L350.133 429.519C350.343 429.037 350.062 428.499 349.506 428.316Z" fill="#1268A7"/>
<path d="M301 434.711C301.001 440.633 306.551 445.434 313.399 445.435C314.063 445.436 314.726 445.389 315.382 445.295C315.415 445.293 315.448 445.287 315.479 445.277C316.24 445.169 316.988 444.998 317.711 444.764C320.053 444.017 322.076 442.67 323.511 440.903C324.467 439.744 325.145 438.431 325.506 437.042C326.893 431.597 323.236 426.139 317.085 424.471C316.676 424.359 316.277 424.276 315.845 424.192C315.814 424.182 315.77 424.182 315.738 424.173C314.966 424.049 314.183 423.987 313.399 423.986C306.551 423.987 301.001 428.788 301 434.711V434.711Z" fill="#59474E"/>
<path d="M308.547 434.711C308.547 437.028 310.719 438.907 313.399 438.907C316.078 438.907 318.25 437.028 318.25 434.711C318.25 432.393 316.078 430.514 313.399 430.514C310.719 430.514 308.547 432.393 308.547 434.711Z" fill="#90BAE1"/>
<path d="M312.83 434.27C312.83 434.785 313.312 435.203 313.908 435.203C314.503 435.203 314.985 434.785 314.985 434.27C314.985 433.755 314.503 433.338 313.908 433.338C313.312 433.338 312.83 433.755 312.83 434.27Z" fill="#B0D3F0"/>
<path d="M313.399 439.84C316.673 439.84 319.328 437.543 319.328 434.71C319.328 431.878 316.673 429.582 313.399 429.582C310.124 429.582 307.469 431.878 307.469 434.71C307.472 437.542 310.125 439.836 313.399 439.84V439.84ZM313.399 431.447C315.482 431.447 317.172 432.908 317.172 434.71C317.172 436.513 315.482 437.975 313.399 437.975C311.314 437.975 309.625 436.513 309.625 434.71C309.627 432.909 311.315 431.449 313.399 431.447V431.447Z" fill="#2C2F38"/>
<path d="M321.485 433.312C321.858 433.312 322.205 433.144 322.401 432.869C322.597 432.594 322.616 432.252 322.449 431.963C321.716 430.672 320.715 429.509 319.497 428.531C319.214 428.298 318.808 428.215 318.435 428.314C318.061 428.413 317.78 428.679 317.697 429.009C317.615 429.339 317.746 429.682 318.04 429.905C319.063 430.73 319.904 431.709 320.52 432.796C320.703 433.113 321.077 433.312 321.485 433.312V433.312Z" fill="#AF8066"/>
<path d="M410.405 446.059L415.355 434.665C415.415 434.531 415.438 434.385 415.422 434.241L415.193 432.165C415.154 431.813 414.889 431.51 414.508 431.382C414.127 431.254 413.696 431.323 413.394 431.561L411.612 432.962C411.488 433.059 411.392 433.18 411.332 433.315L406.382 444.709" fill="#B0D3F0"/>
<path d="M407.973 451.165C408.006 451.109 408.038 451.044 408.071 450.979L411.217 444.195L407.195 442.85L404.608 448.379" fill="#297EA3"/>
<path d="M390.017 438.989L390.035 436.714L391.663 436.726C391.986 436.728 392.293 436.605 392.499 436.391C392.705 436.176 392.789 435.893 392.729 435.619L391.935 432.065C391.818 431.601 391.594 431.161 391.277 430.773L394.348 428.158C394.575 427.965 394.692 427.696 394.666 427.421C394.641 427.147 394.476 426.897 394.216 426.737C391.377 424.982 387.738 424.514 384.439 425.48C382.482 425.963 380.833 427.106 379.864 428.654C378.783 430.557 379.326 432.836 380.055 434.772C380.566 436.216 380.165 437.785 378.999 438.905L390.017 438.989Z" fill="#154550"/>
<path d="M378.087 442.628C378.083 443.144 378.563 443.564 379.158 443.569C379.753 443.573 380.239 443.16 380.243 442.645C380.247 442.13 379.767 441.709 379.172 441.704C378.577 441.7 378.091 442.113 378.087 442.628Z" fill="black"/>
<path d="M389.953 441.786C389.949 442.301 390.429 442.722 391.024 442.727C391.619 442.731 392.105 442.318 392.109 441.803C392.113 441.288 391.634 440.866 391.038 440.862C390.443 440.857 389.957 441.271 389.953 441.786Z" fill="black"/>
<path d="M389.932 444.584C389.928 445.099 390.408 445.52 391.003 445.524C391.598 445.529 392.084 445.115 392.088 444.6C392.092 444.085 391.612 443.664 391.017 443.659C390.422 443.655 389.936 444.069 389.932 444.584Z" fill="black"/>
<path d="M394.917 462.452L395.546 469.116L390.174 469.485L389.585 463.186L394.917 462.452Z" fill="#464F5D"/>
<path d="M385.693 463.156L384.998 469.493L379.632 469.051L380.363 462.342L385.693 463.156Z" fill="#464F5D"/>
<path d="M378.32 460.209C378.074 460.905 378.46 461.652 379.223 461.96C379.594 462.107 379.974 462.235 380.363 462.342C382.091 462.815 383.883 463.089 385.693 463.156C386.297 463.189 386.944 463.212 387.634 463.217C388.334 463.223 388.981 463.209 389.585 463.186C391.393 463.147 393.185 462.9 394.917 462.452C395.154 462.389 395.382 462.325 395.587 462.252C396.628 461.904 397.184 460.923 396.865 459.996L394.187 452.077L388.506 452.033C388.317 452.741 382.678 451.336 382.328 451.986C381.989 452.627 379.551 454.194 379.073 454.759C377.636 456.502 380.322 457.753 377.966 458.481C377.253 458.709 378.958 459.981 378.417 460.191C378.386 460.201 378.353 460.208 378.32 460.209V460.209Z" fill="#154550"/>
<path d="M378.999 438.905L391.138 438.997C391.791 439.004 392.435 439.136 393.022 439.385L396.235 440.762C396.624 440.928 396.97 441.158 397.255 441.441C397.487 441.676 397.674 441.942 397.809 442.228L399.645 446.178C399.742 446.403 399.944 446.584 400.201 446.676L406.716 449.197C407.805 449.62 408.294 450.726 407.807 451.667C407.321 452.609 406.043 453.029 404.954 452.606L400.88 451.027L400.869 451.027L397.655 449.781C396.89 449.482 396.288 448.94 395.974 448.267L394.924 446.02L394.573 446.717C394.342 447.179 394.221 447.676 394.217 448.179L394.187 452.077L388.506 452.033C389.934 446.599 386.319 441.113 380.181 439.399C379.772 439.284 379.374 439.197 378.944 439.11L378.999 438.905Z" fill="#2C6198"/>
<path d="M394.924 446.02L395.974 448.267C396.288 448.94 396.89 449.482 397.655 449.781L400.869 451.027L400.88 451.027L404.954 452.606C405.659 452.88 406.477 452.808 407.103 452.417C407.728 452.026 408.063 451.377 407.983 450.712C407.903 450.048 407.42 449.471 406.716 449.197L400.201 446.676C399.944 446.584 399.743 446.403 399.645 446.178L397.809 442.228C397.674 441.942 397.487 441.676 397.255 441.441" fill="#547580"/>
<path d="M382.931 432.323C383.202 433.528 384.305 434.478 384.36 435.738C385.716 435.333 387.209 435.457 388.455 436.077C388.904 436.257 389.335 436.469 389.744 436.711L391.663 436.726C391.986 436.728 392.292 436.605 392.499 436.391C392.705 436.176 392.789 435.893 392.728 435.619L391.935 432.065C391.74 431.383 391.348 430.754 390.796 430.238C389.257 428.966 386.984 428.624 385.045 429.373C383.587 429.761 382.685 431.02 382.931 432.323Z" fill="#4482C3"/>
<path d="M386.053 432.85L387.762 433.61L388.455 436.077C388.904 436.257 389.335 436.469 389.744 436.711L390.822 436.72C390.822 436.644 390.812 436.569 390.791 436.496L389.741 432.757C389.666 432.491 389.459 432.268 389.174 432.147L387.026 431.198C386.683 431.043 386.272 431.059 385.948 431.239C385.624 431.42 385.437 431.737 385.459 432.07C385.481 432.404 385.708 432.702 386.053 432.85Z" fill="#155A8D"/>
<path d="M383.269 438.9L383.268 438.938L390.017 438.989L390.035 436.714L389.744 436.711C389.335 436.469 388.904 436.257 388.455 436.077C387.209 435.457 385.716 435.333 384.36 435.738C384.36 435.738 384.948 437.841 383.269 438.9Z" fill="#547580"/>
<path d="M393.771 479.051C394.769 478.983 395.693 478.575 396.342 477.917C396.99 477.258 397.309 476.404 397.228 475.541L396.718 470.072C396.684 469.72 396.424 469.414 396.046 469.281L395.927 469.239C394.941 468.894 393.876 468.752 392.817 468.824L392.815 468.824C391.755 468.896 390.731 469.181 389.821 469.655L389.711 469.712C389.362 469.895 389.162 470.232 389.195 470.584L389.706 476.053C389.874 477.85 391.695 479.192 393.771 479.051V479.051Z" fill="#547580"/>
<path d="M381.255 479.01C380.259 478.927 379.341 478.505 378.702 477.837C378.064 477.169 377.758 476.31 377.852 475.448L378.446 469.988C378.484 469.636 378.749 469.334 379.13 469.207L379.249 469.167C380.24 468.837 381.307 468.711 382.365 468.799L382.367 468.799C383.425 468.888 384.446 469.188 385.348 469.676L385.457 469.735C385.803 469.922 385.998 470.263 385.959 470.614L385.365 476.075C385.17 477.869 383.329 479.183 381.255 479.01V479.01Z" fill="#547580"/>
<path d="M391.882 471.643C391.878 472.158 392.358 472.579 392.953 472.584C393.548 472.588 394.034 472.174 394.038 471.659C394.042 471.144 393.563 470.723 392.967 470.718C392.372 470.714 391.886 471.128 391.882 471.643Z" fill="#84B5CB"/>
<path d="M381.101 471.561C381.097 472.076 381.577 472.497 382.172 472.502C382.768 472.506 383.254 472.092 383.258 471.577C383.261 471.062 382.782 470.641 382.187 470.636C381.591 470.632 381.105 471.046 381.101 471.561Z" fill="#84B5CB"/>
<path d="M406.383 444.709L408.695 445.491L414.528 431.398C414.146 431.253 413.702 431.316 413.394 431.557L411.615 432.961C411.489 433.057 411.392 433.178 411.332 433.313L406.383 444.709Z" fill="#90BAE1"/>
<path d="M412.572 443.491L406.537 441.465C405.981 441.278 405.357 441.516 405.142 441.996L404.366 443.735C404.152 444.215 404.429 444.755 404.984 444.942L411.019 446.968C411.574 447.154 412.199 446.916 412.413 446.436L413.189 444.697C413.403 444.217 413.127 443.677 412.572 443.491Z" fill="#1268A7"/>
<path d="M364.019 449.515C363.975 455.438 369.488 460.281 376.335 460.334C377 460.34 377.663 460.298 378.32 460.209C378.353 460.208 378.386 460.201 378.417 460.191C379.179 460.09 379.928 459.924 380.652 459.695C383.001 458.966 385.034 457.635 386.482 455.879C387.447 454.727 388.135 453.42 388.506 452.033C389.934 446.599 386.319 441.113 380.181 439.399C379.772 439.284 379.374 439.197 378.944 439.11C378.912 439.1 378.868 439.1 378.836 439.09C378.066 438.961 377.283 438.892 376.498 438.886C369.651 438.835 364.065 443.593 364.019 449.515V449.515Z" fill="#59474E"/>
<path d="M371.565 449.573C371.548 451.891 373.705 453.786 376.385 453.806C379.064 453.827 381.25 451.964 381.268 449.647C381.286 447.329 379.128 445.434 376.449 445.414C373.769 445.393 371.583 447.255 371.565 449.573Z" fill="#90BAE1"/>
<path d="M375.851 449.165C375.847 449.68 376.327 450.101 376.922 450.106C377.518 450.11 378.003 449.697 378.007 449.182C378.011 448.667 377.532 448.245 376.936 448.241C376.341 448.236 375.855 448.65 375.851 449.165Z" fill="#B0D3F0"/>
<path d="M376.378 454.739C379.652 454.764 382.325 452.488 382.346 449.655C382.368 446.822 379.73 444.506 376.456 444.481C373.181 444.456 370.509 446.732 370.487 449.565C370.469 452.396 373.104 454.71 376.378 454.739V454.739ZM376.442 446.346C378.526 446.362 380.204 447.836 380.19 449.638C380.176 451.441 378.476 452.89 376.392 452.874C374.308 452.858 372.63 451.384 372.643 449.581C372.659 447.779 374.358 446.332 376.442 446.346V446.346Z" fill="#2C2F38"/>
<path d="M384.514 448.273C384.887 448.275 385.235 448.11 385.433 447.837C385.631 447.564 385.652 447.221 385.487 446.931C384.765 445.635 383.772 444.464 382.562 443.477C382.281 443.242 381.876 443.155 381.502 443.252C381.127 443.348 380.843 443.612 380.759 443.941C380.674 444.271 380.802 444.614 381.094 444.84C382.112 445.672 382.945 446.658 383.552 447.75C383.733 448.068 384.105 448.27 384.514 448.273V448.273Z" fill="#AF8066"/>
<path d="M160.018 442.986V440.711H161.647C161.97 440.711 162.275 440.586 162.48 440.37C162.685 440.154 162.767 439.87 162.704 439.596L161.884 436.049C161.763 435.585 161.535 435.147 161.215 434.761L164.266 432.123C164.492 431.929 164.607 431.658 164.579 431.384C164.552 431.11 164.385 430.861 164.124 430.703C161.272 428.969 157.629 428.53 154.337 429.521C152.384 430.018 150.744 431.174 149.787 432.729C148.72 434.64 149.281 436.915 150.024 438.846C150.546 440.286 150.157 441.857 149 442.986H160.018Z" fill="#154550"/>
<path d="M157.875 444.784C157.875 445.299 158.358 445.716 158.953 445.716C159.549 445.716 160.031 445.299 160.031 444.784C160.031 444.269 159.549 443.852 158.953 443.852C158.358 443.852 157.875 444.269 157.875 444.784Z" fill="black"/>
<path d="M157.875 447.582C157.875 448.097 158.358 448.514 158.953 448.514C159.549 448.514 160.031 448.097 160.031 447.582C160.031 447.067 159.549 446.649 158.953 446.649C158.358 446.649 157.875 447.067 157.875 447.582Z" fill="black"/>
<path d="M162.996 465.412L163.675 472.07L158.306 472.481L157.67 466.186L162.996 465.412Z" fill="#464F5D"/>
<path d="M153.778 466.186L153.131 472.527L147.762 472.126L148.441 465.412L153.778 466.186Z" fill="#464F5D"/>
<path d="M146.382 463.295C146.142 463.992 146.533 464.736 147.299 465.039C147.67 465.183 148.052 465.308 148.441 465.412C150.173 465.873 151.967 466.133 153.778 466.186C154.382 466.214 155.029 466.232 155.719 466.232C156.419 466.232 157.066 466.214 157.67 466.186C159.477 466.133 161.268 465.873 162.996 465.412C163.233 465.347 163.46 465.281 163.664 465.207C164.703 464.851 165.251 463.865 164.926 462.941L162.187 455.042H156.506C156.323 455.751 150.673 454.389 150.328 455.042C149.994 455.685 147.568 457.271 147.094 457.84C145.671 459.593 148.366 460.824 146.015 461.57C145.304 461.803 147.018 463.062 146.479 463.277C146.448 463.287 146.415 463.293 146.382 463.295V463.295Z" fill="#154550"/>
<path d="M151.5 443L159.039 442.986C159.692 442.988 160.337 443.115 160.926 443.36L164.149 444.712C164.539 444.875 164.887 445.103 165.174 445.383C165.407 445.617 165.597 445.881 165.734 446.166L167.6 450.102C167.699 450.326 167.902 450.505 168.16 450.596L174.694 453.067C175.786 453.482 176.283 454.584 175.804 455.529C175.325 456.474 174.05 456.904 172.957 456.49L168.871 454.941H168.861L165.637 453.72C164.87 453.427 164.264 452.889 163.945 452.219L162.877 449.981L162.532 450.68C162.305 451.143 162.187 451.641 162.187 452.144V456.042H150.5C150.5 450.596 157.151 445.168 151 443.5C152.915 443.029 156.154 442.795 152 443H151.5Z" fill="#2C6198"/>
<path d="M162.877 449.98L163.945 452.219C164.264 452.889 164.87 453.427 165.637 453.72L168.861 454.941H168.871L172.957 456.49C173.665 456.758 174.483 456.68 175.105 456.284C175.727 455.889 176.057 455.236 175.973 454.573C175.888 453.909 175.4 453.335 174.694 453.067L168.16 450.596C167.902 450.505 167.699 450.326 167.6 450.102L165.734 446.166C165.597 445.881 165.407 445.617 165.174 445.383" fill="#547580"/>
<path d="M158.968 443H151.887C151.506 443.002 151.129 443.129 150.786 443.373L148.905 444.725C148.678 444.888 148.475 445.117 148.308 445.397C148.171 445.63 148.061 445.895 147.981 446.18L146.893 450.115C146.834 450.34 146.716 450.519 146.566 450.61L142.754 453.081C142.117 453.495 141.827 454.598 142.107 455.543C142.386 456.488 143.13 456.918 143.767 456.503L146.151 454.955H146.157L148.037 453.734C148.485 453.441 148.839 452.903 149.025 452.232L149.647 449.994L149.849 450.694C149.982 451.157 150.05 451.655 150.05 452.158V456.056H156.868C156.868 450.61 154.688 445.152 158.277 443.485C158.516 443.373 158.748 443.289 159 443.205L158.968 443Z" fill="#2C6198"/>
<path d="M149.648 449.994L149.025 452.232C148.839 452.903 148.485 453.441 148.038 453.734L146.157 454.955H146.151L143.767 456.503C143.355 456.771 142.877 456.693 142.515 456.298C142.152 455.902 141.959 455.25 142.008 454.586C142.058 453.923 142.342 453.349 142.754 453.081L146.566 450.61C146.716 450.519 146.835 450.34 146.893 450.115L147.981 446.18C148.061 445.895 148.172 445.63 148.308 445.397" fill="#547580"/>
<path d="M152.881 436.375C153.161 437.578 154.272 438.52 154.337 439.779C155.689 439.364 157.184 439.476 158.433 440.086C158.884 440.263 159.317 440.472 159.727 440.711H161.647C161.97 440.711 162.275 440.586 162.48 440.37C162.685 440.154 162.767 439.87 162.704 439.596L161.884 436.049C161.683 435.368 161.286 434.742 160.73 434.23C159.182 432.97 156.906 432.645 154.973 433.409C153.518 433.808 152.626 435.073 152.881 436.375Z" fill="#4482C3"/>
<path d="M153.907 436.878L155.622 437.624L156.333 440.086C156.784 440.263 157.217 440.472 157.627 440.711H158.705C158.705 440.636 158.694 440.56 158.673 440.487L157.594 436.757C157.517 436.492 157.308 436.27 157.023 436.151L154.867 435.218C154.524 435.066 154.112 435.085 153.789 435.268C153.467 435.451 153.283 435.77 153.307 436.103C153.331 436.436 153.561 436.732 153.907 436.878Z" fill="#155A8D"/>
<path d="M153.269 442.949V442.986H160.018V440.711H159.727C159.317 440.472 158.884 440.263 158.433 440.086C157.184 439.476 155.689 439.364 154.337 439.778C154.337 439.778 154.94 441.877 153.269 442.949Z" fill="#547580"/>
<path d="M161.977 482.018C162.974 481.943 163.895 481.528 164.539 480.865C165.182 480.202 165.494 479.345 165.407 478.483L164.854 473.018C164.819 472.666 164.556 472.362 164.177 472.232L164.057 472.191C163.069 471.854 162.003 471.719 160.944 471.799H160.942C159.883 471.88 158.861 472.172 157.955 472.653L157.846 472.711C157.498 472.896 157.3 473.235 157.336 473.587L157.889 479.052C158.07 480.847 159.901 482.176 161.977 482.018V482.018Z" fill="#547580"/>
<path d="M149.46 482.073C148.463 481.998 147.542 481.583 146.898 480.92C146.255 480.256 145.943 479.399 146.03 478.537L146.583 473.073C146.618 472.721 146.881 472.417 147.26 472.287L147.38 472.246C148.368 471.908 149.434 471.774 150.493 471.854H150.495C151.554 471.934 152.576 472.227 153.482 472.708L153.591 472.766C153.939 472.951 154.136 473.29 154.101 473.642L153.548 479.107C153.366 480.902 151.536 482.23 149.46 482.073V482.073Z" fill="#547580"/>
<path d="M160.031 474.625C160.031 475.14 160.514 475.558 161.109 475.558C161.704 475.558 162.187 475.14 162.187 474.625C162.187 474.11 161.704 473.693 161.109 473.693C160.514 473.693 160.031 474.11 160.031 474.625Z" fill="#84B5CB"/>
<path d="M149.25 474.625C149.25 475.14 149.733 475.558 150.328 475.558C150.924 475.558 151.406 475.14 151.406 474.625C151.406 474.11 150.924 473.693 150.328 473.693C149.733 473.693 149.25 474.11 149.25 474.625Z" fill="#84B5CB"/>
<path d="M261.018 412.986V410.711H262.647C262.97 410.711 263.275 410.586 263.48 410.37C263.685 410.154 263.767 409.87 263.704 409.596L262.884 406.049C262.763 405.585 262.535 405.147 262.215 404.761L265.266 402.123C265.492 401.929 265.607 401.658 265.579 401.384C265.552 401.11 265.385 400.861 265.124 400.703C262.272 398.969 258.629 398.53 255.337 399.521C253.384 400.018 251.744 401.174 250.787 402.729C249.72 404.64 250.281 406.915 251.024 408.846C251.546 410.286 251.157 411.857 250 412.986H261.018Z" fill="#154550"/>
<path d="M258.875 414.784C258.875 415.299 259.358 415.716 259.953 415.716C260.549 415.716 261.031 415.299 261.031 414.784C261.031 414.269 260.549 413.852 259.953 413.852C259.358 413.852 258.875 414.269 258.875 414.784Z" fill="black"/>
<path d="M258.875 417.582C258.875 418.097 259.358 418.514 259.953 418.514C260.549 418.514 261.031 418.097 261.031 417.582C261.031 417.067 260.549 416.649 259.953 416.649C259.358 416.649 258.875 417.067 258.875 417.582Z" fill="black"/>
<path d="M263.996 435.412L264.675 442.07L259.306 442.481L258.67 436.186L263.996 435.412Z" fill="#464F5D"/>
<path d="M254.778 436.186L254.131 442.527L248.762 442.126L249.441 435.412L254.778 436.186Z" fill="#464F5D"/>
<path d="M247.382 433.295C247.142 433.992 247.533 434.736 248.299 435.039C248.67 435.183 249.052 435.308 249.441 435.412C251.173 435.873 252.967 436.133 254.778 436.186C255.382 436.214 256.029 436.232 256.719 436.232C257.419 436.232 258.066 436.214 258.67 436.186C260.477 436.133 262.268 435.873 263.996 435.412C264.233 435.347 264.46 435.281 264.664 435.207C265.703 434.851 266.251 433.865 265.926 432.941L263.187 425.042H257.506C257.323 425.751 251.673 424.389 251.328 425.042C250.994 425.685 248.568 427.271 248.094 427.84C246.671 429.593 249.366 430.824 247.015 431.57C246.304 431.803 248.018 433.062 247.479 433.277C247.448 433.287 247.415 433.293 247.382 433.295V433.295Z" fill="#154550"/>
<path d="M252.5 413L260.039 412.986C260.692 412.988 261.337 413.115 261.926 413.36L265.149 414.712C265.539 414.875 265.887 415.103 266.174 415.383C266.407 415.617 266.597 415.881 266.734 416.166L268.6 420.102C268.699 420.326 268.902 420.505 269.16 420.596L275.694 423.067C276.786 423.482 277.283 424.584 276.804 425.529C276.325 426.474 275.05 426.904 273.957 426.49L269.871 424.941H269.861L266.637 423.72C265.87 423.427 265.264 422.889 264.945 422.219L263.877 419.981L263.532 420.68C263.305 421.143 263.187 421.641 263.187 422.144V426.042H251.5C251.5 420.596 258.151 415.168 252 413.5C253.915 413.029 257.154 412.795 253 413H252.5Z" fill="#2C6198"/>
<path d="M263.877 419.98L264.945 422.219C265.264 422.889 265.87 423.427 266.637 423.72L269.861 424.941H269.871L273.957 426.49C274.665 426.758 275.483 426.68 276.105 426.284C276.727 425.889 277.057 425.236 276.973 424.573C276.888 423.909 276.4 423.335 275.694 423.067L269.16 420.596C268.902 420.505 268.699 420.326 268.6 420.102L266.734 416.166C266.597 415.881 266.407 415.617 266.174 415.383" fill="#547580"/>
<path d="M259.968 413H252.887C252.506 413.002 252.129 413.129 251.786 413.373L249.905 414.725C249.678 414.888 249.475 415.117 249.308 415.397C249.171 415.63 249.061 415.895 248.981 416.18L247.893 420.115C247.834 420.34 247.716 420.519 247.566 420.61L243.754 423.081C243.117 423.495 242.827 424.598 243.107 425.543C243.386 426.488 244.13 426.918 244.767 426.503L247.151 424.955H247.157L249.037 423.734C249.485 423.441 249.839 422.903 250.025 422.232L250.647 419.994L250.849 420.694C250.982 421.157 251.05 421.655 251.05 422.158V426.056H257.868C257.868 420.61 255.688 415.152 259.277 413.485C259.516 413.373 259.748 413.289 260 413.205L259.968 413Z" fill="#2C6198"/>
<path d="M250.648 419.994L250.025 422.232C249.839 422.903 249.485 423.441 249.038 423.734L247.157 424.955H247.151L244.767 426.503C244.355 426.771 243.877 426.693 243.515 426.298C243.152 425.902 242.959 425.25 243.008 424.586C243.058 423.923 243.342 423.349 243.754 423.081L247.566 420.61C247.716 420.519 247.835 420.34 247.893 420.115L248.981 416.18C249.061 415.895 249.172 415.63 249.308 415.397" fill="#547580"/>
<path d="M253.881 406.375C254.161 407.578 255.272 408.52 255.337 409.779C256.689 409.364 258.184 409.476 259.433 410.086C259.884 410.263 260.317 410.472 260.727 410.711H262.647C262.97 410.711 263.275 410.586 263.48 410.37C263.685 410.154 263.767 409.87 263.704 409.596L262.884 406.049C262.683 405.368 262.286 404.742 261.73 404.23C260.182 402.97 257.906 402.645 255.973 403.409C254.518 403.808 253.626 405.073 253.881 406.375Z" fill="#4482C3"/>
<path d="M254.907 406.878L256.622 407.624L257.333 410.086C257.784 410.263 258.217 410.472 258.627 410.711H259.705C259.705 410.636 259.694 410.56 259.673 410.487L258.594 406.757C258.517 406.492 258.308 406.27 258.023 406.151L255.867 405.218C255.524 405.066 255.112 405.085 254.789 405.268C254.467 405.451 254.283 405.77 254.307 406.103C254.331 406.436 254.561 406.732 254.907 406.878Z" fill="#155A8D"/>
<path d="M254.269 412.949V412.986H261.018V410.711H260.727C260.317 410.472 259.884 410.263 259.433 410.086C258.184 409.476 256.689 409.364 255.337 409.778C255.337 409.778 255.94 411.877 254.269 412.949Z" fill="#547580"/>
<path d="M262.977 452.018C263.974 451.943 264.895 451.528 265.539 450.865C266.182 450.202 266.494 449.345 266.407 448.483L265.854 443.018C265.819 442.666 265.556 442.362 265.177 442.232L265.057 442.191C264.069 441.853 263.003 441.719 261.944 441.799H261.942C260.883 441.879 259.861 442.172 258.955 442.653L258.846 442.711C258.498 442.896 258.3 443.235 258.336 443.587L258.889 449.052C259.07 450.847 260.901 452.176 262.977 452.018V452.018Z" fill="#547580"/>
<path d="M250.46 452.073C249.463 451.998 248.542 451.583 247.898 450.92C247.255 450.256 246.943 449.399 247.03 448.537L247.583 443.073C247.618 442.721 247.881 442.417 248.26 442.287L248.38 442.246C249.368 441.908 250.434 441.774 251.493 441.854H251.495C252.554 441.934 253.576 442.227 254.482 442.708L254.591 442.766C254.939 442.951 255.136 443.29 255.101 443.642L254.548 449.107C254.366 450.902 252.536 452.23 250.46 452.073V452.073Z" fill="#547580"/>
<path d="M261.031 444.625C261.031 445.14 261.514 445.558 262.109 445.558C262.704 445.558 263.187 445.14 263.187 444.625C263.187 444.11 262.704 443.693 262.109 443.693C261.514 443.693 261.031 444.11 261.031 444.625Z" fill="#84B5CB"/>
<path d="M250.25 444.625C250.25 445.14 250.733 445.558 251.328 445.558C251.924 445.558 252.406 445.14 252.406 444.625C252.406 444.11 251.924 443.693 251.328 443.693C250.733 443.693 250.25 444.11 250.25 444.625Z" fill="#84B5CB"/>
<path d="M176.415 462.599L264.413 439.54C266.024 439.117 267.067 437.771 266.742 436.532C266.418 435.293 264.849 434.631 263.237 435.054L175.24 458.113C173.628 458.535 172.586 459.881 172.91 461.12C173.235 462.359 174.804 463.021 176.415 462.599V462.599Z" fill="#CC8135"/>
<path d="M175.24 458.113L218.446 446.791L219.622 451.277L176.415 462.599C174.804 463.021 173.235 462.359 172.91 461.12C172.586 459.881 173.628 458.535 175.24 458.113V458.113Z" fill="#A15615"/>
<path d="M213.44 406.556L218.484 405.234C220.095 404.812 221.138 403.466 220.813 402.227C220.489 400.988 218.92 400.326 217.308 400.748L212.265 402.07C210.653 402.492 209.611 403.839 209.935 405.077C210.26 406.316 211.829 406.978 213.44 406.556Z" fill="#A15615"/>
<path d="M232.173 385.577C233.784 385.155 234.827 383.808 234.503 382.57L233.484 378.681C233.159 377.442 231.589 376.78 229.979 377.202C228.367 377.625 227.324 378.971 227.649 380.21L228.668 384.099C228.993 385.337 230.562 385.999 232.173 385.577Z" fill="#A15615"/>
<path d="M217.79 396.998C218.797 396.734 219.672 396.076 220.024 395.216C220.55 393.932 219.715 392.685 218.158 392.429L213.279 391.63C211.723 391.375 210.034 392.208 209.508 393.492C208.981 394.775 209.817 396.023 211.373 396.278L216.252 397.078C216.766 397.162 217.294 397.128 217.79 396.998Z" fill="#A15615"/>
<path d="M222.602 389.947C223.097 389.818 223.572 389.59 223.978 389.267C225.212 388.283 225.332 386.785 224.247 385.923L220.842 383.216C219.757 382.353 217.876 382.452 216.642 383.436C215.408 384.419 215.287 385.916 216.373 386.78L219.777 389.486C220.506 390.066 221.594 390.212 222.602 389.947Z" fill="#A15615"/>
<path d="M253.413 399.744L249.354 384.303C249.232 383.842 248.841 383.479 248.292 383.32L241.025 381.219C240.631 381.105 240.182 381.105 239.751 381.218L229.724 383.846C221.002 386.132 215.361 393.435 217.123 400.158L220.146 411.695L239.808 406.501L250.304 403.756C252.455 403.193 253.848 401.396 253.413 399.744Z" fill="#CC8135"/>
<path d="M239.814 406.507L232.492 395.989C231.849 394.861 232.554 393.409 234.066 392.745C235.579 392.081 237.326 392.458 237.97 393.586L245.861 404.922L239.814 406.506L239.814 406.507Z" fill="#A15615"/>
<path d="M243.732 421.477L245.982 430.062L251.283 436.167C252.024 437.018 251.358 438.313 249.997 438.669L239.976 441.295C239.036 441.541 238.094 441.235 237.74 440.567L233.858 433.239L230.104 425.117L243.732 421.477Z" fill="#A15615"/>
<path d="M187.608 436.184L189.858 444.769L195.041 451.929C195.453 452.498 196.325 452.734 197.185 452.508L207.076 449.916C208.519 449.538 209.154 448.127 208.254 447.301L202.026 441.58L201.207 432.621L187.608 436.184Z" fill="#783207"/>
<path d="M239.416 405.006L183.292 419.713L188.092 438.032L244.216 423.325L239.416 405.006Z" fill="#CC8135"/>
<path d="M211.354 412.359L183.292 419.713L188.092 438.032L216.154 430.678L211.354 412.359Z" fill="#A15615"/>
<path d="M177.558 446.341L189.453 443.224L183.292 419.713C176.812 421.411 172.564 426.84 173.869 431.821L175.774 439.088L175.189 444.925C175.084 445.973 176.266 446.68 177.558 446.341Z" fill="#CC8135"/>
<path d="M243.524 450.101C244.231 452.798 247.648 454.24 251.157 453.32C254.666 452.401 256.936 449.469 256.229 446.771C255.523 444.074 252.106 442.632 248.597 443.551C245.088 444.471 242.817 447.403 243.524 450.101V450.101Z" fill="#A15615"/>
<path d="M187.093 464.888C187.8 467.585 191.217 469.027 194.726 468.108C198.235 467.188 200.505 464.256 199.799 461.559C199.092 458.861 195.675 457.419 192.166 458.339C188.657 459.258 186.386 462.19 187.093 464.888V464.888Z" fill="#783207"/>
<path d="M723 124.644C723 152.613 696.585 175.287 664 175.287C631.415 175.287 605 152.613 605 124.644C605 96.674 631.415 74 664 74C696.585 74 723 96.674 723 124.644V124.644Z" fill="#2A657A"/>
<path d="M643.922 113.678C644.272 113.678 644.615 113.702 644.951 113.747L644.963 113.583C653.877 110.449 650.27 103.974 656.173 104.579C660.694 105.043 663.325 103.265 664.411 102.277C664.733 101.985 665.268 101.985 665.59 102.277C666.676 103.265 669.307 105.043 673.828 104.579C679.731 103.974 676.124 110.449 685.038 113.583L685.05 113.747C685.386 113.702 685.729 113.678 686.079 113.678C687.737 113.678 689.25 114.203 690.409 115.069V101.304C688.424 92.5444 684.353 96.6948 678.786 90.0962C673.218 83.4969 665 86.8537 665 86.8537C665 86.8537 656.782 83.4969 651.215 90.0962C645.647 96.6948 641.576 92.5444 639.591 101.304V115.069C640.75 114.203 642.264 113.678 643.922 113.678V113.678Z" fill="#EBEAEC"/>
<path d="M651.684 106.737V98.6262C653.668 89.866 657.74 94.0171 663.307 87.4178C663.567 87.11 663.832 86.8235 664.103 86.5581C661.823 85.91 655.67 84.8152 651.215 90.0962C645.647 96.6956 641.576 92.5444 639.591 101.305V115.069C640.75 114.204 642.264 113.678 643.921 113.678C644.272 113.678 644.615 113.702 644.951 113.747L644.963 113.583C649.399 112.023 650.733 109.637 651.684 107.706V106.737Z" fill="#DAD9DD"/>
<path d="M646.293 125.623C645.861 124.798 645.507 123.948 645.231 123.081V123.082C644.807 123.156 644.37 123.194 643.922 123.194C642.264 123.194 640.75 122.668 639.591 121.803V122.321C639.591 126.7 643.579 130.962 648.608 131.216C647.827 129.353 647.01 126.991 646.293 125.623Z" fill="#EBEAEC"/>
<path d="M686.079 123.194C685.629 123.194 685.19 123.155 684.766 123.081C684.485 123.961 684.126 124.822 683.688 125.659C682.977 127.02 682.166 129.369 681.393 131.216C686.422 130.962 690.409 126.701 690.409 122.321V121.803C689.25 122.668 687.737 123.194 686.079 123.194V123.194Z" fill="#EBEAEC"/>
<path d="M685.994 112.388C685.64 112.388 685.292 112.413 684.952 112.458L685.361 117.883C685.511 119.868 685.272 121.851 684.664 123.757C685.094 123.831 685.539 123.871 685.994 123.871C689.688 123.871 692.683 121.3 692.683 118.13C692.682 114.959 689.688 112.388 685.994 112.388Z" fill="#F7C696"/>
<path d="M644.649 117.887L645.059 112.461C644.718 112.415 644.37 112.391 644.014 112.391C640.316 112.391 637.318 114.965 637.318 118.139C637.318 121.313 640.316 123.887 644.014 123.887C644.469 123.887 644.913 123.848 645.342 123.774C644.733 121.865 644.498 119.875 644.649 117.887Z" fill="#F7C696"/>
<path d="M685.994 118.844C685.794 118.844 685.596 118.835 685.4 118.819C685.423 120.49 685.176 122.151 684.664 123.757C685.094 123.831 685.539 123.871 685.994 123.871C689.688 123.871 692.682 121.3 692.682 118.13C692.682 117.227 692.44 116.375 692.008 115.616C690.923 117.526 688.637 118.844 685.994 118.844V118.844Z" fill="#F2BA88"/>
<path d="M644.61 118.836C644.414 118.851 644.215 118.86 644.014 118.86C641.367 118.86 639.077 117.54 637.991 115.625C637.56 116.385 637.318 117.237 637.318 118.139C637.318 121.313 640.316 123.887 644.014 123.887C644.469 123.887 644.913 123.848 645.342 123.774C644.83 122.169 644.587 120.506 644.61 118.836Z" fill="#F2BA88"/>
<path d="M716.647 166.853C716.265 152.044 708.987 147.851 705.265 145.298C700.065 141.733 687.156 140.315 683.262 141.166C681.654 141.556 679.922 141.028 678.995 139.835C678.639 139.378 678.373 138.975 678.173 138.617C677.105 140.054 675.68 141.285 673.968 142.204L670.141 144.26C666.996 145.949 663.004 145.949 659.86 144.26L656.03 142.204C654.319 141.284 652.895 140.053 651.828 138.617C651.627 138.976 651.362 139.378 651.006 139.835C650.079 141.028 648.346 141.555 646.739 141.166C642.844 140.315 629.935 141.733 624.735 145.298C621.013 147.85 613.735 152.044 613.354 166.853C623.411 182.443 642.768 193 665 193C687.233 193 706.589 182.443 716.647 166.853V166.853Z" fill="#F7C696"/>
<path d="M648.032 190.874C653.406 192.257 659.102 193 665 193C666.79 193 668.561 192.931 670.31 192.797V181.593C667.266 181.593 664.649 178.032 664.649 178.032C660.51 184.345 649.189 185.427 649.189 185.427C651.928 188.948 648.033 190.873 648.032 190.874Z" fill="#F2BA88"/>
<path d="M697.792 174.279C696.703 174.397 695.931 175.251 696.068 176.186C696.077 176.248 696.676 180.481 696.047 185.426C697.492 184.656 698.899 183.836 700.258 182.966C700.471 178.989 700.046 175.982 700.014 175.759C699.876 174.824 698.883 174.164 697.792 174.279V174.279Z" fill="#E5A876"/>
<path d="M632.208 174.279C631.118 174.164 630.124 174.824 629.987 175.759C629.954 175.982 629.53 178.989 629.743 182.966C631.103 183.837 632.509 184.658 633.957 185.427C633.333 180.508 633.918 176.283 633.932 176.186C634.069 175.251 633.298 174.397 632.208 174.279Z" fill="#E5A876"/>
<path d="M701.385 171.796C700.48 171.262 699.243 171.459 698.621 172.236L696.403 175.006C692.136 180.335 686.61 181.55 684.419 182.673C682.299 183.563 679.86 183.575 677.729 182.704L671.374 180.107C668.71 179.018 666.989 176.677 666.989 174.145C666.989 169.814 666.989 161.013 666.989 158.395C666.989 157.452 666.099 156.688 665.001 156.688C663.903 156.688 663.012 157.452 663.012 158.395V174.145C663.012 176.677 661.291 179.018 658.626 180.107L652.272 182.704C650.141 183.575 647.703 183.564 645.583 182.673C643.328 181.517 637.836 180.299 633.598 175.006L631.381 172.236C630.759 171.458 629.521 171.262 628.616 171.796C627.712 172.329 627.481 173.392 628.103 174.169L630.322 176.939C635.268 183.117 641.669 184.616 643.835 185.738C647.049 187.089 650.747 187.108 653.983 185.785C658.758 183.562 662.285 183.198 665.001 179.72C667.711 183.189 671.177 183.531 676.019 185.785C679.25 187.105 682.949 187.091 686.168 185.738C688.327 184.62 694.729 183.125 699.68 176.939L701.898 174.169C702.52 173.392 702.29 172.329 701.385 171.796V171.796Z" fill="#E5A876"/>
<path d="M685.038 112.445C676.124 109.311 679.731 102.836 673.828 103.441C669.307 103.905 666.676 102.127 665.59 101.139C665.268 100.847 664.733 100.847 664.411 101.139C663.325 102.127 660.694 103.905 656.173 103.441C650.27 102.836 653.877 109.311 644.963 112.445L644.547 117.96C644.331 120.823 644.923 123.69 646.294 126.305C647.515 128.638 649.031 131.87 650.154 135.386C651.057 138.21 653.139 140.65 656.031 142.204L659.86 144.26C663.005 145.949 666.996 145.949 670.141 144.26L673.968 142.204C676.863 140.65 678.944 138.209 679.848 135.384C680.965 131.887 682.471 128.671 683.689 126.342C685.063 123.714 685.671 120.84 685.454 117.965L685.038 112.445Z" fill="#FCD2A4"/>
<path d="M666.69 143.496L662.86 141.44C659.975 139.889 657.889 137.457 656.989 134.639C655.866 131.117 654.347 127.878 653.123 125.541C651.753 122.926 651.161 120.059 651.377 117.196L651.627 108.468C651.656 107.488 651.839 106.531 652.158 105.611C651.104 107.644 650.169 110.614 644.963 112.445L644.547 117.961C644.331 120.823 644.923 123.69 646.293 126.306C647.515 128.638 649.031 131.87 650.154 135.386C651.057 138.21 653.138 140.65 656.03 142.204L659.86 144.26C662.824 145.853 666.54 145.943 669.591 144.533C668.581 144.327 667.599 143.985 666.69 143.496V143.496Z" fill="#F7C696"/>
<path d="M690.976 140.537C690.065 140.725 689.114 140.6 688.26 140.27C685.773 139.307 683.262 141.166 683.262 141.166C683.262 141.166 682.512 174.746 656.287 192.45C659.129 192.811 662.038 193 664.998 193H665.002C673.722 193 681.999 191.375 689.447 188.46C700.32 163.947 695.938 141.964 695.938 141.964C694.191 140.285 692.259 140.27 690.976 140.537V140.537Z" fill="#EBEAEC"/>
<path d="M691.602 140.441C691.381 140.464 691.17 140.497 690.976 140.537C690.065 140.725 689.114 140.6 688.26 140.27C688.038 140.184 687.816 140.122 687.596 140.077C687.811 143.924 688.178 160.689 679.862 178.111C679.445 178.983 679.931 179.98 680.947 180.338C681.967 180.695 683.126 180.276 683.542 179.405C691.901 161.892 691.845 145.391 691.602 140.441V140.441Z" fill="#DAD9DD"/>
<path d="M684.766 123.764C682.391 123.764 680.433 125.347 680.276 127.381C680.029 130.549 679.249 134.957 676.874 136.996C674.084 139.391 670.262 137.755 668.279 136.604C667.312 136.043 666.173 135.745 665.005 135.745H664.998C663.829 135.745 662.688 136.043 661.72 136.605C659.737 137.755 655.917 139.39 653.127 136.996C650.751 134.957 649.972 130.549 649.725 127.381C649.567 125.347 647.609 123.764 645.235 123.764C645.235 123.764 642.738 129.828 645.235 134.379C647.517 138.537 640.141 148.049 658.934 158.06C662.652 160.041 667.349 160.041 671.066 158.06C689.86 148.049 682.484 138.537 684.766 134.379C687.263 129.828 684.766 123.764 684.766 123.764Z" fill="#EBEAEC"/>
<path d="M658.698 145.527C654.284 141.737 658.698 137.912 658.698 137.912C656.889 138.417 654.818 138.448 653.127 136.996C650.752 134.957 649.972 130.549 649.725 127.38C649.567 125.347 647.609 123.764 645.235 123.764C645.235 123.764 642.738 129.828 645.235 134.379C647.517 138.537 640.141 148.049 658.934 158.06C661.378 159.362 664.246 159.802 666.981 159.393C659.247 154.857 663.112 149.316 658.698 145.527V145.527Z" fill="#DAD9DD"/>
<path d="M669.507 119.785C668.492 119.423 668.012 118.425 668.432 117.555C669.324 115.708 671.636 114.623 673.929 114.973L676.008 115.291C677.09 115.457 677.81 116.343 677.618 117.271C677.425 118.198 676.392 118.817 675.31 118.651L673.232 118.333C672.755 118.259 672.292 118.478 672.106 118.863C671.683 119.736 670.519 120.145 669.507 119.785Z" fill="#84260D"/>
<path d="M657.895 118.863C657.709 118.478 657.244 118.262 656.768 118.334L654.69 118.651C653.61 118.817 652.577 118.199 652.383 117.271C652.19 116.343 652.91 115.457 653.992 115.291L656.071 114.973C658.363 114.623 660.676 115.708 661.568 117.555C661.988 118.425 661.508 119.423 660.493 119.785C659.474 120.148 658.314 119.73 657.895 118.863Z" fill="#84260D"/>
<path d="M670.468 131.997C670.455 131.997 669.184 131.973 668.096 131.447C667.56 131.189 666.915 131.158 666.349 131.362L665 131.851L663.652 131.362C663.086 131.158 662.441 131.189 661.904 131.447C660.828 131.967 659.571 131.995 659.521 131.996C658.428 132.002 657.544 132.763 657.544 133.703C657.544 134.646 658.434 135.41 659.533 135.41C659.729 135.41 661.26 135.39 662.929 134.805L664.228 135.275C664.726 135.456 665.277 135.456 665.773 135.275L667.071 134.805C668.741 135.39 670.271 135.41 670.468 135.41C671.566 135.41 672.456 134.646 672.456 133.703C672.456 132.76 671.566 131.997 670.468 131.997V131.997Z" fill="#F2BA88"/>
<path d="M665 127.415V128.739C665 130.324 666.285 132.152 668.088 132.493L669.063 132.678C673.088 133.441 676.401 135.883 677.888 139.184C678.328 140.163 680.024 139.873 679.993 138.824L679.911 135.461C679.81 131.928 676.926 127.995 672.91 127.214L667.455 125.837C666.229 125.529 665 126.317 665 127.415Z" fill="#EBEAEC"/>
<path d="M665 127.415V128.739C665 130.324 663.716 132.152 661.912 132.493L660.938 132.678C656.912 133.441 653.599 135.883 652.113 139.184C651.672 140.163 649.977 139.873 650.007 138.824L650.09 135.461C650.191 131.928 653.075 127.995 657.09 127.214L662.545 125.837C663.772 125.529 665 126.317 665 127.415Z" fill="#DAD9DD"/>
<path d="M653.269 130.697C653.269 129.753 653.71 128.897 654.423 128.27C651.854 129.858 650.167 132.775 650.09 135.461L650.007 138.824C649.977 139.873 651.672 140.163 652.113 139.184C653.057 137.089 654.737 135.341 656.868 134.149C654.844 133.957 653.269 132.486 653.269 130.697Z" fill="#CCCCCE"/>
<path d="M671.64 131.686C671.64 129.971 673.259 128.582 675.256 128.582C675.582 128.582 675.897 128.622 676.198 128.691C675.235 127.976 674.125 127.45 672.91 127.214L667.455 125.837C666.229 125.528 665 126.317 665 127.415V128.739C665 130.324 666.284 132.152 668.088 132.493L669.062 132.678C670.419 132.936 671.693 133.387 672.845 133.995C672.107 133.426 671.64 132.604 671.64 131.686V131.686Z" fill="#DAD9DD"/>
<path d="M670.003 124.574L667.964 124.26C667.501 124.188 667.023 124.26 666.616 124.464L665 125.268L663.385 124.464C662.977 124.26 662.5 124.189 662.036 124.26L659.998 124.574C658.916 124.74 658.198 125.628 658.392 126.555C658.586 127.483 659.62 128.1 660.7 127.934L662.02 127.731L664.002 128.717C664.004 128.718 664.007 128.718 664.009 128.72C664.6 129.011 665.345 129.037 665.99 128.72C665.993 128.718 665.995 128.718 665.998 128.717L667.98 127.73L669.301 127.933C670.379 128.101 671.415 127.483 671.609 126.555C671.803 125.628 671.084 124.74 670.003 124.574Z" fill="#F2BA88"/>
<path d="M686.695 166.705C686.695 166.504 686.716 166.306 686.747 166.111C684.905 169.527 679.288 169.593 677.338 166.221C673.441 175.368 666.983 185.229 656.287 192.45C659.129 192.811 662.038 193 664.998 193H665.002C673.722 193 681.999 191.375 689.447 188.46C692.273 182.088 694.067 175.888 695.177 170.2C691.789 172.532 686.695 170.474 686.695 166.705V166.705Z" fill="#DAD9DD"/>
<path d="M623.598 166.017C623.98 151.208 631.258 147.014 634.979 144.462C637.316 142.86 641.211 141.693 645.143 140.968C640.093 140.654 629.363 142.124 624.735 145.298C621.013 147.85 613.735 152.044 613.354 166.853C616.005 170.963 619.303 174.723 623.13 178.032L623.598 166.017Z" fill="#F2BA88"/>
<path d="M801.522 186.637L784.992 130L775.014 132.912C762.443 136.581 751.512 143.256 745.182 150.83C741.608 151.223 737.952 151.956 734.319 153.016C714.963 158.666 701.772 172.031 704.917 182.809L705.886 186.128L801.522 186.637Z" fill="#F7EDE3"/>
<path d="M567.628 184.667C567.628 184.444 567.597 184.219 567.597 183.992C567.597 179.304 573.114 175.517 579.514 176.381C580.177 176.471 580.809 176.143 580.97 175.638C582.605 170.495 592.152 170.772 598.976 171.712C598.752 172.158 599.586 171.796 598.976 171.712C603.196 175.638 609.035 159.899 617.613 160.781C622.719 161.305 626.747 161.155 629.217 164.341C627.101 159.853 621.631 155.852 614.87 155.157C605.223 154.166 597.025 158.976 595.082 164.682C593.828 164.413 592.513 164.263 591.146 164.263C583.874 164.263 577.849 168.386 576.771 173.772C575.77 173.573 574.726 173.468 573.645 173.468C566.659 173.468 561 177.846 561 183.243C561 183.49 561.033 183.733 561.033 183.974C561.033 193.97 579.047 192.972 579.047 192.972L589.482 189.836C584.789 189.656 567.628 191.566 567.628 184.667Z" fill="#DBD2CA"/>
<path d="M640.977 167.72L635.844 167.714C634.159 160.533 626.606 155.069 617.602 155.059C608.598 155.049 601.029 160.496 599.322 167.674L579.517 167.652C571.266 167.643 564.505 173.321 564.494 180.269C564.484 187.218 571.228 192.911 579.48 192.92L640.939 192.988C649.193 192.998 655.952 187.319 655.962 180.37C655.973 173.422 649.23 167.729 640.977 167.72V167.72Z" fill="#F7EDE3"/>
<path d="M637.953 200.81C637.953 200.511 637.917 200.21 637.917 199.905C637.917 193.614 644.536 188.532 652.217 189.692C653.012 189.812 653.771 189.372 653.964 188.694C655.926 181.794 667.383 182.165 675.571 183.426C675.302 184.025 676.303 183.539 675.571 183.426C680.635 188.694 687.642 167.574 697.935 168.757C704.063 169.461 708.897 169.259 711.86 173.534C709.321 167.512 702.757 162.144 694.644 161.211C683.068 159.881 673.23 166.336 670.899 173.993C669.394 173.632 667.815 173.431 666.175 173.431C657.449 173.431 650.218 178.962 648.925 186.19C647.724 185.924 646.471 185.783 645.174 185.783C636.791 185.783 630 191.657 630 198.9C630 199.231 630.04 199.557 630.04 199.881C630.04 213.295 651.657 211.956 651.657 211.956L664.179 207.747C658.547 207.506 637.953 210.069 637.953 200.81Z" fill="#DBD2CA"/>
<path d="M725.973 178.069L719.813 178.061C717.791 168.425 708.727 161.092 697.922 161.079C687.118 161.065 678.034 168.376 675.986 178.007L652.221 177.978C642.319 177.966 634.206 185.585 634.193 194.909C634.181 204.234 642.274 211.874 652.175 211.887L725.927 211.978C735.831 211.99 743.942 204.37 743.955 195.045C743.967 185.721 735.876 178.081 725.973 178.069V178.069Z" fill="#F7EDE3"/>
</g>
<defs>
<clipPath id="clip0">
<rect width="781" height="521" fill="white"/>
</clipPath>
</defs>
</svg>
