<svg width="781" height="521" viewBox="0 0 781 521" fill="none" xmlns="http://www.w3.org/2000/svg">
<g clip-path="url(#clip0)">
<rect width="781" height="521" fill="#3BA4CA"/>
<path d="M776 72.6865C776 84.9794 762.672 94.9468 746.243 94.9468H647.843C647.843 94.9468 612.065 96.8656 612.065 77.6484C612.065 77.1845 612 76.7169 612 76.2431C612 65.8674 623.239 57.4523 637.113 57.4523C639.26 57.4523 641.335 57.654 643.322 58.035C645.462 47.6813 657.429 39.7561 671.871 39.7561C674.586 39.7561 677.2 40.0448 679.689 40.5619C683.547 29.5926 699.83 20.3439 718.989 22.2507C737.872 24.1298 751.702 38.5744 749.03 50.5242C764.157 51.5751 776 61.0906 776 72.6865Z" fill="#F7EDE3"/>
<path d="M622.54 77.415C622.54 76.9982 622.492 76.5785 622.492 76.1532C622.492 67.3891 631.264 60.3081 641.442 61.9242C642.497 62.0915 643.503 61.4786 643.758 60.5342C646.358 50.92 657.789 44.5452 668.641 46.3022C669.61 46.4589 670.568 45.9915 670.925 45.1576C676.357 32.4693 687.946 26.0245 701.587 27.6731C709.708 28.6545 716.558 33.4568 720.485 39.4129C717.121 31.0219 708.421 23.543 697.67 22.2437C682.329 20.3898 669.29 29.384 666.201 40.0521C664.207 39.5487 662.115 39.2684 659.941 39.2684C648.377 39.2684 638.794 46.9755 637.081 57.0454C635.489 56.6748 633.828 56.4786 632.109 56.4786C620.999 56.4786 612 64.6628 612 74.7535C612 75.2143 612.052 75.669 612.052 76.1202C612.052 94.8097 640.701 92.9437 640.701 92.9437H644.782C637.319 92.6071 622.54 90.3136 622.54 77.415Z" fill="#DBD2CA"/>
<path d="M517 152.687C517 164.979 503.672 174.947 487.243 174.947H388.843C388.843 174.947 353.065 176.866 353.065 157.648C353.065 157.184 353 156.717 353 156.243C353 145.867 364.239 137.452 378.113 137.452C380.26 137.452 382.335 137.654 384.322 138.035C386.462 127.681 398.429 119.756 412.871 119.756C415.586 119.756 418.2 120.045 420.689 120.562C424.547 109.593 440.83 100.344 459.989 102.251C478.872 104.13 492.702 118.574 490.03 130.524C505.157 131.575 517 141.091 517 152.687Z" fill="#F7EDE3"/>
<path d="M363.54 157.415C363.54 156.998 363.492 156.578 363.492 156.153C363.492 147.389 372.264 140.308 382.442 141.924C383.497 142.092 384.503 141.479 384.758 140.534C387.358 130.92 398.789 124.545 409.641 126.302C410.61 126.459 411.568 125.991 411.925 125.158C417.357 112.469 428.946 106.024 442.587 107.673C450.708 108.654 457.558 113.457 461.485 119.413C458.121 111.022 449.421 103.543 438.67 102.244C423.329 100.39 410.29 109.384 407.201 120.052C405.207 119.549 403.115 119.268 400.941 119.268C389.377 119.268 379.794 126.975 378.081 137.045C376.489 136.675 374.828 136.479 373.109 136.479C361.999 136.479 353 144.663 353 154.753C353 155.214 353.052 155.669 353.052 156.12C353.052 174.81 381.701 172.944 381.701 172.944H385.782C378.319 172.607 363.54 170.314 363.54 157.415Z" fill="#DBD2CA"/>
<path d="M373 74.2148C373 85.6657 361.379 94.9505 347.053 94.9505H261.253C261.253 94.9505 230.057 96.7378 230.057 78.8369C230.057 78.4047 230 77.9692 230 77.5278C230 67.8628 239.8 60.024 251.897 60.024C253.77 60.024 255.578 60.2119 257.311 60.5669C259.178 50.9223 269.612 43.5399 282.205 43.5399C284.572 43.5399 286.851 43.8089 289.021 44.2906C292.385 34.0725 306.584 25.4573 323.289 27.2335C339.754 28.9839 351.813 42.4391 349.484 53.5705C362.674 54.5494 373 63.4132 373 74.2148Z" fill="#F7EDE3"/>
<path d="M239.19 78.6194C239.19 78.2312 239.148 77.8402 239.148 77.444C239.148 69.2803 246.798 62.6843 255.672 64.1897C256.592 64.3455 257.469 63.7746 257.691 62.8949C259.958 53.9392 269.926 48.001 279.388 49.6377C280.233 49.7836 281.068 49.3482 281.379 48.5714C286.116 36.7522 296.221 30.7488 308.115 32.2845C315.196 33.1987 321.17 37.6721 324.594 43.2202C321.66 35.404 314.074 28.4373 304.7 27.227C291.323 25.5001 279.954 33.8782 277.261 43.8157C275.522 43.3468 273.698 43.0856 271.802 43.0856C261.719 43.0856 253.363 50.2648 251.869 59.645C250.482 59.2999 249.033 59.1171 247.534 59.1171C237.847 59.1171 230 66.7407 230 76.1402C230 76.5695 230.046 76.9931 230.046 77.4134C230.046 94.8228 255.025 93.0845 255.025 93.0845H258.584C252.077 92.771 239.19 90.6346 239.19 78.6194Z" fill="#DBD2CA"/>
<path d="M802 188.687C802 200.979 788.672 210.947 772.243 210.947H673.843C673.843 210.947 638.065 212.866 638.065 193.648C638.065 193.184 638 192.717 638 192.243C638 181.867 649.239 173.452 663.113 173.452C665.26 173.452 667.335 173.654 669.322 174.035C671.462 163.681 683.429 155.756 697.871 155.756C700.586 155.756 703.2 156.045 705.689 156.562C709.547 145.593 725.83 136.344 744.989 138.251C763.872 140.13 777.702 154.574 775.03 166.524C790.157 167.575 802 177.091 802 188.687Z" fill="#F7EDE3"/>
<path d="M648.54 193.415C648.54 192.998 648.492 192.578 648.492 192.153C648.492 183.389 657.264 176.308 667.442 177.924C668.497 178.092 669.503 177.479 669.758 176.534C672.358 166.92 683.789 160.545 694.641 162.302C695.61 162.459 696.568 161.991 696.925 161.158C702.357 148.469 713.946 142.024 727.587 143.673C735.708 144.654 742.558 149.457 746.485 155.413C743.121 147.022 734.421 139.543 723.67 138.244C708.329 136.39 695.29 145.384 692.201 156.052C690.207 155.549 688.115 155.268 685.941 155.268C674.377 155.268 664.794 162.975 663.081 173.045C661.489 172.675 659.828 172.479 658.109 172.479C646.999 172.479 638 180.663 638 190.753C638 191.214 638.052 191.669 638.052 192.12C638.052 210.81 666.701 208.944 666.701 208.944H670.782C663.319 208.607 648.54 206.314 648.54 193.415Z" fill="#DBD2CA"/>
<path d="M357.374 132.017C349.463 144.437 353.808 159.678 367.08 166.06C380.351 172.44 397.523 167.544 405.434 155.124L357.374 132.017Z" fill="#009BDE"/>
<path d="M355.95 155.48C358.227 159.868 361.996 163.615 367.079 166.06C373.475 169.135 380.775 169.584 387.51 167.841C382.238 157.353 369.049 151.948 355.95 155.48Z" fill="#6EB4E7"/>
<path d="M400.69 152.844C398.264 156.652 399.597 161.326 403.666 163.283C407.737 165.24 413.003 163.738 415.428 159.929L400.69 152.844Z" fill="#3288C7"/>
<path d="M373.487 153.558C381.328 157.328 391.474 154.435 396.149 147.097C400.823 139.758 398.255 130.753 390.414 126.982L373.487 153.558Z" fill="#6EB4E7"/>
<path d="M373.487 153.558C380.115 156.745 388.692 154.3 392.644 148.096C396.595 141.893 394.424 134.28 387.796 131.093L373.487 153.558Z" fill="#3288C7"/>
<path d="M342.745 142.549L344.637 142.01L346.552 148.726L337.094 151.423C336.036 147.713 338.566 143.741 342.745 142.549Z" fill="#FFB819"/>
<path d="M355.847 151.124C361.815 149.423 365.429 143.749 363.919 138.452C362.409 133.154 356.346 130.239 350.378 131.941C344.409 133.643 340.796 139.316 342.306 144.614C343.816 149.911 349.879 152.826 355.847 151.124Z" fill="#009BDE"/>
<path d="M352.114 143.695C354.036 143.147 355.2 141.32 354.713 139.615C354.227 137.909 352.275 136.97 350.353 137.518C348.431 138.066 347.267 139.893 347.754 141.599C348.24 143.305 350.192 144.243 352.114 143.695Z" fill="white"/>
<path d="M351.674 142.151C352.635 141.877 353.217 140.963 352.973 140.111C352.73 139.258 351.754 138.788 350.793 139.062C349.832 139.336 349.25 140.25 349.494 141.103C349.737 141.956 350.713 142.425 351.674 142.151Z" fill="#512C1D"/>
<path d="M357.374 132.017C349.463 144.437 353.808 159.678 367.08 166.06C380.351 172.44 397.523 167.544 405.434 155.124L357.374 132.017Z" fill="#4A7284"/>
<path d="M355.95 155.48C358.227 159.868 361.996 163.615 367.079 166.06C373.475 169.135 380.775 169.584 387.51 167.841C382.238 157.353 369.049 151.948 355.95 155.48Z" fill="#6EB4E7"/>
<path d="M400.69 152.844C398.264 156.652 399.597 161.326 403.666 163.283C407.737 165.24 413.003 163.738 415.428 159.929L400.69 152.844Z" fill="#3288C7"/>
<path d="M373.487 153.558C381.328 157.328 391.474 154.435 396.149 147.097C400.823 139.758 398.255 130.753 390.414 126.982L373.487 153.558Z" fill="#6EB4E7"/>
<path d="M373.487 153.558C380.115 156.745 388.692 154.3 392.644 148.096C396.595 141.893 394.424 134.28 387.796 131.093L373.487 153.558Z" fill="#3288C7"/>
<path d="M342.745 142.549L344.637 142.01L346.552 148.726L337.094 151.423C336.036 147.713 338.566 143.741 342.745 142.549Z" fill="#FFB819"/>
<path d="M355.847 151.124C361.815 149.423 365.429 143.749 363.919 138.452C362.409 133.154 356.346 130.239 350.378 131.941C344.409 133.643 340.796 139.316 342.306 144.614C343.816 149.911 349.879 152.826 355.847 151.124Z" fill="#4482C3"/>
<path d="M352.114 143.695C354.036 143.147 355.2 141.32 354.713 139.615C354.227 137.909 352.275 136.97 350.353 137.518C348.431 138.066 347.267 139.893 347.754 141.599C348.24 143.305 350.192 144.243 352.114 143.695Z" fill="white"/>
<path d="M351.674 142.151C352.635 141.877 353.217 140.963 352.973 140.111C352.73 139.258 351.754 138.788 350.793 139.062C349.832 139.336 349.25 140.25 349.494 141.103C349.737 141.956 350.713 142.425 351.674 142.151Z" fill="#512C1D"/>
<path d="M254.824 48.9908C243.811 58.7662 243.811 74.6151 254.824 84.3905C265.837 94.1655 283.693 94.1655 294.707 84.3905L254.824 48.9908Z" fill="#009BDE"/>
<path d="M247.022 71.1652C248.008 76.0092 250.605 80.6458 254.823 84.3905C260.131 89.1011 267.028 91.5348 273.982 91.7055C271.789 80.1733 260.586 71.3598 247.022 71.1652Z" fill="#6EB4E7"/>
<path d="M290.77 80.8964C287.392 83.894 287.392 88.7543 290.77 91.7516C294.147 94.7495 299.623 94.7495 303 91.7516L290.77 80.8964Z" fill="#3288C7"/>
<path d="M264.413 74.1248C270.92 79.9002 281.471 79.9002 287.978 74.1248C294.485 68.3491 294.485 58.9844 287.978 53.2087L264.413 74.1248Z" fill="#6EB4E7"/>
<path d="M264.413 74.1248C269.914 79.007 278.832 79.007 284.333 74.1248C289.834 69.2423 289.834 61.3265 284.333 56.444L264.413 74.1248Z" fill="#3288C7"/>
<path d="M237.868 55.1091H239.835V62.0928H230C230 58.2357 233.523 55.1091 237.868 55.1091Z" fill="#FFB819"/>
<path d="M248.117 66.9477C254.323 66.9477 259.354 62.4823 259.354 56.9739C259.354 51.4654 254.323 47 248.117 47C241.91 47 236.879 51.4654 236.879 56.9739C236.879 62.4823 241.91 66.9477 248.117 66.9477Z" fill="#009BDE"/>
<path d="M246.564 58.78C248.562 58.78 250.182 57.3421 250.182 55.5682C250.182 53.7944 248.562 52.3564 246.564 52.3564C244.565 52.3564 242.945 53.7944 242.945 55.5682C242.945 57.3421 244.565 58.78 246.564 58.78Z" fill="white"/>
<path d="M246.564 57.1741C247.563 57.1741 248.373 56.4551 248.373 55.5682C248.373 54.6813 247.563 53.9623 246.564 53.9623C245.564 53.9623 244.754 54.6813 244.754 55.5682C244.754 56.4551 245.564 57.1741 246.564 57.1741Z" fill="#512C1D"/>
<path d="M254.824 48.9908C243.811 58.7662 243.811 74.6151 254.824 84.3905C265.837 94.1655 283.693 94.1655 294.707 84.3905L254.824 48.9908Z" fill="#4A7284"/>
<path d="M247.022 71.1652C248.008 76.0092 250.605 80.6458 254.823 84.3905C260.131 89.1011 267.028 91.5348 273.982 91.7055C271.789 80.1733 260.586 71.3598 247.022 71.1652Z" fill="#6EB4E7"/>
<path d="M290.77 80.8964C287.392 83.894 287.392 88.7543 290.77 91.7516C294.147 94.7495 299.623 94.7495 303 91.7516L290.77 80.8964Z" fill="#3288C7"/>
<path d="M264.413 74.1248C270.92 79.9002 281.471 79.9002 287.978 74.1248C294.485 68.3491 294.485 58.9844 287.978 53.2087L264.413 74.1248Z" fill="#6EB4E7"/>
<path d="M264.413 74.1248C269.914 79.007 278.832 79.007 284.333 74.1248C289.834 69.2423 289.834 61.3265 284.333 56.444L264.413 74.1248Z" fill="#3288C7"/>
<path d="M237.868 55.1091H239.835V62.0928H230C230 58.2357 233.523 55.1091 237.868 55.1091Z" fill="#FFB819"/>
<path d="M248.117 66.9477C254.323 66.9477 259.354 62.4823 259.354 56.9739C259.354 51.4654 254.323 47 248.117 47C241.91 47 236.879 51.4654 236.879 56.9739C236.879 62.4823 241.91 66.9477 248.117 66.9477Z" fill="#4482C3"/>
<path d="M246.564 58.78C248.562 58.78 250.182 57.3421 250.182 55.5682C250.182 53.7944 248.562 52.3564 246.564 52.3564C244.565 52.3564 242.945 53.7944 242.945 55.5682C242.945 57.3421 244.565 58.78 246.564 58.78Z" fill="white"/>
<path d="M246.564 57.1741C247.563 57.1741 248.373 56.4551 248.373 55.5682C248.373 54.6813 247.563 53.9623 246.564 53.9623C245.564 53.9623 244.754 54.6813 244.754 55.5682C244.754 56.4551 245.564 57.1741 246.564 57.1741Z" fill="#512C1D"/>
<path d="M486.835 125.355C477.452 136.704 479.882 152.366 492.264 160.336C504.646 168.307 522.291 165.568 531.675 154.22L486.835 125.355Z" fill="#009BDE"/>
<path d="M482.526 148.464C484.244 153.099 487.521 157.283 492.264 160.336C498.231 164.177 505.419 165.525 512.318 164.627C508.382 153.567 495.96 146.576 482.526 148.464Z" fill="#6EB4E7"/>
<path d="M527.249 151.371C524.371 154.851 525.117 159.654 528.914 162.098C532.711 164.542 538.122 163.703 540.999 160.222L527.249 151.371Z" fill="#3288C7"/>
<path d="M500.166 148.722C507.481 153.431 517.907 151.813 523.452 145.108C528.996 138.402 527.56 129.148 520.244 124.439L500.166 148.722Z" fill="#6EB4E7"/>
<path d="M500.166 148.722C506.35 152.702 515.163 151.335 519.85 145.667C524.537 139.998 523.323 132.176 517.139 128.195L500.166 148.722Z" fill="#3288C7"/>
<path d="M471.019 134.002L472.962 133.7L474.033 140.601L464.315 142.109C463.723 138.298 466.725 134.668 471.019 134.002Z" fill="#FFB819"/>
<path d="M482.961 144.128C489.094 143.177 493.381 137.993 492.536 132.549C491.691 127.106 486.035 123.465 479.902 124.417C473.77 125.368 469.483 130.553 470.328 135.996C471.172 141.439 476.829 145.08 482.961 144.128Z" fill="#009BDE"/>
<path d="M480.174 136.296C482.149 135.989 483.53 134.32 483.257 132.567C482.985 130.814 481.164 129.641 479.189 129.948C477.214 130.254 475.834 131.924 476.106 133.677C476.378 135.43 478.199 136.602 480.174 136.296Z" fill="white"/>
<path d="M479.928 134.709C480.915 134.555 481.606 133.721 481.47 132.844C481.334 131.968 480.423 131.382 479.435 131.535C478.448 131.688 477.758 132.523 477.894 133.399C478.03 134.276 478.94 134.862 479.928 134.709Z" fill="#512C1D"/>
<path d="M486.835 125.355C477.452 136.704 479.882 152.366 492.264 160.336C504.646 168.307 522.291 165.568 531.675 154.22L486.835 125.355Z" fill="#4A7284"/>
<path d="M482.526 148.464C484.244 153.099 487.521 157.283 492.264 160.336C498.231 164.177 505.419 165.525 512.318 164.627C508.382 153.567 495.96 146.576 482.526 148.464Z" fill="#6EB4E7"/>
<path d="M527.249 151.371C524.371 154.851 525.117 159.654 528.914 162.098C532.711 164.542 538.122 163.703 540.999 160.222L527.249 151.371Z" fill="#3288C7"/>
<path d="M500.166 148.722C507.481 153.431 517.907 151.813 523.452 145.108C528.996 138.402 527.56 129.148 520.244 124.439L500.166 148.722Z" fill="#6EB4E7"/>
<path d="M500.166 148.722C506.35 152.702 515.163 151.335 519.85 145.667C524.537 139.998 523.323 132.176 517.139 128.195L500.166 148.722Z" fill="#3288C7"/>
<path d="M471.019 134.002L472.962 133.7L474.033 140.601L464.315 142.109C463.723 138.298 466.725 134.668 471.019 134.002Z" fill="#FFB819"/>
<path d="M482.961 144.128C489.094 143.177 493.381 137.993 492.536 132.549C491.691 127.106 486.035 123.465 479.902 124.417C473.77 125.368 469.483 130.553 470.328 135.996C471.172 141.439 476.829 145.08 482.961 144.128Z" fill="#4482C3"/>
<path d="M480.174 136.296C482.149 135.989 483.53 134.32 483.257 132.567C482.985 130.814 481.164 129.641 479.189 129.948C477.214 130.254 475.834 131.924 476.106 133.677C476.378 135.43 478.199 136.602 480.174 136.296Z" fill="white"/>
<path d="M479.928 134.709C480.915 134.555 481.606 133.721 481.47 132.844C481.334 131.968 480.423 131.382 479.435 131.535C478.448 131.688 477.758 132.523 477.894 133.399C478.03 134.276 478.94 134.862 479.928 134.709Z" fill="#512C1D"/>
<path d="M665.207 56.6333C655.513 67.7183 657.51 83.4409 669.667 91.7509C681.824 100.06 699.538 97.8108 709.232 86.7261L665.207 56.6333Z" fill="#009BDE"/>
<path d="M660.261 79.6139C661.85 84.295 665.01 88.5676 669.666 91.7509C675.525 95.7553 682.674 97.3007 689.594 96.5938C685.965 85.43 673.742 78.0981 660.261 79.6139Z" fill="#6EB4E7"/>
<path d="M704.886 83.7559C701.913 87.1551 702.526 91.9766 706.254 94.5246C709.982 97.073 715.414 96.3831 718.387 92.9837L704.886 83.7559Z" fill="#3288C7"/>
<path d="M677.886 80.3589C685.069 85.2684 695.536 83.9391 701.264 77.39C706.991 70.8405 705.811 61.5504 698.628 56.6406L677.886 80.3589Z" fill="#6EB4E7"/>
<path d="M677.886 80.359C683.958 84.5092 692.806 83.3856 697.648 77.8492C702.489 72.3127 701.492 64.4598 695.42 60.3093L677.886 80.359Z" fill="#3288C7"/>
<path d="M649.157 64.839L651.109 64.5912L651.988 71.5192L642.232 72.7583C641.746 68.932 644.846 65.3865 649.157 64.839Z" fill="#FFB819"/>
<path d="M660.816 75.2921C666.972 74.5102 671.4 69.4465 670.706 63.982C670.012 58.5175 664.459 54.7215 658.302 55.5034C652.146 56.2853 647.717 61.349 648.411 66.8135C649.105 72.278 654.659 76.074 660.816 75.2921Z" fill="#009BDE"/>
<path d="M658.246 67.3852C660.228 67.1334 661.655 65.5028 661.431 63.7431C661.208 61.9834 659.419 60.761 657.437 61.0128C655.454 61.2645 654.028 62.8952 654.252 64.6549C654.475 66.4146 656.263 67.637 658.246 67.3852Z" fill="white"/>
<path d="M658.044 65.792C659.035 65.6661 659.748 64.8508 659.636 63.9709C659.524 63.0911 658.63 62.4799 657.639 62.6058C656.648 62.7317 655.935 63.547 656.046 64.4268C656.158 65.3067 657.052 65.9179 658.044 65.792Z" fill="#512C1D"/>
<path d="M665.207 56.6333C655.513 67.7183 657.51 83.4409 669.667 91.7509C681.824 100.06 699.538 97.8108 709.232 86.7261L665.207 56.6333Z" fill="#4A7284"/>
<path d="M660.261 79.6139C661.85 84.295 665.01 88.5676 669.666 91.7509C675.525 95.7553 682.674 97.3007 689.594 96.5938C685.965 85.43 673.742 78.0981 660.261 79.6139Z" fill="#6EB4E7"/>
<path d="M704.886 83.7559C701.913 87.1551 702.526 91.9766 706.254 94.5246C709.982 97.073 715.414 96.3831 718.387 92.9837L704.886 83.7559Z" fill="#3288C7"/>
<path d="M677.886 80.3589C685.069 85.2684 695.536 83.9391 701.264 77.39C706.991 70.8405 705.811 61.5504 698.628 56.6406L677.886 80.3589Z" fill="#6EB4E7"/>
<path d="M677.886 80.359C683.958 84.5092 692.806 83.3856 697.648 77.8492C702.489 72.3127 701.492 64.4598 695.42 60.3093L677.886 80.359Z" fill="#3288C7"/>
<path d="M649.157 64.839L651.109 64.5912L651.988 71.5192L642.232 72.7583C641.746 68.932 644.846 65.3865 649.157 64.839Z" fill="#FFB819"/>
<path d="M660.816 75.2921C666.972 74.5102 671.4 69.4465 670.706 63.982C670.012 58.5175 664.459 54.7215 658.302 55.5034C652.146 56.2853 647.717 61.349 648.411 66.8135C649.105 72.278 654.659 76.074 660.816 75.2921Z" fill="#4482C3"/>
<path d="M658.246 67.3852C660.228 67.1334 661.655 65.5028 661.431 63.7431C661.208 61.9834 659.419 60.761 657.437 61.0128C655.454 61.2645 654.028 62.8952 654.252 64.6549C654.475 66.4146 656.263 67.637 658.246 67.3852Z" fill="white"/>
<path d="M658.044 65.792C659.035 65.6661 659.748 64.8508 659.636 63.9709C659.524 63.0911 658.63 62.4799 657.639 62.6058C656.648 62.7317 655.935 63.547 656.046 64.4268C656.158 65.3067 657.052 65.9179 658.044 65.792Z" fill="#512C1D"/>
<path d="M462.824 33.9908C451.811 43.7662 451.811 59.6151 462.824 69.3905C473.837 79.1655 491.693 79.1655 502.707 69.3905L462.824 33.9908Z" fill="#009BDE"/>
<path d="M455.022 56.1652C456.008 61.0092 458.605 65.6458 462.823 69.3905C468.131 74.1011 475.028 76.5348 481.982 76.7055C479.789 65.1733 468.586 56.3598 455.022 56.1652Z" fill="#6EB4E7"/>
<path d="M498.77 65.8964C495.392 68.894 495.392 73.7543 498.77 76.7516C502.147 79.7495 507.623 79.7495 511 76.7516L498.77 65.8964Z" fill="#3288C7"/>
<path d="M472.413 59.1248C478.92 64.9002 489.471 64.9002 495.978 59.1248C502.485 53.3491 502.485 43.9844 495.978 38.2087L472.413 59.1248Z" fill="#6EB4E7"/>
<path d="M472.413 59.1248C477.914 64.007 486.832 64.007 492.333 59.1248C497.834 54.2423 497.834 46.3265 492.333 41.444L472.413 59.1248Z" fill="#3288C7"/>
<path d="M445.868 40.1091H447.835V47.0928H438C438 43.2357 441.523 40.1091 445.868 40.1091Z" fill="#FFB819"/>
<path d="M456.117 51.9477C462.323 51.9477 467.354 47.4823 467.354 41.9739C467.354 36.4654 462.323 32 456.117 32C449.91 32 444.879 36.4654 444.879 41.9739C444.879 47.4823 449.91 51.9477 456.117 51.9477Z" fill="#009BDE"/>
<path d="M454.564 43.78C456.562 43.78 458.182 42.3421 458.182 40.5682C458.182 38.7944 456.562 37.3564 454.564 37.3564C452.565 37.3564 450.945 38.7944 450.945 40.5682C450.945 42.3421 452.565 43.78 454.564 43.78Z" fill="white"/>
<path d="M454.564 42.1741C455.563 42.1741 456.373 41.4551 456.373 40.5682C456.373 39.6813 455.563 38.9623 454.564 38.9623C453.564 38.9623 452.754 39.6813 452.754 40.5682C452.754 41.4551 453.564 42.1741 454.564 42.1741Z" fill="#512C1D"/>
<path d="M462.824 33.9908C451.811 43.7662 451.811 59.6151 462.824 69.3905C473.837 79.1655 491.693 79.1655 502.707 69.3905L462.824 33.9908Z" fill="#4A7284"/>
<path d="M455.022 56.1652C456.008 61.0092 458.605 65.6458 462.823 69.3905C468.131 74.1011 475.028 76.5348 481.982 76.7055C479.789 65.1733 468.586 56.3598 455.022 56.1652Z" fill="#6EB4E7"/>
<path d="M498.77 65.8964C495.392 68.894 495.392 73.7543 498.77 76.7516C502.147 79.7495 507.623 79.7495 511 76.7516L498.77 65.8964Z" fill="#3288C7"/>
<path d="M472.413 59.1248C478.92 64.9002 489.471 64.9002 495.978 59.1248C502.485 53.3491 502.485 43.9844 495.978 38.2087L472.413 59.1248Z" fill="#6EB4E7"/>
<path d="M472.413 59.1248C477.914 64.007 486.832 64.007 492.333 59.1248C497.834 54.2423 497.834 46.3265 492.333 41.444L472.413 59.1248Z" fill="#3288C7"/>
<path d="M445.868 40.1091H447.835V47.0928H438C438 43.2357 441.523 40.1091 445.868 40.1091Z" fill="#FFB819"/>
<path d="M456.117 51.9477C462.323 51.9477 467.354 47.4823 467.354 41.9739C467.354 36.4654 462.323 32 456.117 32C449.91 32 444.879 36.4654 444.879 41.9739C444.879 47.4823 449.91 51.9477 456.117 51.9477Z" fill="#4482C3"/>
<path d="M454.564 43.78C456.562 43.78 458.182 42.3421 458.182 40.5682C458.182 38.7944 456.562 37.3564 454.564 37.3564C452.565 37.3564 450.945 38.7944 450.945 40.5682C450.945 42.3421 452.565 43.78 454.564 43.78Z" fill="white"/>
<path d="M454.564 42.1741C455.563 42.1741 456.373 41.4551 456.373 40.5682C456.373 39.6813 455.563 38.9623 454.564 38.9623C453.564 38.9623 452.754 39.6813 452.754 40.5682C452.754 41.4551 453.564 42.1741 454.564 42.1741Z" fill="#512C1D"/>
<path d="M747.824 130.991C736.811 140.766 736.811 156.615 747.824 166.39C758.837 176.165 776.693 176.165 787.707 166.39L747.824 130.991Z" fill="#009BDE"/>
<path d="M740.022 153.165C741.008 158.009 743.605 162.646 747.823 166.39C753.131 171.101 760.028 173.535 766.982 173.705C764.789 162.173 753.586 153.36 740.022 153.165Z" fill="#6EB4E7"/>
<path d="M783.77 162.896C780.392 165.894 780.392 170.754 783.77 173.752C787.147 176.749 792.623 176.749 796 173.752L783.77 162.896Z" fill="#3288C7"/>
<path d="M757.413 156.125C763.92 161.9 774.471 161.9 780.978 156.125C787.485 150.349 787.485 140.984 780.978 135.209L757.413 156.125Z" fill="#6EB4E7"/>
<path d="M757.413 156.125C762.914 161.007 771.832 161.007 777.333 156.125C782.834 151.242 782.834 143.326 777.333 138.444L757.413 156.125Z" fill="#3288C7"/>
<path d="M730.868 137.109H732.835V144.093H723C723 140.236 726.523 137.109 730.868 137.109Z" fill="#FFB819"/>
<path d="M741.117 148.948C747.323 148.948 752.354 144.482 752.354 138.974C752.354 133.465 747.323 129 741.117 129C734.91 129 729.879 133.465 729.879 138.974C729.879 144.482 734.91 148.948 741.117 148.948Z" fill="#009BDE"/>
<path d="M739.564 140.78C741.562 140.78 743.182 139.342 743.182 137.568C743.182 135.794 741.562 134.356 739.564 134.356C737.565 134.356 735.945 135.794 735.945 137.568C735.945 139.342 737.565 140.78 739.564 140.78Z" fill="white"/>
<path d="M739.564 139.174C740.563 139.174 741.373 138.455 741.373 137.568C741.373 136.681 740.563 135.962 739.564 135.962C738.564 135.962 737.754 136.681 737.754 137.568C737.754 138.455 738.564 139.174 739.564 139.174Z" fill="#512C1D"/>
<path d="M747.824 130.991C736.811 140.766 736.811 156.615 747.824 166.39C758.837 176.165 776.693 176.165 787.707 166.39L747.824 130.991Z" fill="#4A7284"/>
<path d="M740.022 153.165C741.008 158.009 743.605 162.646 747.823 166.39C753.131 171.101 760.028 173.535 766.982 173.705C764.789 162.173 753.586 153.36 740.022 153.165Z" fill="#6EB4E7"/>
<path d="M783.77 162.896C780.392 165.894 780.392 170.754 783.77 173.752C787.147 176.749 792.623 176.749 796 173.752L783.77 162.896Z" fill="#3288C7"/>
<path d="M757.413 156.125C763.92 161.9 774.471 161.9 780.978 156.125C787.485 150.349 787.485 140.984 780.978 135.209L757.413 156.125Z" fill="#6EB4E7"/>
<path d="M757.413 156.125C762.914 161.007 771.832 161.007 777.333 156.125C782.834 151.242 782.834 143.326 777.333 138.444L757.413 156.125Z" fill="#3288C7"/>
<path d="M730.868 137.109H732.835V144.093H723C723 140.236 726.523 137.109 730.868 137.109Z" fill="#FFB819"/>
<path d="M741.117 148.948C747.323 148.948 752.354 144.482 752.354 138.974C752.354 133.465 747.323 129 741.117 129C734.91 129 729.879 133.465 729.879 138.974C729.879 144.482 734.91 148.948 741.117 148.948Z" fill="#4482C3"/>
<path d="M739.564 140.78C741.562 140.78 743.182 139.342 743.182 137.568C743.182 135.794 741.562 134.356 739.564 134.356C737.565 134.356 735.945 135.794 735.945 137.568C735.945 139.342 737.565 140.78 739.564 140.78Z" fill="white"/>
<path d="M739.564 139.174C740.563 139.174 741.373 138.455 741.373 137.568C741.373 136.681 740.563 135.962 739.564 135.962C738.564 135.962 737.754 136.681 737.754 137.568C737.754 138.455 738.564 139.174 739.564 139.174Z" fill="#512C1D"/>
<path d="M146 322C195.706 322 236 283.049 236 235C236 186.951 195.706 148 146 148C96.2944 148 56 186.951 56 235C56 283.049 96.2944 322 146 322Z" fill="#2A657A"/>
<path d="M158.947 317.555C109.006 317.555 68.521 278.744 68.521 230.868C68.521 195.845 90.1886 165.676 121.372 152C83.6189 162.414 56 195.77 56 235.313C56 283.189 96.4847 322 146.426 322C159.833 322 172.557 319.199 184 314.181C176.045 316.376 167.639 317.555 158.947 317.555Z" fill="#4482C3"/>
<path d="M156 199.796C156 214.783 143.322 226.935 127.695 226.935H34.0944C34.0944 226.935 0.0622909 229.279 0.0622909 205.845C0.0622909 205.281 0 204.709 0 204.132C0 191.482 10.6906 181.222 23.8881 181.222C25.9304 181.222 27.9038 181.468 29.7944 181.933C31.8301 169.309 43.2132 159.648 56.9507 159.648C59.5331 159.648 62.0194 160 64.387 160.63C68.0568 147.257 83.5458 135.981 101.77 138.306C119.696 140.59 132.839 158.14 130.36 172.69C130.353 172.716 130.353 172.749 130.346 172.776C136.571 173.327 142.207 175.817 146.604 179.596C152.372 184.569 156 191.774 156 199.796Z" fill="#F7EDE3"/>
<path d="M12.5333 207.468C12.5333 206.946 12.4755 206.42 12.4755 205.887C12.4755 194.9 22.9074 186.023 35.0102 188.049C36.2639 188.259 37.4598 187.491 37.7636 186.307C40.8553 174.254 54.4479 166.263 67.3519 168.465C68.5047 168.662 69.643 168.076 70.0675 167.03C76.5275 151.124 90.3078 143.045 106.528 145.112C116.185 146.342 124.331 152.362 129 159.829C125 149.31 114.655 139.934 101.871 138.305C83.6282 135.981 68.124 147.257 64.4506 160.63C62.0799 159.999 59.5918 159.648 57.0069 159.648C43.2558 159.648 31.8615 169.309 29.8238 181.933C27.9313 181.468 25.956 181.223 23.9117 181.223C10.7012 181.223 0 191.482 0 204.132C0 204.71 0.0623499 205.28 0.0623499 205.845C0.0623499 229.274 34.128 226.935 34.128 226.935H38.9814C30.107 226.513 12.5333 223.638 12.5333 207.468Z" fill="#DBD2CA"/>
<path d="M326 286.796C326 301.783 313.322 313.935 297.695 313.935H204.094C204.094 313.935 170.062 316.275 170.062 292.845C170.062 292.28 170 291.71 170 291.132C170 278.482 180.691 268.223 193.888 268.223C195.93 268.223 197.904 268.469 199.794 268.933C201.83 256.31 213.213 246.648 226.951 246.648C229.533 246.648 232.019 247 234.387 247.63C238.057 234.257 253.546 222.981 271.77 225.306C289.731 227.597 302.887 245.207 300.346 259.776C314.735 261.057 326 272.658 326 286.796Z" fill="#F7EDE3"/>
<path d="M146 179.982C139.575 177.389 131.169 177.269 123.508 180.558C118.292 182.802 114.134 186.934 111.889 192.025C108.007 200.833 109.257 209.467 113.602 215.985C114.016 216.601 113.229 217.311 112.634 216.855C104.027 210.264 99.9378 198.368 105.637 186.245C107.882 181.482 111.868 177.671 116.793 175.528C121.117 173.646 125.559 172.875 129.794 173.016C129.787 173.043 129.787 173.077 129.78 173.103C135.99 173.659 141.614 176.171 146 179.982Z" fill="#DBD2CA"/>
<path d="M182.533 294.468C182.533 293.946 182.476 293.42 182.476 292.887C182.476 281.9 192.907 273.023 205.01 275.049C206.264 275.259 207.46 274.491 207.764 273.307C210.855 261.254 224.448 253.263 237.352 255.465C238.505 255.662 239.643 255.076 240.067 254.03C246.528 238.124 260.308 230.045 276.528 232.112C286.185 233.342 294.331 239.362 299 246.829C295 236.31 284.655 226.934 271.871 225.305C253.628 222.981 238.124 234.257 234.451 247.63C232.08 246.999 229.592 246.648 227.007 246.648C213.256 246.648 201.861 256.309 199.824 268.933C197.931 268.468 195.956 268.223 193.912 268.223C180.701 268.223 170 278.482 170 291.132C170 291.71 170.062 292.28 170.062 292.845C170.062 316.275 204.128 313.935 204.128 313.935H208.981C200.107 313.514 182.533 310.639 182.533 294.468Z" fill="#DBD2CA"/>
<path d="M317 266.823C310.575 264.29 302.169 264.172 294.508 267.386C289.292 269.579 285.134 273.618 282.889 278.593C279.007 287.201 280.257 295.638 284.602 302.008C285.016 302.61 284.229 303.304 283.634 302.858C275.027 296.417 270.938 284.792 276.637 272.944C278.882 268.29 282.868 264.565 287.793 262.47C292.117 260.631 296.559 259.878 300.794 260.016C300.787 260.042 300.787 260.075 300.78 260.101C306.99 260.644 312.614 263.098 317 266.823Z" fill="#DBD2CA"/>
<path d="M281.242 512.306H-141.243C-145.732 512.306 -147.258 505.907 -143.331 503.6C-105.777 481.632 -7.71672 420.85 49.9776 353.646C50.7995 352.684 51.9465 352.151 53.1472 352.151H86.8508C88.0516 352.151 89.1975 352.684 90.0205 353.646C147.715 420.85 245.775 481.632 283.329 503.6C287.256 505.907 285.731 512.306 281.242 512.306Z" fill="#7FB2F0"/>
<path d="M135.843 255.523C134.837 256.281 133.865 257.087 132.927 257.932C133.729 258.093 134.524 258.277 135.31 258.494C135.453 257.491 135.639 256.503 135.843 255.523Z" fill="#DBD2CA"/>
<path d="M69.9995 352.151C11.8622 418.81 -56.5512 480.541 -115.636 512.306H-141.243C-145.732 512.306 -147.258 505.907 -143.331 503.6C-105.777 481.632 -7.71673 420.85 49.9776 353.646C50.7995 352.684 51.9464 352.151 53.1472 352.151H69.9995Z" fill="#5F95D4"/>
<path d="M199.135 449.113C194.105 458.167 189.573 468.102 179.622 468.102C161.354 468.102 161.354 434.621 143.096 434.621C124.827 434.621 124.827 468.102 106.558 468.102C88.2782 468.102 88.2782 434.621 70.0202 434.621C51.7518 434.621 51.7518 468.102 33.4824 468.102C15.2026 468.102 15.2026 434.621 -3.05547 434.621C-5.48912 434.621 -7.59876 435.212 -9.46929 436.255C-11.3512 437.287 -13.0064 438.77 -14.4991 440.533C-22.6333 450.144 -26.2129 468.102 -39.5933 468.102C-42.2433 468.102 -44.5041 467.395 -46.4936 466.189C-46.6665 466.085 -46.8394 465.968 -47.0133 465.842C-52.216 462.422 -55.5367 455.523 -59.106 449.09C-21.3135 422.102 19.8421 388.749 49.9765 353.646C50.7984 352.695 51.9454 352.151 53.1462 352.151H86.8498C88.0505 352.151 89.1964 352.695 90.0194 353.646C120.165 388.761 161.332 422.125 199.135 449.113Z" fill="#F7EDE3"/>
<path d="M69.9995 352.151C33.4296 394.071 -7.19608 434.054 -47.0112 465.842C-52.2139 462.422 -55.5347 455.523 -59.1039 449.09C-21.3114 422.102 19.8442 388.749 49.9786 353.646C50.8005 352.695 51.9475 352.151 53.1482 352.151H69.9995Z" fill="#DBD2CA"/>
<path d="M770.982 521H-179.984C-188.277 521 -195 518.985 -195 516.5C-195 514.015 -188.277 512 -179.984 512H770.984C779.277 512 786 514.015 786 516.5C786 518.985 779.275 521 770.982 521Z" fill="#1A4063"/>
<path d="M729.129 303.946C727.748 302.508 725.02 303.005 723.276 303.518C712.248 306.764 701.219 310.008 690.191 313.254C687.404 314.074 684.617 314.895 681.829 315.714C679.587 316.374 677.906 316.35 675.63 316.554C670.02 317.058 664.425 318.051 658.827 318.691C646.412 320.111 633.941 321.185 621.444 321.913C596.548 323.362 571.409 323.466 546.491 322.8C533.868 322.463 521.26 321.712 508.704 320.551C496.243 319.398 483.835 317.841 471.513 315.882C468.433 315.393 465.357 314.878 462.288 314.338C459.811 313.902 457.629 313.124 455.25 312.575C449.681 311.291 443.797 311.61 438.271 309.961C432.931 308.367 427.877 306.104 422.383 304.89C417.936 303.908 413.815 306.68 417.776 310.258C418.547 310.954 419.569 311.447 420.204 312.236C421.18 313.447 421.027 315.043 420.966 316.511C420.869 318.832 421.976 320.241 423.656 321.923C424.463 322.731 425.455 323.398 426.205 324.245C428.894 327.285 427.845 331.838 430.335 334.999C432.168 337.324 435.526 338.392 438.743 338.973C441.961 339.555 445.331 339.815 448.247 341.109C451.513 342.56 453.881 345.196 455.396 348.056C456.728 350.57 456.99 353.308 458.135 355.837C458.81 357.328 460.516 358.979 461.847 360.063C464.631 362.332 467.885 363.852 471.706 364.402C475.502 364.949 479.386 364.679 483.228 364.466C485.447 364.342 488.142 364.445 489.234 366.094C490.115 367.424 489.458 369.067 489.131 370.569C488.804 372.072 489.19 374.048 490.927 374.429C492.095 374.685 493.361 374.055 494.51 374.367C495.773 374.711 496.269 375.989 496.484 377.103C497.126 380.43 496.454 383.544 496.14 386.832C495.911 389.23 494.725 391.061 491.711 391.604C487.494 392.364 484.461 389.902 480.363 390.239C478.539 390.39 476.675 391.212 475.949 392.645C475.587 393.361 475.532 394.164 475.208 394.893C474.362 396.795 471.851 397.804 469.474 398.007C467.097 398.21 464.707 397.803 462.318 397.82C458.257 397.847 455.596 399.351 455.076 402.86C454.685 405.499 455.604 408.51 456.099 411.104C456.498 413.197 457.555 415.233 459.885 416.229C462.546 417.365 465.678 417.234 468.648 417.076C473.963 416.794 479.276 416.513 484.59 416.231C486.844 416.111 489.48 416.129 490.871 417.643C491.858 418.717 491.865 420.206 491.776 421.568C491.521 425.472 490.21 429.216 489.804 433.065C489.436 436.546 489.13 440.074 488.654 443.579C487.596 451.361 486.536 459.143 485.467 466.924C484.721 472.358 483.972 477.791 483.218 483.224C482.56 487.965 481.093 492.235 480.778 497.033C480.605 499.672 480.096 502.449 478.126 504.492C477.082 505.575 475.693 506.377 474.557 507.391C472.09 509.592 470.968 512.65 470.411 515.655C469.298 521.67 468.936 527.688 467.748 533.701C467.225 536.351 464.895 540.315 468.021 542.252C469.309 543.051 470.927 543.335 472.491 543.596C480.535 544.937 488.675 546.208 496.866 545.971C501.254 545.845 505.929 545.164 509.117 542.594C512.075 540.209 513.209 536.64 513.957 533.23C515.727 525.156 515.987 516.737 515.425 508.546C515.345 507.383 515.031 505.969 513.733 505.594C512.925 505.36 511.903 505.614 511.28 505.118C510.784 504.722 510.815 504.056 510.883 503.48C511.823 495.622 513.702 487.371 513.447 479.497C513.184 471.339 513.863 463.074 514.076 454.914C514.219 449.435 514.366 443.955 514.513 438.475C514.583 435.929 514.483 433.314 514.884 430.805C515.254 428.498 514.555 426.512 514.128 424.212C513.723 422.036 514.07 419.439 516.233 418.227C517.565 417.48 519.262 417.45 520.858 417.444L549.351 417.346L587.856 417.214C600.426 417.171 613.035 416.805 625.596 417.294C627.406 417.365 629.373 417.505 630.707 418.549C632.336 419.825 632.426 421.977 632.093 423.839C631.396 427.739 631.897 431.375 632.088 435.317C632.293 439.568 632.5 443.82 632.702 448.073C633.099 456.467 633.478 464.862 633.788 473.26C634.137 482.765 634.641 492.151 634.851 501.663C634.872 502.637 634.882 503.657 634.36 504.524C633.928 505.241 633.178 505.774 632.588 506.406C630.074 509.097 631.016 512.311 631.182 515.399C631.394 519.326 630.657 523.224 631.091 527.197C631.448 530.46 631.953 533.614 633.301 536.654C634.486 539.328 634.809 542.223 637.966 543.87C639.795 544.823 642.029 544.968 644.169 545.087C650.469 545.439 656.781 545.793 663.093 545.64C667.331 545.537 671.759 545.151 675.304 543.172C681.691 539.609 679.606 534.293 678.345 529.037C676.844 522.776 674.652 516.715 673.182 510.455C672.71 508.448 671.787 506.351 669.774 505.234C669.074 504.846 668.268 504.592 667.645 504.119C666.249 503.058 666.416 501.601 666.337 500.169C666.269 498.926 665.993 497.703 665.808 496.451C665.135 491.897 664.462 487.343 663.792 482.79C662.196 471.947 660.609 461.103 659.04 450.258C658.256 444.836 657.476 439.412 656.701 433.989C656.389 431.8 656.373 429.532 655.978 427.387C655.52 424.896 654.799 422.609 654.85 420.048C654.865 419.317 654.932 418.544 655.418 417.941C656.403 416.72 658.5 416.774 660.229 416.941C666.325 417.528 672.454 417.854 678.587 417.917C681.142 417.944 683.846 417.89 686.015 416.74C688.201 415.581 689.481 413.456 689.952 411.3C690.703 407.866 690.767 400.357 686.913 398.054C685.194 397.028 682.93 397.051 680.832 397.114L673.633 397.33C672.13 397.374 670.337 397.295 669.551 396.204C668.67 394.978 669.681 393.271 668.911 391.993C668.079 390.611 665.813 390.575 663.998 390.734C661.664 390.938 659.329 391.142 656.995 391.346C655.388 391.487 653.661 391.607 652.257 390.925C650.58 390.11 650.893 388.874 650.852 387.517C650.81 386.134 650.362 384.704 650.124 383.335C649.78 381.358 648.932 378.888 649.258 376.876C649.54 375.142 650.928 373.41 652.954 373.11C654.146 372.933 655.502 373.237 656.494 372.647C657.792 371.874 657.522 370.177 656.917 368.931C656.312 367.684 655.507 366.284 656.177 365.063C656.822 363.887 658.532 363.48 660.048 363.357C666.068 362.866 672.384 364.711 678.068 362.952C681.776 361.805 684.682 359.23 686.659 356.324C690.125 351.228 690.427 344.36 697.236 341.342C700.263 340 703.829 339.967 707.144 339.274C709.796 338.72 712.354 337.709 714.372 336.142C716.39 334.575 717.838 332.423 718.119 330.11C718.377 327.989 717.746 325.597 719.257 323.898C720.134 322.912 721.549 322.409 722.725 321.682C724.461 320.609 724.723 319.005 724.766 317.297C724.817 315.26 724.731 312.999 726.306 311.466C727.152 310.643 728.377 310.152 729.204 309.317C729.775 308.741 730.089 307.949 730.162 307.122C730.265 305.973 729.905 304.754 729.129 303.946ZM558.981 394.993C557.646 396.874 554.936 397.418 552.545 397.639C549.086 397.957 545.607 397.549 542.141 397.698C539.399 397.815 535.309 398.456 533.723 395.916C533.004 394.766 533.458 393.623 533.33 392.403C533.062 389.839 531.585 389.519 528.972 389.622C525.352 389.763 521.678 390.561 518.222 391.465C517.49 391.656 516.805 391.14 516.779 390.53C516.603 386.298 515.91 380.593 518.443 376.661C518.359 376.07 518.685 375.472 519.57 375.334C524.629 374.542 525.557 370.496 525.997 366.711C526.077 366.017 526.63 365.431 527.504 365.428C533.688 365.41 540.341 365.663 546.432 364.714C549.312 364.266 553.849 363.096 556.308 365.116C557.279 365.913 557.256 366.754 557.39 367.832C557.653 369.927 557.93 371.98 557.954 374.095C558 378.34 558.269 382.225 559.134 386.406C559.669 388.994 560.697 392.575 558.981 394.993ZM628.677 390.205C628.499 390.743 627.897 391.135 627.239 391.136C623.497 391.145 619.752 389.2 616.056 389.579C611.381 390.058 613.641 394.901 610.196 396.691C607.802 397.935 604.263 397.783 601.549 397.885C598.262 398.008 594.735 398.099 591.525 397.37C585.707 396.05 586.604 391.16 587.403 387.039C588.17 383.087 589.117 379.148 589.873 375.187C589.315 372.701 589.405 370.21 589.606 367.684C589.419 367.31 589.401 366.866 589.633 366.484C589.72 366.337 589.809 366.192 589.899 366.046C590.28 365.424 591.142 365.297 591.824 365.522C598.822 363.652 606.893 363.121 614.107 363.732C618.311 364.088 619.886 365.258 619.887 368.755C619.888 372.179 621.705 373.661 625.363 374.83C627.234 375.427 629.015 376.149 629.807 377.813C631.457 381.28 629.816 386.753 628.677 390.205Z" fill="#1E2A68"/>
<path d="M485.353 503.981C480.003 502.935 475.36 504.94 473.353 509.262C471.827 512.549 471.593 516.382 470.58 519.81C468.754 525.989 466.333 532.114 466.583 538.597C466.669 540.828 466.819 542.194 469.368 543.036C472.391 544.033 475.744 544.507 478.922 544.999C486.941 546.241 495.416 545.1 503.409 544.375C505.046 544.226 507.735 544.45 509.158 543.675C511.612 542.337 511.614 538.335 512.069 536.226C513.111 531.396 512.927 526.447 513.368 521.564C513.567 519.366 514.323 517.222 514.515 515.022C514.689 513.025 515.039 509.872 514.255 507.974C513.304 505.674 509.679 505.679 507.317 505.311C501.545 504.413 495.929 503.979 490.046 503.979C488.366 504.204 487.013 504.306 485.353 503.981Z" fill="#38493F"/>
<path d="M653.41 504.721C649.498 504.663 645.535 505.002 641.627 505.173C639.216 505.277 636.368 504.937 634.081 505.646C627.973 507.542 629.869 514.935 630.801 519.012C632.352 525.795 631.886 532.911 633.723 539.637C634.816 543.638 639.261 545.332 643.867 545.404C651.38 545.522 659.142 544.299 666.614 543.743C671.085 543.409 676.389 543.786 678.005 539.39C679.449 535.466 678.05 530.854 677.359 526.93C676.148 520.053 675.295 513.02 671.158 506.849C667.443 501.308 659.01 504.804 653.41 504.721Z" fill="#38493F"/>
<path d="M558.186 364.779C554.725 366.868 556.652 375.168 557.307 377.92C558.296 382.073 558.544 385.948 558.542 390.173C558.542 392.151 557.914 396.208 560.318 397.425C562.709 398.636 567.851 397.54 570.554 397.65C574.759 397.822 580.504 398.568 583.475 395.776C585.897 393.5 586.671 390.068 587.174 387.166C587.866 383.171 588.08 379.036 588.581 375.015C588.882 372.595 589.808 370.284 590.011 367.856C590.108 366.699 590.606 365.241 589.244 364.517C586.981 363.312 582.161 364.106 579.537 363.814C574.853 363.292 570.15 362.898 565.416 363.023C563.669 363.07 561.921 363.129 560.237 363.537C557.967 364.087 557.508 365.376 558.186 364.779Z" fill="#7CA1A9"/>
<path d="M569.21 369.401C566.109 369.88 563.604 371.226 563.572 374.262C563.545 376.91 564.423 379.471 565.162 382.018C565.885 384.509 565.849 387.042 566.456 389.498C567.482 393.657 572.532 393.063 576.335 392.598C577.408 392.466 577.664 392.684 578.332 391.999C579.291 391.017 579.16 388.829 579.414 387.674C580.213 384.044 580.532 380.193 581.073 376.49C581.47 373.774 582.58 370.523 578.784 369.803C576.4 369.352 572.475 368.895 569.21 369.401Z" fill="#38493F"/>
<path d="M721.71 304.268C715.629 306.888 709.292 309.051 702.902 311.057C700.089 311.94 696.916 313.348 693.917 313.562C690.19 313.828 687.056 314.27 683.526 315.23C680.1 316.162 676.598 316.878 673.067 317.457C666.118 318.596 659.068 319.191 652.034 319.805C647.649 320.188 643.207 320.754 638.798 320.84C632.473 320.965 626.542 321.448 620.267 322.247C610.136 323.536 600.028 322.716 589.909 323.448C579.233 324.221 568.514 323.173 557.827 323.204C547.054 323.236 536.169 322.265 525.394 321.869C517.719 321.587 510.037 321.768 502.397 320.992C494.35 320.175 486.423 318.708 478.433 317.586C470.386 316.456 462.56 315.532 454.727 313.582C448.563 312.049 442.625 310.03 436.546 308.221C431.202 306.631 425.201 304.058 419.432 304.12C414.287 304.174 415.802 308.402 418.317 310.513C421.653 313.315 420.526 315.559 421.089 319.22C421.407 321.29 422.852 322.538 425.16 323.209C428.435 324.162 432.145 324.555 435.519 325.269C445.153 327.309 454.577 329.199 464.418 330.483C470.98 331.34 477.431 332.892 484.02 333.676C501.367 335.738 519.206 337.951 536.742 337.999C547.446 338.028 558.127 338.729 568.829 338.823C573.334 338.862 577.692 338.514 582.078 339.347C586.856 340.254 592.329 339.344 597.201 339.321C611.009 339.256 624.768 337.977 638.369 336.005C644.085 335.176 649.605 333.856 655.402 334.181C661.61 334.528 668.238 332.221 674.29 331.215C678.62 330.496 683.008 330.068 687.343 329.427C693.037 328.586 698.755 327.747 704.458 326.866C709.183 326.138 714.494 325.322 718.665 323.209C720.416 322.322 722.364 320.752 722.98 319.026C723.557 317.41 723.2 315.971 724.226 314.405C725.594 312.316 727.879 311.224 728.151 308.663C728.514 305.24 727.137 303.412 721.71 304.268Z" fill="#38493F"/>
<path d="M507.72 375.288C508 378.285 507.226 381.611 506.803 384.579C505.745 391.995 505.404 399.366 504.802 406.796C503.588 421.766 501.231 436.662 500.042 451.623C499.075 463.804 495.544 475.839 495.034 488.054C494.805 493.515 495.031 499.696 493.067 504.886C488.733 504.16 484.15 503.249 479.764 502.679C479.714 498.292 481.197 493.438 481.79 489.033C482.489 483.827 483.896 478.669 484.797 473.489C486.749 462.266 487.08 450.95 488.875 439.694C492.003 420.064 493.465 400.296 495.717 380.668C495.975 378.421 495.147 374.83 497.527 374.002C499.238 373.405 507.153 374.431 507.72 375.288Z" fill="#345F8C"/>
<path d="M630.575 374.662C627.279 376.798 629.709 382.987 629.872 386.121C630.026 389.116 630.482 392.153 630.691 395.139C631.091 400.849 631.544 406.519 631.868 412.208C632.669 426.269 633.267 440.586 632.666 454.751C632.081 468.546 634.663 481.81 634.663 495.477C634.663 497.529 633.845 501.258 635.151 502.955C636.68 504.941 640.199 504.457 643.048 504.579C645.615 504.688 650.366 505.377 652.629 504.313C654.903 503.245 655.093 501.358 655 499.133C654.763 493.511 652.641 487.465 651.82 481.837C649.542 466.228 645.205 451.12 643.936 435.29C642.795 421.072 642.275 406.765 641.431 392.545C641.167 388.101 643.295 383.722 642.934 379.259C642.699 376.368 642.491 376.118 639.809 375.047C637.707 374.207 633.018 373.393 630.904 374.472C630.788 374.532 630.679 374.595 630.575 374.662Z" fill="#345F8C"/>
<path d="M493.718 397.934C493.68 402.876 493.135 408.188 492.522 412.888C491.862 417.942 485.228 417.254 480.163 417.288C476.965 417.309 474.125 416.653 470.958 416.627C467.71 416.6 463.903 418.057 460.667 417.231C458.173 416.595 456.453 415.229 456.585 412.888C456.818 408.81 461.99 410.249 465.754 409.804C473.205 408.925 478.71 405.911 484.549 402.032C486.524 400.721 490.251 397.128 493.718 397.934Z" fill="#345F8C"/>
<path d="M515.071 399.734C515.042 399.752 515.012 399.77 514.983 399.788C511.418 402.009 513.591 412.85 514.551 415.888C520.15 417.848 525.814 416.8 531.596 417.273C537.283 417.739 542.709 418.302 548.501 418.335C562.888 418.416 577.272 418.063 591.649 417.646C599.563 417.418 607.462 416.967 615.398 416.967C619.415 416.967 629.049 418.401 631.877 415.606C634.338 413.175 633.388 404.125 632.234 401.192C631.124 398.372 629.584 397.881 625.933 399.611C623.06 400.972 621.502 403.662 618.821 405.241C615.619 407.127 611.167 408.391 607.425 409.165C595.85 411.559 581.824 410.947 569.961 410.848C559.563 410.76 548.97 410.549 538.711 408.98C533.342 408.158 528.601 407.412 524.464 404.391C522.125 402.684 518.95 397.427 515.071 399.734Z" fill="#345F8C"/>
<path d="M651.832 398.274C652.386 403.423 648.859 409.918 652.442 414.591C655.833 419.014 663.872 417.693 669.401 417.307C674.282 416.965 684.112 419.067 687.389 415.267C694.173 407.401 669.961 409.4 666.166 407.798C661.871 405.987 656.989 393.863 651.832 398.274Z" fill="#345F8C"/>
<path d="M454.988 347.973C458.799 350.096 466.166 350.889 470.805 351.201C479.472 351.783 488.226 353.032 496.913 353.423C516.329 354.297 535.752 354.551 555.151 355.467C565.953 355.977 577.128 354.77 588.006 354.77C597.817 354.77 607.679 354.918 617.444 354.505C634.912 353.766 652.429 354.367 669.903 353.409C674.752 353.143 683.139 353.462 687.281 351.284C690.17 349.765 690.789 346.549 691.592 344.233C692.487 341.654 678.855 343.971 677.74 344.227C664.452 347.277 650.302 349.667 636.496 349.671C630.392 349.673 624.405 348.297 618.309 348.331C612.841 348.36 607.421 348.823 601.93 348.622C584.349 347.98 566.55 349.176 548.858 348.821C530.511 348.452 511.693 350.072 493.384 347.945C483.944 346.849 474.526 345.739 465.168 344.059C463.259 343.716 456.797 341.894 454.991 342.866C452.141 344.4 455.643 347.011 454.988 347.973Z" fill="#345F8C"/>
<path d="M427.837 324.861C422.907 335.462 449.934 335.288 456.707 336.077C478.456 338.608 500.312 340.664 522.117 342.567C530.765 343.321 539.408 343.536 548.016 344.244C553.518 344.696 558.724 344.576 564.258 344.574C576.949 344.568 589.61 345.109 602.322 344.603C630.517 343.481 658.441 341 685.959 335.654C694.364 334.02 703.381 333.27 711.522 330.733C714.819 329.705 722.174 325.667 714.518 325.542C710.381 325.474 706.738 327.231 702.763 327.836C699.391 328.351 696.08 328.081 692.667 328.589C682.896 330.042 673.173 331.799 663.424 333.357C652.792 335.057 642.192 335.862 631.731 337.904C620.754 340.047 607.802 339.815 596.58 339.815C588.005 339.815 579.284 340.204 570.722 339.832C559.999 339.367 549.284 339.59 538.643 338.474C518.862 336.399 498.594 336.35 479.011 333.441C462.849 331.039 445.905 328.639 430.32 324.894C430.283 325.35 430.03 325.493 427.837 324.861Z" fill="#345F8C"/>
<path d="M497.545 506.177C498.14 509.18 493.777 513.618 493.021 516.149C491.884 519.952 491.389 523.881 490.936 527.778C490.464 531.843 491.763 537.636 488.927 541.038C486.753 543.646 483.271 543.947 480.143 543.665C476.812 543.365 471.67 543.733 468.632 542.662C465.978 541.726 468.85 521.654 469.545 518.604C470.624 513.868 472.001 507.186 477.421 504.577C480.829 502.935 493.704 502.035 496.696 504.719C497.172 505.146 497.439 505.638 497.545 506.177Z" fill="#28332D"/>
<path d="M653.429 504.315C645.731 515.961 649.667 527.913 654.714 539.346C656.531 543.461 656.054 544.048 650.834 544.417C647.239 544.671 643.745 544.402 640.053 544.08C635.545 543.688 634.722 542.984 633.88 539.142C633.182 535.962 633.411 532.813 632.318 529.632C630.283 523.713 627.397 515.113 630.571 509.254C632.499 505.696 636.117 505.233 640.532 504.664C643.35 504.302 651.964 503.617 653.429 504.315Z" fill="#28332D"/>
<path d="M564.097 384.333C564.267 386.591 563.576 390.871 565.945 392.54C568.149 394.095 573.855 394.19 576.465 393.818C579.995 393.315 580.559 390.747 581.043 388.202C581.663 384.939 581.695 381.612 582.124 378.322C582.43 375.973 584.361 371.262 582.085 369.32C580.762 368.192 578.379 368.104 576.621 368.041C573.663 367.936 570.589 368.045 567.641 368.235C563.661 368.491 561.863 369.555 562.225 372.908C562.01 376.795 563.804 380.477 564.097 384.333ZM564.568 373.388C564.844 370.574 566.961 370.845 569.666 370.734C571.778 370.648 573.901 370.55 576.016 370.612C578.957 370.697 580.1 370.982 579.697 373.818C579.499 375.208 579.291 376.595 579.13 377.988C578.814 380.714 578.716 383.462 578.422 386.181C578.233 387.919 578.184 389.701 576.456 390.72C574.786 391.704 572.683 391.343 570.683 391.17C567.872 390.927 567.501 390.276 567.132 388.144C566.897 386.784 566.787 385.414 566.559 384.056C566.002 380.741 564.562 377.512 564.337 374.157C564.333 374.091 564.328 374.026 564.324 373.961C564.455 373.815 564.545 373.625 564.568 373.388Z" fill="black"/>
</g>
<defs>
<clipPath id="clip0">
<rect width="781" height="521" fill="white"/>
</clipPath>
</defs>
</svg>
