<svg width="781" height="521" viewBox="0 0 781 521" fill="none" xmlns="http://www.w3.org/2000/svg">
<g clip-path="url(#clip0)">
<rect width="781" height="521" fill="#3BA4CA"/>
<path d="M199.019 304.567H56.425C54.4056 304.567 52.7676 302.859 52.7676 300.751V105.157C52.7676 103.05 54.4048 101.341 56.425 101.341H199.02V304.567H199.019Z" fill="#EEDFDA"/>
<path d="M199.019 101.341H172.437V275.061C172.437 276.75 171.125 278.119 169.506 278.119H52.7676V301.509C52.7676 303.198 54.0802 304.567 55.6989 304.567H199.019V101.341Z" fill="#DED0CB"/>
<path d="M149.271 138.039H102.516C99.2897 138.039 96.6746 135.31 96.6746 131.944C96.6746 128.578 99.2897 125.849 102.516 125.849H149.271C152.498 125.849 155.113 128.578 155.113 131.944C155.113 135.31 152.498 138.039 149.271 138.039Z" fill="#C8C1C9"/>
<path d="M171.836 171.752H86.183C82.9562 171.752 80.3412 169.023 80.3412 165.658C80.3412 162.292 82.9562 159.563 86.183 159.563H171.835C175.062 159.563 177.677 162.292 177.677 165.658C177.677 169.023 175.062 171.752 171.836 171.752V171.752Z" fill="#C8C1C9"/>
<path d="M106.06 229.901H31.9179C28.6911 229.901 26.076 227.172 26.076 223.806C26.076 220.441 28.6911 217.712 31.9179 217.712H106.06C109.287 217.712 111.902 220.441 111.902 223.806C111.902 227.172 109.287 229.901 106.06 229.901Z" fill="#C8C1C9"/>
<path d="M171.836 249.283H86.183C82.9562 249.283 80.3412 246.554 80.3412 243.189C80.3412 239.823 82.9562 237.094 86.183 237.094H171.835C175.062 237.094 177.677 239.823 177.677 243.189C177.677 246.554 175.062 249.283 171.836 249.283V249.283Z" fill="#C8C1C9"/>
<path d="M134.707 268.666H31.9179C28.6911 268.666 26.076 265.937 26.076 262.572C26.076 259.206 28.6911 256.477 31.9179 256.477H134.707C137.934 256.477 140.549 259.206 140.549 262.572C140.549 265.937 137.934 268.666 134.707 268.666Z" fill="#C8C1C9"/>
<path d="M341.614 304.567H199.019V101.341H341.614C343.633 101.341 345.271 103.05 345.271 105.157V300.752C345.271 302.859 343.634 304.567 341.614 304.567Z" fill="#EEDFDA"/>
<path d="M342.34 101.341H318.69V275.061C318.69 276.75 317.377 278.119 315.758 278.119H199.019V304.567H342.339C343.958 304.567 345.271 303.197 345.271 301.509V104.4C345.271 102.711 343.959 101.341 342.34 101.341V101.341Z" fill="#DED0CB"/>
<path d="M295.523 138.039H248.768C245.541 138.039 242.926 135.31 242.926 131.944C242.926 128.578 245.541 125.849 248.768 125.849H295.523C298.749 125.849 301.364 128.578 301.364 131.944C301.364 135.31 298.749 138.039 295.523 138.039Z" fill="#C8C1C9"/>
<path d="M362.346 171.752H285.972C282.745 171.752 280.13 169.023 280.13 165.658C280.13 162.292 282.745 159.563 285.972 159.563H362.346C365.572 159.563 368.187 162.292 368.187 165.658C368.187 169.023 365.572 171.752 362.346 171.752Z" fill="#C8C1C9"/>
<path d="M362.346 191.135H285.972C282.745 191.135 280.13 188.406 280.13 185.041C280.13 181.675 282.745 178.946 285.972 178.946H362.346C365.572 178.946 368.187 181.675 368.187 185.041C368.187 188.406 365.572 191.135 362.346 191.135Z" fill="#C8C1C9"/>
<path d="M318.087 210.518H232.435C229.209 210.518 226.593 207.789 226.593 204.423C226.593 201.057 229.209 198.328 232.435 198.328H318.087C321.314 198.328 323.929 201.057 323.929 204.423C323.929 207.789 321.314 210.518 318.087 210.518Z" fill="#C8C1C9"/>
<path d="M393.158 249.283H330.63C327.403 249.283 324.788 246.554 324.788 243.189C324.788 239.823 327.403 237.094 330.63 237.094H393.158C396.385 237.094 399 239.823 399 243.189C399 246.554 396.385 249.283 393.158 249.283V249.283Z" fill="#C8C1C9"/>
<path d="M255.823 337.516H199.526C196.3 337.516 193.685 334.787 193.685 331.422C193.685 328.056 196.3 325.327 199.526 325.327H255.823C259.05 325.327 261.665 328.056 261.665 331.422C261.665 334.787 259.05 337.516 255.823 337.516Z" fill="#C8C1C9"/>
<path d="M255.823 357.536H199.526C196.3 357.536 193.685 354.807 193.685 351.441C193.685 348.076 196.3 345.347 199.526 345.347H255.823C259.05 345.347 261.665 348.076 261.665 351.441C261.665 354.807 259.05 357.536 255.823 357.536Z" fill="#C8C1C9"/>
<path d="M253.775 268.666H220.751C217.524 268.666 214.909 265.937 214.909 262.572C214.909 259.206 217.524 256.477 220.751 256.477H253.775C257.002 256.477 259.617 259.206 259.617 262.572C259.617 265.937 257.002 268.666 253.775 268.666Z" fill="#C8C1C9"/>
<path d="M288.014 322.351C300.348 322.351 310.346 311.92 310.346 299.053C310.346 286.185 300.348 275.755 288.014 275.755C275.681 275.755 265.683 286.185 265.683 299.053C265.683 311.92 275.681 322.351 288.014 322.351Z" fill="#89D5E6"/>
<path d="M288.015 275.755C285.953 275.755 283.958 276.052 282.061 276.599C291.503 279.318 298.439 288.338 298.439 299.053C298.439 309.768 291.503 318.787 282.061 321.507C283.957 322.053 285.952 322.351 288.015 322.351C300.348 322.351 310.346 311.92 310.346 299.053C310.346 286.185 300.348 275.755 288.015 275.755V275.755Z" fill="#547580"/>
<path d="M110.122 326.005L118.387 386.932C118.636 388.763 120.691 389.626 122.087 388.487L168.53 350.557C169.925 349.416 169.615 347.128 167.971 346.437L113.263 323.441C111.619 322.749 109.874 324.174 110.122 326.005Z" fill="#4586A3"/>
<path d="M167.916 346.413L154.398 340.731C154.378 340.75 154.365 340.773 154.343 340.79L116.339 371.829L118.379 386.869C118.63 388.727 120.717 389.604 122.133 388.448L168.483 350.593C169.9 349.437 169.584 347.114 167.916 346.413V346.413Z" fill="#23677F"/>
<path d="M33.4254 195.265L6.67468 167.356C5.77511 166.417 5.77511 164.897 6.67468 163.958L33.4261 136.05C34.3257 135.111 35.7833 135.111 36.6829 136.05L63.4343 163.958C64.3339 164.897 64.3339 166.417 63.4343 167.356L36.6829 195.265C35.7825 196.202 34.3249 196.202 33.4254 195.265Z" fill="#3D829F"/>
<path d="M63.409 163.934L36.7059 136.075C35.7933 135.123 34.3134 135.123 33.4008 136.075L27.2642 142.477L47.83 163.933C48.7426 164.885 48.7426 166.429 47.83 167.38L27.2642 188.835L33.4008 195.238C34.3134 196.19 35.7933 196.19 36.7059 195.238L63.409 167.379C64.3216 166.429 64.3216 164.886 63.409 163.934V163.934Z" fill="#89D5E6"/>
<path d="M680.445 443.113C681.188 438.245 684.284 434.328 688.384 432.352C689.293 431.915 689.916 431.028 690.077 430.026C690.266 428.86 690.442 427.688 690.607 426.511C691.858 417.56 692.361 408.683 692.163 399.945C692.139 398.89 691.585 397.903 690.676 397.383C685.714 394.55 682.749 388.843 683.669 382.812C684.18 379.46 685.809 376.558 688.111 374.43C688.884 373.716 689.208 372.625 688.999 371.591C686.979 361.589 684.028 351.888 680.23 342.597C679.644 342.582 679.055 342.543 678.461 342.452C670.723 341.271 665.416 333.985 666.607 326.178C666.857 324.541 667.379 323.017 668.113 321.636C668.62 320.682 668.559 319.519 667.991 318.604C644.229 280.348 604.641 252.487 556.72 245.175C509.081 237.906 463.13 252.684 429.044 281.926C428.203 282.648 427.817 283.776 428.033 284.867C428.344 286.446 428.397 288.105 428.14 289.79C426.948 297.597 419.71 302.969 411.972 301.788C411.863 301.771 411.754 301.753 411.646 301.733C410.552 301.533 409.43 301.934 408.725 302.804C402.463 310.53 396.881 318.878 392.087 327.765C394.426 330.762 395.586 334.685 394.964 338.759C393.998 345.092 389.05 349.815 383.086 350.745C382.33 350.862 381.695 351.384 381.446 352.113C378.351 361.157 376.011 370.604 374.518 380.392C374.426 380.991 374.345 381.59 374.266 382.189C374.173 382.895 374.449 383.598 374.996 384.046C378.758 387.133 380.85 392.084 380.057 397.278C379.41 401.518 376.972 405.028 373.646 407.17C373.046 407.556 372.687 408.232 372.703 408.949C372.788 412.619 372.986 416.267 373.319 419.884C374.337 430.93 386.962 436.556 395.895 430.055C428.735 406.152 478.961 394.895 532.627 403.084C586.22 411.262 630.757 436.928 654.995 469.474C661.662 478.425 675.449 476.81 679.745 466.46C681.099 463.2 682.35 459.879 683.496 456.503C683.817 455.56 683.615 454.532 683.032 453.732C680.883 450.787 679.85 447.017 680.445 443.113V443.113Z" fill="#C4D8E3"/>
<path d="M680.445 443.113C681.188 438.245 684.284 434.328 688.384 432.352C689.293 431.915 689.916 431.028 690.077 430.026C690.266 428.86 690.442 427.688 690.607 426.511C691.857 417.56 692.361 408.683 692.163 399.945C692.139 398.89 691.585 397.903 690.676 397.384C685.714 394.551 682.749 388.844 683.669 382.812C684.18 379.46 685.809 376.558 688.111 374.43C688.884 373.716 689.208 372.625 688.999 371.591C687.106 362.219 684.396 353.112 680.937 344.357C680.527 343.318 679.576 342.62 678.478 342.455C678.472 342.454 678.466 342.453 678.46 342.452C670.722 341.271 665.415 333.985 666.606 326.178C666.856 324.541 667.378 323.017 668.113 321.636C668.619 320.683 668.559 319.519 667.991 318.604C644.228 280.348 604.64 252.487 556.72 245.176C547.982 243.842 539.302 243.263 530.739 243.366C603.281 266.943 650.179 339.908 639.174 418.664C637.842 428.195 635.707 437.409 632.857 446.251C641.414 453.437 648.857 461.234 654.994 469.475C661.66 478.426 675.465 476.773 679.76 466.422C681.107 463.174 682.352 459.866 683.495 456.503C683.815 455.56 683.614 454.532 683.03 453.731C680.883 450.787 679.85 447.017 680.445 443.113V443.113Z" fill="#E3DFE2"/>
<path d="M668.465 220.537C668.439 220.532 668.412 220.526 668.386 220.521C663.459 219.539 659.284 216.275 657.343 211.605C642.275 175.344 616.49 138.69 571.195 150.311C531.428 125.711 495.885 153.007 470.688 183.124C467.443 187.003 462.484 188.873 457.488 188.341C457.461 188.338 457.434 188.336 457.408 188.333C440.882 186.619 426.11 199.066 424.981 215.945C423.94 231.494 435.281 245.343 450.607 247.263C457.961 248.184 464.996 246.288 470.678 242.432C477.221 243.543 484.681 243.838 492.469 243.351C500.073 201.716 518.599 152.325 570.784 153.011C620.799 167.92 623.751 220.588 618.593 262.596C625.881 265.383 633.09 267.327 639.666 268.218C643.939 273.593 650.089 277.501 657.383 278.815C672.584 281.553 687.539 271.715 691.183 256.565C695.138 240.116 684.751 223.83 668.465 220.537Z" fill="#845151"/>
<path d="M668.465 220.537C668.439 220.532 668.412 220.526 668.386 220.521C663.459 219.539 659.284 216.275 657.343 211.605C643.742 178.875 621.408 145.831 583.879 148.25C607.489 157.588 623.053 182.867 633.482 207.964C635.422 212.634 639.598 215.898 644.525 216.88C644.552 216.886 644.578 216.891 644.604 216.896C660.89 220.189 671.277 236.476 667.321 252.923C664.747 263.626 656.525 271.67 646.563 274.51C649.748 276.596 653.392 278.096 657.382 278.814C672.583 281.553 687.538 271.714 691.182 256.564C695.138 240.116 684.751 223.83 668.465 220.537V220.537Z" fill="#5A3535"/>
<path d="M403.61 432.243C404.996 436.534 401.068 440.583 396.765 439.331C389.97 437.355 380.399 436.234 369.46 439.768C356.251 444.036 348.631 452.644 344.696 458.709C343.166 461.068 339.603 460.578 338.734 457.888L314.21 381.988C313.713 380.449 313.828 378.782 314.541 377.338C317.139 372.07 324.893 359.53 341.773 354.076C363.43 347.078 379.729 358.332 379.729 358.332L403.61 432.243L403.61 432.243Z" fill="#DED0CB"/>
<path d="M471.226 415.079C472.096 417.769 469.493 420.251 466.872 419.233C460.132 416.617 448.916 414.096 435.707 418.364C424.768 421.898 417.663 428.408 413.308 433.986C410.551 437.518 404.997 436.534 403.61 432.243L379.729 358.332C379.729 358.332 386.362 339.669 408.019 332.671C424.899 327.217 438.524 332.85 443.714 335.601C445.136 336.355 446.206 337.639 446.703 339.178L471.227 415.079L471.226 415.079Z" fill="#DED0CB"/>
<path d="M430.234 331.063L450.472 393.697C451.672 397.411 448.96 401.222 445.088 401.236C440.75 401.251 435.979 401.888 430.912 403.525C409.254 410.523 402.622 429.185 402.622 429.185L403.61 432.244C404.996 436.534 410.551 437.52 413.308 433.987C417.662 428.409 424.768 421.899 435.707 418.364C448.916 414.096 460.131 416.618 466.871 419.234C469.492 420.251 472.095 417.77 471.226 415.08L446.702 339.181C446.201 337.628 445.111 336.342 443.674 335.583C441.069 334.208 436.374 332.128 430.234 331.063Z" fill="#C9BEB9"/>
<path d="M363.118 352.322L383.405 415.11C384.595 418.794 381.937 422.571 378.098 422.648C373.96 422.731 369.444 423.386 364.665 424.93C343.008 431.927 336.376 450.589 336.376 450.589L338.734 457.888C339.603 460.578 343.166 461.068 344.696 458.709C348.631 452.644 356.252 444.036 369.46 439.768C380.399 436.234 389.97 437.356 396.765 439.331C401.068 440.582 404.996 436.534 403.61 432.243L379.728 358.332C379.728 358.332 373.283 353.886 363.118 352.322V352.322Z" fill="#C9BEB9"/>
<path d="M648.278 260.015C644.049 257.585 638.801 257.827 633.601 260.186C632.604 260.639 631.501 259.823 631.654 258.732C637.995 213.232 635.404 153.429 572.625 143.883C510.901 134.496 489.985 187.955 481.737 232.706C481.563 233.65 480.517 234.163 479.697 233.678C476.404 231.73 472.868 230.956 469.407 231.687C459.152 233.853 450.641 248.966 453.87 264.708C456.655 278.288 471.62 287.906 482.262 288.905C482.848 288.96 483.32 289.399 483.45 289.977C492.154 328.485 513.5 366.721 537.005 370.295C560.894 373.928 593.629 343.196 613.683 308.649C613.795 308.719 613.899 308.793 614.015 308.86C623.104 314.08 644.966 310.201 652.887 296.219C660.808 282.236 657.367 265.236 648.278 260.015V260.015Z" fill="#FFCBBE"/>
<path d="M648.278 260.015C644.049 257.585 638.801 257.827 633.601 260.187C632.599 260.641 631.502 259.817 631.655 258.72C637.819 214.479 635.525 156.728 577.679 144.795C607.881 168.61 606.719 215.304 601.085 250.991C594.364 293.568 549.058 352.602 515.224 357.099C522.023 364.347 529.4 369.138 537.005 370.294C560.893 373.927 593.628 343.195 613.683 308.649C613.794 308.718 613.899 308.792 614.015 308.859C623.103 314.08 644.965 310.2 652.886 296.219C660.808 282.237 657.367 265.236 648.278 260.015V260.015Z" fill="#FDAD9D"/>
<path d="M532.409 254.905C533.281 249.376 529.545 244.193 524.065 243.329C518.585 242.464 513.436 246.245 512.565 251.775C511.693 257.304 515.429 262.487 520.908 263.351C526.388 264.216 531.537 260.434 532.409 254.905Z" fill="#845151"/>
<path d="M602.185 265.925C603.057 260.396 599.322 255.213 593.842 254.349C588.362 253.484 583.213 257.266 582.341 262.795C581.469 268.324 585.205 273.507 590.685 274.371C596.165 275.236 601.314 271.455 602.185 265.925Z" fill="#845151"/>
<path d="M544.779 239.801C543.564 239.615 542.409 238.997 541.561 237.969C538.556 234.324 532.597 231.435 526.01 230.43C519.423 229.425 512.873 230.405 508.918 232.988C506.497 234.568 503.27 233.874 501.709 231.438C500.148 229.001 500.845 225.743 503.265 224.163C509.455 220.121 518.324 218.614 527.597 220.029C536.87 221.444 544.886 225.527 549.589 231.231C551.427 233.462 551.122 236.779 548.905 238.639C547.709 239.643 546.202 240.018 544.779 239.801Z" fill="#AD6B6B"/>
<path d="M614.624 250.458C613.408 250.273 612.253 249.655 611.406 248.627C608.401 244.982 602.442 242.093 595.854 241.087C589.267 240.082 582.717 241.062 578.762 243.646C576.341 245.226 573.113 244.531 571.553 242.095C569.991 239.658 570.689 236.401 573.109 234.82C579.299 230.778 588.168 229.272 597.441 230.687C606.714 232.102 614.73 236.184 619.432 241.889C621.271 244.119 620.965 247.436 618.748 249.297C617.554 250.301 616.047 250.675 614.624 250.458Z" fill="#AD6B6B"/>
<path d="M553.503 332.069C552.669 337.538 546.196 350.495 540.776 349.668C535.355 348.841 533.041 334.543 533.876 329.074C534.71 323.606 539.133 324.087 544.553 324.914C549.973 325.741 554.338 326.601 553.503 332.069Z" fill="#AD6B6B"/>
<path d="M544.553 324.914C543.251 324.715 542.008 324.538 540.856 324.458C544.407 325.299 546.777 326.791 546.143 330.946C545.509 335.101 541.619 343.574 537.41 347.045C538.353 348.488 539.473 349.469 540.776 349.668C546.196 350.495 552.669 337.538 553.503 332.069C554.338 326.601 549.973 325.741 544.553 324.914Z" fill="#995E5E"/>
<path d="M554.414 295.003C551.561 292.491 547.592 291.886 544.12 293.432C542.029 294.364 539.549 295.018 536.757 295.384L536.293 298.43C535.29 304.999 539.755 311.128 546.265 312.122C552.775 313.115 558.864 308.596 559.866 302.028L560.354 298.832C558.016 297.704 556.021 296.417 554.414 295.003V295.003Z" fill="#E96C3C"/>
<path d="M554.414 295.003C551.761 292.667 548.147 292.004 544.86 293.164C545.07 293.321 545.287 293.465 545.486 293.641C547.092 295.054 549.088 296.342 551.426 297.47L550.939 300.665C550.18 305.639 546.502 309.432 541.936 310.552C543.227 311.331 544.683 311.88 546.264 312.121C552.774 313.115 558.864 308.596 559.866 302.027L560.353 298.832C558.016 297.704 556.021 296.417 554.414 295.003V295.003Z" fill="#FC5327"/>
<path d="M588.416 296.814L560.337 283.66C559.469 283.253 558.565 283.011 557.662 282.919C553.268 282.473 548.891 281.805 544.563 280.921C543.674 280.739 542.74 280.7 541.79 280.83L511.066 285.011C507.769 285.46 506.589 289.633 509.136 291.785C513.253 295.266 519.868 298.094 527.58 299.271C534.591 300.341 540.296 299.708 544.336 297.909C547.196 296.635 550.462 297.134 552.812 299.202C556.131 302.125 561.389 304.43 568.4 305.499C576.112 306.676 583.269 305.949 588.237 303.855C591.31 302.561 591.429 298.225 588.416 296.814Z" fill="#AD6B6B"/>
<path d="M588.416 296.814L577.969 291.92C577.842 293.961 576.671 295.947 574.464 296.878C569.06 299.155 561.911 300.339 553.975 300.129C557.308 302.607 562.151 304.547 568.4 305.5C576.113 306.677 583.269 305.95 588.238 303.856C591.31 302.561 591.429 298.226 588.416 296.814Z" fill="#995E5E"/>
<path d="M359.582 386.164C358.754 386.148 357.91 386.267 357.08 386.534C355.099 387.171 353.552 388.535 352.636 390.241C352.269 390.923 351.423 391.185 350.724 390.85C348.972 390.012 346.909 389.825 344.925 390.491C340.325 392.034 338.338 397.373 340.594 401.716C341.378 403.226 342.569 404.12 344.928 405.334C347.396 406.604 355.081 410.363 357.772 411.677C358.3 411.935 358.931 411.729 359.205 411.21C360.656 408.469 364.885 400.468 365.892 398.466C367.113 396.039 367.653 394.031 366.878 391.621C365.822 388.337 362.823 386.224 359.582 386.164" fill="#285680"/>
<path d="M760.813 548.805L750.827 543.619L740.841 548.805C739.908 549.289 738.595 548.816 738.595 547.996V514.787H763.058V547.996C763.058 548.816 761.745 549.289 760.813 548.805Z" fill="#4482C3"/>
<path d="M646.609 519.977H590.438C585.226 519.977 581 516.976 581 513.274V357.702C581 354.001 585.226 351 590.438 351H646.609C651.822 351 656.048 354.001 656.048 357.702V513.274C656.048 516.976 651.822 519.977 646.609 519.977Z" fill="#27617A"/>
<path d="M694.514 519.977H665.486C660.274 519.977 656.048 516.976 656.048 513.274V357.702C656.048 354.001 660.274 351 665.486 351H694.514C699.727 351 703.953 354.001 703.953 357.702V513.274C703.953 516.976 699.727 519.977 694.514 519.977Z" fill="#266DA0"/>
<path d="M769.562 519.977H713.391C708.178 519.977 703.952 516.976 703.952 513.274V357.702C703.952 354.001 708.178 351 713.391 351H769.562C774.774 351 779 354.001 779 357.702V513.274C779 516.976 774.775 519.977 769.562 519.977Z" fill="#2A4F75"/>
<path d="M646.609 351H638.115V500.987C638.115 504.688 633.889 507.689 628.676 507.689H581V513.274C581 516.976 585.226 519.977 590.438 519.977H646.609C651.822 519.977 656.048 516.976 656.048 513.274V357.702C656.048 354.001 651.822 351 646.609 351Z" fill="#1F4569"/>
<path d="M694.514 351H686.02V500.987C686.02 504.688 681.794 507.689 676.581 507.689H656.048V513.274C656.048 516.976 660.274 519.977 665.486 519.977H694.514C699.727 519.977 703.953 516.976 703.953 513.274V357.702C703.953 354.001 699.727 351 694.514 351V351Z" fill="#4482C3"/>
<path d="M769.609 350H761.115V499.987C761.115 503.688 756.889 506.689 751.677 506.689H704V512.274C704 515.976 708.226 518.977 713.438 518.977H769.609C774.822 518.977 779.048 515.976 779.048 512.274V356.702C779.048 353.001 774.823 350 769.609 350Z" fill="#407AAF"/>
<path d="M731.308 459.952C728.578 459.952 726.365 458.38 726.365 456.441V401.841C726.365 399.902 728.578 398.331 731.308 398.331C734.038 398.331 736.251 399.902 736.251 401.841V456.442C736.251 458.38 734.038 459.952 731.308 459.952V459.952Z" fill="#5EA9C9"/>
<path d="M752.145 459.952C749.415 459.952 747.202 458.38 747.202 456.441V401.841C747.202 399.902 749.415 398.331 752.145 398.331C754.875 398.331 757.088 399.902 757.088 401.841V456.442C757.088 458.38 754.875 459.952 752.145 459.952V459.952Z" fill="#5EA9C9"/>
<path d="M608.106 459.952C605.376 459.952 603.163 458.38 603.163 456.441V401.841C603.163 399.902 605.376 398.331 608.106 398.331C610.836 398.331 613.049 399.902 613.049 401.841V456.442C613.048 458.38 610.836 459.952 608.106 459.952V459.952Z" fill="#5EA9C9"/>
<path d="M628.942 459.952C626.212 459.952 623.999 458.38 623.999 456.441V438.345C623.999 436.406 626.212 434.835 628.942 434.835C631.672 434.835 633.885 436.406 633.885 438.345V456.441C633.885 458.38 631.672 459.952 628.942 459.952Z" fill="#5EA9C9"/>
<path d="M680 483.706C677.27 483.706 675.057 482.135 675.057 480.196V448.61C675.057 446.671 677.27 445.1 680 445.1C682.73 445.1 684.943 446.671 684.943 448.61V480.196C684.943 482.135 682.73 483.706 680 483.706Z" fill="#2A4F75"/>
<path d="M249 90C249 104.358 236.687 116 221.5 116C206.313 116 194 104.358 194 90C194 75.6416 206.313 64 221.5 64C236.687 64 249 75.6416 249 90Z" fill="#2D7D9A"/>
</g>
<defs>
<clipPath id="clip0">
<rect width="781" height="521" fill="white"/>
</clipPath>
</defs>
</svg>
