<svg width="780" height="520" viewBox="0 0 780 520" fill="none" xmlns="http://www.w3.org/2000/svg">
<rect width="780" height="520" fill="#3BA4CA"/>
<path d="M573.403 149.369H207.597C196.791 149.369 188 158.397 188 169.494V390.874C188 401.972 196.791 411 207.597 411H573.403C584.209 411 593 401.972 593 390.874V169.494C593 158.397 584.209 149.369 573.403 149.369Z" fill="#2D7D9A"/>
<path d="M410.097 377.458H370.903V411H410.097V377.458Z" fill="#5D647F"/>
<path d="M567.05 357.332V377.457C567.05 381.162 564.125 384.166 560.517 384.166H220.84C217.232 384.166 214.308 381.162 214.308 377.457V357.332L253.322 337.207L410.097 343.915L540.742 337.207L567.05 357.332Z" fill="#E6BE8A"/>
<path d="M223.472 366.595C277.15 343.837 337.855 345.222 390.679 370.749V129.243C336.114 102.875 273.14 102.267 218.187 127.419C215.822 128.501 214.308 130.959 214.308 133.618V360.462C214.308 365.308 219.111 368.444 223.472 366.595Z" fill="#FFEBB7"/>
<path d="M390.679 370.749C443.502 345.222 504.207 343.837 557.885 366.595C562.246 368.444 567.05 365.308 567.05 360.462V133.618C567.05 130.959 565.535 128.501 563.171 127.419C508.218 102.267 445.243 102.875 390.679 129.243V370.749V370.749Z" fill="#FFD788"/>
<path d="M416.808 326.938C414.027 326.938 411.449 325.103 410.575 322.237C409.498 318.703 411.411 314.936 414.849 313.826C421.458 311.693 428.258 309.872 435.065 308.408C438.587 307.648 442.057 309.963 442.797 313.597C443.536 317.223 441.279 320.777 437.744 321.537C431.352 322.913 424.967 324.626 418.766 326.627C418.115 326.836 417.452 326.938 416.808 326.938Z" fill="#868491"/>
<path d="M540.921 326.938C540.276 326.938 539.613 326.836 538.963 326.626C514.314 318.677 488.765 315.699 463.05 317.802C459.401 318.071 456.308 315.336 456.021 311.644C455.74 307.949 458.42 304.719 462.018 304.425C489.46 302.21 516.636 305.361 542.88 313.826C546.318 314.936 548.232 318.703 547.153 322.237C546.279 325.104 543.702 326.938 540.921 326.938Z" fill="#868491"/>
<path d="M540.921 300.025C540.277 300.025 539.613 299.923 538.963 299.714C499.642 287.03 458.088 287.03 418.767 299.714C415.31 300.824 411.647 298.856 410.576 295.325C409.498 291.79 411.411 288.023 414.85 286.913C456.736 273.405 500.994 273.405 542.88 286.913C546.318 288.023 548.232 291.79 547.153 295.325C546.279 298.191 543.702 300.025 540.921 300.025Z" fill="#868491"/>
<path d="M416.808 273.27C414.027 273.27 411.449 271.435 410.575 268.569C409.498 265.035 411.411 261.268 414.849 260.158C438.892 252.408 463.841 249.109 488.975 250.322C492.572 250.498 495.36 253.64 495.188 257.341C495.022 261.049 492.011 263.879 488.349 263.725C464.765 262.582 441.335 265.681 418.765 272.959C418.115 273.168 417.452 273.27 416.808 273.27Z" fill="#868491"/>
<path d="M540.921 273.27C540.277 273.27 539.613 273.168 538.963 272.958C530.708 270.295 522.192 268.159 513.65 266.614C510.097 265.968 507.724 262.49 508.356 258.84C508.981 255.194 512.375 252.754 515.922 253.4C525.019 255.048 534.083 257.321 542.88 260.158C546.319 261.268 548.233 265.035 547.154 268.569C546.279 271.436 543.702 273.27 540.921 273.27Z" fill="#868491"/>
<path d="M540.921 246.357C540.277 246.357 539.613 246.255 538.963 246.046C499.642 233.362 458.088 233.362 418.767 246.046C415.31 247.149 411.647 245.184 410.576 241.657C409.498 238.122 411.411 234.355 414.85 233.245C456.736 219.737 500.994 219.737 542.88 233.245C546.318 234.355 548.232 238.122 547.153 241.657C546.279 244.523 543.702 246.357 540.921 246.357Z" fill="#868491"/>
<path d="M416.808 219.524C414.027 219.524 411.449 217.689 410.575 214.823C409.498 211.289 411.411 207.522 414.849 206.412C427.99 202.173 441.591 199.232 455.286 197.672C458.922 197.224 462.106 199.923 462.501 203.598C462.896 207.28 460.313 210.598 456.728 211.004C443.874 212.471 431.097 215.233 418.766 219.213C418.115 219.421 417.452 219.524 416.808 219.524Z" fill="#868491"/>
<path d="M540.921 219.524C540.276 219.524 539.613 219.422 538.963 219.213C520.52 213.26 501.37 210.083 482.035 209.772C478.424 209.713 475.547 206.663 475.605 202.959C475.662 199.257 478.814 196.139 482.239 196.355C502.831 196.689 523.238 200.073 542.88 206.411C546.318 207.521 548.232 211.288 547.153 214.823C546.272 217.689 543.702 219.524 540.921 219.524Z" fill="#868491"/>
<path d="M416.808 192.768C414.027 192.768 411.449 190.933 410.575 188.068C409.498 184.533 411.411 180.766 414.849 179.656C443.313 170.475 472.771 167.526 502.448 170.916C506.033 171.322 508.616 174.64 508.22 178.323C507.825 182.001 504.661 184.727 501.005 184.248C473.167 181.077 445.488 183.832 418.765 192.457C418.115 192.666 417.452 192.768 416.808 192.768Z" fill="#868491"/>
<path d="M540.921 192.768C540.276 192.768 539.613 192.666 538.963 192.457C534.816 191.117 530.561 189.901 526.306 188.837C522.804 187.959 520.654 184.33 521.509 180.73C522.364 177.13 525.873 174.929 529.407 175.8C533.93 176.934 538.459 178.23 542.88 179.656C546.318 180.766 548.232 184.533 547.153 188.068C546.279 190.934 543.702 192.768 540.921 192.768Z" fill="#868491"/>
<path d="M416.808 165.856C414.027 165.856 411.449 164.018 410.575 161.152C409.498 157.614 411.411 153.851 414.856 152.744C419.347 151.296 423.876 150.002 428.322 148.892C431.805 148.01 435.358 150.225 436.213 153.825C437.068 157.425 434.911 161.054 431.409 161.929C427.238 162.97 422.983 164.185 418.759 165.545C418.109 165.753 417.452 165.856 416.808 165.856Z" fill="#868491"/>
<path d="M540.921 165.856C540.276 165.856 539.613 165.754 538.963 165.545C512.234 156.92 484.568 154.169 456.722 157.336C453.112 157.788 449.903 155.085 449.507 151.411C449.112 147.729 451.696 144.41 455.28 144.004C484.943 140.614 514.409 143.563 542.879 152.744C546.317 153.854 548.231 157.621 547.152 161.156C546.279 164.021 543.702 165.856 540.921 165.856Z" fill="#868491"/>
<path d="M240.437 326.938C237.656 326.938 235.079 325.103 234.204 322.237C233.126 318.703 235.04 314.936 238.478 313.826C245.087 311.693 251.887 309.872 258.694 308.408C262.221 307.648 265.686 309.963 266.425 313.597C267.165 317.223 264.908 320.777 261.373 321.537C254.981 322.913 248.596 324.626 242.395 326.627C241.744 326.836 241.081 326.938 240.437 326.938Z" fill="#B4B6BC"/>
<path d="M364.55 326.938C363.906 326.938 363.242 326.836 362.592 326.626C337.949 318.677 312.394 315.699 286.68 317.802C282.98 318.071 279.937 315.336 279.65 311.644C279.369 307.949 282.049 304.719 285.647 304.425C313.09 302.21 340.259 305.361 366.509 313.826C369.947 314.936 371.861 318.703 370.782 322.237C369.908 325.104 367.331 326.938 364.55 326.938Z" fill="#B4B6BC"/>
<path d="M364.55 300.025C363.905 300.025 363.242 299.923 362.592 299.714C323.271 287.03 281.717 287.03 242.396 299.714C238.925 300.824 235.276 298.856 234.205 295.325C233.127 291.79 235.04 288.023 238.479 286.913C280.364 273.405 324.623 273.405 366.509 286.913C369.947 288.023 371.861 291.79 370.782 295.325C369.908 298.191 367.331 300.025 364.55 300.025Z" fill="#B4B6BC"/>
<path d="M240.437 273.27C237.656 273.27 235.079 271.435 234.204 268.569C233.126 265.035 235.04 261.268 238.478 260.158C262.521 252.408 287.489 249.109 312.604 250.322C316.201 250.498 318.989 253.64 318.817 257.341C318.644 261.049 315.601 263.879 311.978 263.725C288.388 262.582 264.964 265.681 242.394 272.959C241.744 273.168 241.081 273.27 240.437 273.27Z" fill="#B4B6BC"/>
<path d="M364.55 273.27C363.905 273.27 363.242 273.168 362.592 272.958C354.337 270.295 345.821 268.159 337.279 266.614C333.726 265.968 331.353 262.49 331.985 258.84C332.604 255.194 336.01 252.754 339.551 253.4C348.648 255.048 357.712 257.321 366.509 260.158C369.948 261.268 371.862 265.035 370.783 268.569C369.908 271.436 367.331 273.27 364.55 273.27Z" fill="#B4B6BC"/>
<path d="M240.437 246.357C237.656 246.357 235.079 244.522 234.204 241.657C233.126 238.122 235.04 234.355 238.478 233.245C275.611 221.273 315.232 219.94 353.029 229.393C356.537 230.271 358.687 233.9 357.832 237.5C356.977 241.097 353.425 243.288 349.941 242.43C314.447 233.543 277.257 234.804 242.395 246.047C241.744 246.255 241.081 246.357 240.437 246.357Z" fill="#B4B6BC"/>
<path d="M240.437 219.524C237.656 219.524 235.079 217.689 234.204 214.823C233.126 211.289 235.04 207.522 238.478 206.412C251.619 202.173 265.219 199.232 278.915 197.672C282.519 197.224 285.735 199.923 286.13 203.598C286.525 207.28 283.942 210.598 280.357 211.004C267.503 212.471 254.725 215.233 242.395 219.213C241.744 219.421 241.081 219.524 240.437 219.524Z" fill="#B4B6BC"/>
<path d="M351.492 215.785C350.981 215.785 350.458 215.723 349.942 215.595C335.462 211.972 320.56 210.01 305.664 209.771C302.053 209.712 299.177 206.663 299.234 202.958C299.291 199.256 302.11 196.138 305.868 196.354C321.739 196.613 337.604 198.7 353.029 202.558C356.538 203.436 358.688 207.065 357.833 210.665C357.105 213.732 354.432 215.785 351.492 215.785Z" fill="#B4B6BC"/>
<path d="M240.437 192.768C237.656 192.768 235.079 190.933 234.204 188.068C233.126 184.533 235.04 180.766 238.478 179.656C266.948 170.475 296.407 167.526 326.076 170.916C329.662 171.322 332.245 174.64 331.849 178.323C331.454 182.001 328.264 184.727 324.634 184.248C296.796 181.077 269.117 183.832 242.394 192.457C241.744 192.666 241.081 192.768 240.437 192.768Z" fill="#B4B6BC"/>
<path d="M240.437 165.856C237.656 165.856 235.079 164.018 234.205 161.152C233.127 157.614 235.04 153.851 238.485 152.744C242.976 151.296 247.505 150.002 251.951 148.892C255.428 148.01 258.987 150.225 259.842 153.825C260.697 157.425 258.54 161.054 255.038 161.929C250.867 162.97 246.612 164.185 242.389 165.545C241.738 165.753 241.081 165.856 240.437 165.856Z" fill="#B4B6BC"/>
<path d="M351.492 162.115C350.982 162.115 350.458 162.053 349.942 161.925C327.111 156.215 303.699 154.678 280.351 157.335C276.766 157.787 273.532 155.091 273.137 151.41C272.741 147.728 275.325 144.409 278.909 144.004C303.769 141.16 328.718 142.811 353.029 148.887C356.537 149.765 358.687 153.395 357.832 156.995C357.105 160.06 354.432 162.115 351.492 162.115Z" fill="#B4B6BC"/>
<path d="M351.485 233.22C351.486 235.898 354.393 237.497 356.563 236.011L371.082 226.07L385.601 236.011C387.771 237.497 390.679 235.899 390.679 233.22V129.8C390.679 127.15 389.174 124.704 386.816 123.627C376.644 118.982 366.191 115.256 355.574 112.376C353.502 111.814 351.466 113.459 351.467 115.659L351.485 233.22Z" fill="#5D647F"/>
</svg>
