<svg width="1501" height="1135" viewBox="0 0 1501 1135" fill="none" xmlns="http://www.w3.org/2000/svg">
<path d="M181.221 299.354C180.897 299.539 180.571 299.724 180.252 299.916C180.519 299.963 180.792 300 181.057 300.051C181.104 299.817 181.168 299.587 181.221 299.354Z" fill="#DBD2CA"/>
<path d="M351 943.836C351 951.207 341.952 957 330.434 957H0V930.672H192.913L228.287 885.387C233.634 878.805 245.974 876.173 255.845 879.333C266.128 882.755 270.243 890.654 265.307 896.972L238.982 930.672H330.434C341.952 930.672 351 936.463 351 943.836Z" fill="#A66235"/>
<path d="M658.867 452.226C607.833 449.268 563.49 478.799 558.896 518.846C554.171 560.036 591.9 597.048 642.851 603.356C639.542 610.971 634.132 617.899 627.009 623.612C623.643 626.312 626.552 630.974 631.386 630.601C634.504 630.362 637.63 629.954 640.749 629.369C661.29 625.516 677.24 614.813 685.853 601.02C721.964 592.248 748.845 566.743 751.138 534.894C754.181 492.615 712.747 455.348 658.867 452.226Z" fill="#DBD2CA"/>
<path d="M658.867 452.226C652.49 451.856 646.218 451.994 640.115 452.596C640.249 452.605 640.382 452.606 640.517 452.616C685.11 455.937 719.85 493.346 717.878 535.602C716.391 567.434 694.491 592.833 664.745 601.469C657.8 615.227 644.75 625.868 627.813 629.644C627.73 629.663 627.646 629.678 627.562 629.695C628.563 630.344 629.882 630.718 631.386 630.601C634.504 630.362 637.63 629.954 640.749 629.369C661.29 625.516 677.24 614.813 685.853 601.02C721.964 592.248 748.845 566.743 751.138 534.894C754.181 492.615 712.747 455.348 658.867 452.226Z" fill="#F7EDE3"/>
<path d="M674 960C674 968.399 667.401 975 659 975H358C349.599 975 343 968.399 343 960C343 951.599 349.599 945 358 945H558.7L584.5 893.399C588.4 885.899 597.4 882.9 604.599 886.5C612.099 890.4 615.1 899.4 611.5 906.599L592.3 945H659C667.401 945 674 951.599 674 960Z" fill="#C27B48"/>
<path d="M674 960C674 968.399 667.401 975 659 975H418V945H558.7L584.5 893.399C588.4 885.899 597.4 882.9 604.599 886.5C612.099 890.4 615.1 899.4 611.5 906.599L592.3 945H659C667.401 945 674 951.599 674 960Z" fill="#A66235"/>
<path d="M478 764C469.709 764 463 757.291 463 749V689C463 680.709 469.709 674 478 674H538C546.291 674 553 680.709 553 689C553 730.353 519.353 764 478 764Z" fill="#3A95B6"/>
<path d="M493 585.199C493 585.199 478 595.999 463 606.8V689C463 697.399 469.599 704 478 704H568C576.401 704 583 697.399 583 689C583 636.2 543.7 592.399 493 585.199Z" fill="#2D7D9A"/>
<path d="M478 584H403C336.699 584 283 637.699 283 704V960C283 968.399 289.599 975 298 975H388C398.499 975 408.4 973.5 418 970.499C461.2 957.599 493 917.398 493 870V585.199C488.201 584.3 483.099 584 478 584Z" fill="#1193B0"/>
<path d="M493 585.199V870C493 917.399 461.2 957.599 418 970.499V584H478C483.099 584 488.201 584.3 493 585.199Z" fill="#6EC1D3"/>
<path d="M433 659C433 667.399 426.401 674 418 674C409.599 674 403 667.399 403 659C403 650.599 409.599 644 418 644C426.401 644 433 650.599 433 659Z" fill="#57555C"/>
<path d="M343 766.5C313.3 772.5 289.899 796.2 284.199 826.2C253.901 831.9 229.899 855.9 224.199 886.2C223.3 890.7 223 895.199 223 900C223 908.399 229.599 915 238 915H301.3C340.9 915 373 882.9 373 843.3V798.6C359.5 784.799 343 766.5 343 766.5Z" fill="#6EC1D3"/>
<path d="M298 1096C256.647 1096 223 1062.35 223 1021V961C223 952.709 229.709 946 238 946H298C306.291 946 313 952.709 313 961V1081C313 1089.29 306.291 1096 298 1096Z" fill="#0099BC"/>
<path d="M358 1066C316.647 1066 283 1032.35 283 991V961C283 952.709 289.709 946 298 946H358C366.291 946 373 952.709 373 961V1051C373 1059.29 366.291 1066 358 1066Z" fill="#6EC1D3"/>
<path d="M433 659C433 667.399 426.401 674 418 674V644C426.401 644 433 650.599 433 659Z" fill="#3C3A41"/>
<path d="M418 800.8C404.8 781.6 383.201 769 358 769C352.901 769 347.799 769.599 343 770.5V847.3C343 870.401 324.4 889 301.3 889H238C233.201 889 228.7 889.3 224.199 890.199C189.4 896.8 162 927.399 162 964C162 972.399 168.599 979 177 979H301.3C352 979 396.101 950.199 418 908.2C427.6 889.899 433 869.199 433 847.299C433 830.199 427.6 814 418 800.8Z" fill="#2D7D9A"/>
<path d="M695.138 515.961C698.385 533.66 693.019 566.158 654.51 587.119C611.068 581.194 594.514 552.718 591.267 535.019C588.029 517.375 595.821 500.113 611.187 497.294C619.856 495.742 628.803 497.487 636.318 502.197C637.37 502.841 638.375 503.561 639.324 504.353L639.408 504.206C644.673 495.581 653.277 489.616 663.122 487.765C678.488 484.945 691.9 498.316 695.138 515.961V515.961Z" fill="#FF5364"/>
<path d="M639.324 504.353L635.54 511.478C635.28 511.97 634.81 512.312 634.267 512.407C633.857 512.483 633.433 512.415 633.065 512.214C632.64 511.982 632.322 511.588 632.184 511.118C632.045 510.649 632.098 510.144 632.329 509.716L636.318 502.197C637.37 502.841 638.375 503.561 639.324 504.353V504.353Z" fill="#DF4D60"/>
<path d="M1316.84 297.674C1391.86 297.674 1452.67 236.858 1452.67 161.837C1452.67 86.8163 1391.86 26 1316.84 26C1241.82 26 1181 86.8163 1181 161.837C1181 236.858 1241.82 297.674 1316.84 297.674Z" fill="#3A95B6"/>
<path d="M488 264.761C488 289.684 463.619 309.892 433.567 309.892H253.566C253.566 309.892 188.12 313.789 188.12 274.821C188.12 273.883 188 272.932 188 271.972C188 250.936 208.559 233.876 233.939 233.876C237.866 233.876 241.661 234.285 245.297 235.057C249.212 214.065 271.102 197.998 297.521 197.998C302.487 197.998 307.268 198.584 311.821 199.632C318.879 177.393 348.665 158.642 383.712 162.508C418.185 166.306 443.459 195.492 438.692 219.686C438.679 219.73 438.679 219.785 438.665 219.83C450.636 220.746 461.475 224.888 469.93 231.17C481.023 239.441 488 251.421 488 264.761Z" fill="#F7EDE3"/>
<path d="M1319.11 1135H842.894C837.835 1135 836.115 1125.33 840.541 1121.84C882.871 1088.65 993.401 996.807 1058.43 895.26C1059.36 893.806 1060.65 893 1062.01 893H1099.99C1101.35 893 1102.64 893.806 1103.57 895.26C1168.6 996.807 1279.13 1088.65 1321.46 1121.84C1325.88 1125.33 1324.17 1135 1319.11 1135Z" fill="#00B7C3"/>
<path d="M1081 862C1015.47 962.724 938.356 1056 871.758 1104H842.894C837.835 1104 836.115 1094.33 840.541 1090.84C882.871 1057.65 993.401 965.807 1058.43 864.26C1059.36 862.806 1060.65 862 1062 862H1081Z" fill="#E9F6F8"/>
<path d="M1227 1039.34C1221.31 1053.01 1216.19 1068 1204.94 1068C1184.28 1068 1184.28 1017.47 1163.64 1017.47C1142.98 1017.47 1142.98 1068 1122.32 1068C1101.65 1068 1101.65 1017.47 1081.01 1017.47C1060.35 1017.47 1060.35 1068 1039.69 1068C1019.02 1068 1019.02 1017.47 998.378 1017.47C995.626 1017.47 993.241 1018.36 991.126 1019.94C988.998 1021.49 987.126 1023.73 985.438 1026.39C976.241 1040.9 972.193 1068 957.063 1068C954.067 1068 951.511 1066.93 949.261 1065.11C949.066 1064.96 948.87 1064.78 948.674 1064.59C942.791 1059.43 939.036 1049.02 935 1039.31C977.733 998.574 1024.27 948.236 1058.34 895.257C1059.27 893.822 1060.57 893 1061.93 893H1100.04C1101.39 893 1102.69 893.822 1103.62 895.257C1137.71 948.255 1184.26 998.61 1227 1039.34Z" fill="white" fill-opacity="0.85"/>
<path d="M1080.54 847C1039.3 910.359 993.481 970.79 948.578 1018.83C942.711 1013.67 938.966 1003.24 934.94 993.515C977.562 952.725 1023.98 902.315 1057.96 849.26C1058.89 847.823 1060.18 847 1061.54 847H1080.54Z" fill="#DBD2CA"/>
<path d="M1102.11 1135H625.894C620.835 1135 619.115 1125.33 623.541 1121.84C665.871 1088.65 776.401 996.807 841.432 895.26C842.359 893.806 843.652 893 845.005 893H882.995C884.348 893 885.64 893.806 886.567 895.26C951.599 996.807 1062.13 1088.65 1104.46 1121.84C1108.88 1125.33 1107.17 1135 1102.11 1135Z" fill="#00B7C3"/>
<path d="M864 893C798.47 993.724 721.356 1087 654.758 1135H625.894C620.835 1135 619.115 1125.33 623.541 1121.84C665.871 1088.65 776.401 996.807 841.432 895.26C842.358 893.806 843.651 893 845.005 893H864Z" fill="#6EC1D3"/>
<path d="M1010 1039.34C1004.31 1053.01 999.188 1068 987.937 1068C967.28 1068 967.28 1017.47 946.635 1017.47C925.979 1017.47 925.978 1068 905.321 1068C884.651 1068 884.651 1017.47 864.006 1017.47C843.35 1017.47 843.35 1068 822.692 1068C802.023 1068 802.023 1017.47 781.378 1017.47C778.626 1017.47 776.241 1018.36 774.126 1019.94C771.998 1021.49 770.126 1023.73 768.438 1026.39C759.241 1040.9 755.193 1068 740.063 1068C737.067 1068 734.511 1066.93 732.261 1065.11C732.066 1064.96 731.87 1064.78 731.674 1064.59C725.791 1059.43 722.036 1049.02 718 1039.31C760.733 998.574 807.269 948.236 841.342 895.257C842.272 893.822 843.569 893 844.926 893H883.036C884.394 893 885.69 893.822 886.62 895.257C920.707 948.255 967.255 998.61 1010 1039.34Z" fill="white" fill-opacity="0.85"/>
<path d="M863.541 878C822.298 941.359 776.481 1001.79 731.578 1049.83C725.711 1044.67 721.966 1034.24 717.94 1024.51C760.562 983.725 806.976 933.315 840.961 880.26C841.888 878.823 843.182 878 844.536 878H863.541Z" fill="#DBD2CA"/>
<path d="M1155 507.984C1155 532.233 1131.11 551.895 1101.66 551.895H925.255C925.255 551.895 861.117 555.68 861.117 517.772C861.117 516.857 861 515.935 861 515C861 494.533 881.148 477.933 906.02 477.933C909.869 477.933 913.588 478.331 917.151 479.083C920.987 458.659 942.44 443.026 968.33 443.026C973.197 443.026 977.883 443.595 982.345 444.615C989.261 422.977 1018.45 404.733 1052.8 408.494C1086.65 412.201 1111.44 440.695 1106.65 464.267C1133.77 466.34 1155 485.11 1155 507.984Z" fill="#F7EDE3"/>
<path d="M214.895 279.312C214.895 278.49 214.808 277.662 214.808 276.823C214.808 259.535 230.535 245.567 248.781 248.755C250.671 249.085 252.474 247.876 252.932 246.013C257.593 227.048 278.085 214.473 297.539 217.939C299.277 218.248 300.993 217.326 301.633 215.681C311.372 190.652 332.147 177.939 356.601 181.191C371.159 183.127 383.44 192.6 390.479 204.349C384.448 187.797 368.852 173.044 349.579 170.481C322.077 166.824 298.703 184.566 293.165 205.61C289.591 204.617 285.84 204.064 281.943 204.064C261.212 204.064 244.034 219.267 240.962 239.131C238.109 238.4 235.131 238.013 232.049 238.013C212.133 238.013 196 254.157 196 274.062C196 274.971 196.094 275.868 196.094 276.758C196.094 313.625 247.451 309.944 247.451 309.944H254.768C241.389 309.28 214.895 304.756 214.895 279.312Z" fill="#DBD2CA"/>
<path d="M879.895 517.312C879.895 516.49 879.808 515.662 879.808 514.823C879.808 497.535 895.535 483.567 913.781 486.755C915.671 487.085 917.474 485.876 917.932 484.013C922.593 465.048 943.085 452.473 962.539 455.939C964.277 456.248 965.993 455.326 966.633 453.681C976.372 428.652 997.147 415.939 1021.6 419.191C1036.16 421.127 1048.44 430.6 1055.48 442.349C1049.45 425.797 1033.85 411.044 1014.58 408.481C987.077 404.824 963.703 422.566 958.165 443.61C954.591 442.617 950.84 442.064 946.943 442.064C926.212 442.064 909.034 457.267 905.962 477.131C903.109 476.4 900.131 476.013 897.049 476.013C877.133 476.013 861 492.157 861 512.062C861 512.971 861.094 513.868 861.094 514.758C861.094 551.625 912.451 547.944 912.451 547.944H919.768C906.389 547.28 879.895 542.756 879.895 517.312Z" fill="#DBD2CA"/>
<path d="M921.88 450.498C921.621 450.694 921.361 450.889 921.106 451.092C921.319 451.142 921.537 451.181 921.749 451.235C921.787 450.988 921.838 450.744 921.88 450.498Z" fill="#DBD2CA"/>
<path d="M1496.11 1135H1019.89C1014.83 1135 1013.12 1120.78 1017.54 1115.65C1059.87 1066.82 1170.4 931.708 1235.43 782.324C1236.36 780.186 1237.65 779 1239.01 779H1276.99C1278.35 779 1279.64 780.186 1280.57 782.324C1345.6 931.708 1456.13 1066.82 1498.46 1115.65C1502.88 1120.78 1501.17 1135 1496.11 1135Z" fill="#00B7C3"/>
<path d="M1258 779C1192.47 927.173 1115.36 1064.39 1048.76 1135H1019.89C1014.83 1135 1013.12 1120.78 1017.54 1115.65C1059.87 1066.82 1170.4 931.708 1235.43 782.324C1236.36 780.186 1237.65 779 1239 779H1258Z" fill="#6EC1D3"/>
<path d="M1404 993.913C1398.31 1013.98 1393.19 1036 1381.94 1036C1361.28 1036 1361.28 961.792 1340.64 961.792C1319.98 961.792 1319.98 1036 1299.32 1036C1278.65 1036 1278.65 961.792 1258.01 961.792C1237.35 961.792 1237.35 1036 1216.69 1036C1196.02 1036 1196.02 961.792 1175.38 961.792C1172.63 961.792 1170.24 963.103 1168.13 965.414C1166 967.701 1164.13 970.989 1162.44 974.896C1153.24 996.197 1149.19 1036 1134.06 1036C1131.07 1036 1128.51 1034.43 1126.26 1031.76C1126.07 1031.53 1125.87 1031.27 1125.67 1030.99C1119.79 1023.41 1116.04 1008.12 1112 993.861C1154.73 934.043 1201.27 860.118 1235.34 782.315C1236.27 780.207 1237.57 779 1238.93 779H1277.04C1278.39 779 1279.69 780.207 1280.62 782.315C1314.71 860.145 1361.26 934.095 1404 993.913Z" fill="white" fill-opacity="0.85"/>
<path d="M1253.6 779C1212.36 872.189 1166.54 961.072 1121.64 1031.74C1115.77 1024.14 1112.03 1008.8 1108 994.497C1150.62 934.502 1197.04 860.358 1231.02 782.325C1231.95 780.211 1233.24 779 1234.6 779H1253.6Z" fill="#DBD2CA"/>
</svg>
