<svg width="1200" height="1200" viewBox="0 0 1200 1200" fill="none" xmlns="http://www.w3.org/2000/svg">
<g clip-path="url(#clip0)">
<rect width="1200" height="1200" fill="white" fill-opacity="0.85"/>
<path d="M239 1057.02C239 1065.42 232.401 1072.02 224 1072.02H-17V1042.02H123.7L149.5 990.418C153.4 982.918 162.4 979.919 169.599 983.519C177.099 987.419 180.1 996.419 176.5 1003.62L157.3 1042.02H224C232.401 1042.02 239 1048.62 239 1057.02Z" fill="#A66235"/>
<path d="M546.867 556.225C495.833 553.268 451.49 582.798 446.896 622.846C442.171 664.035 479.9 701.048 530.851 707.356C527.542 714.97 522.132 721.899 515.009 727.612C511.643 730.311 514.552 734.974 519.386 734.601C522.504 734.361 525.63 733.954 528.749 733.368C549.29 729.516 565.24 718.813 573.853 705.02C609.964 696.248 636.845 670.743 639.138 638.894C642.181 596.615 600.747 559.348 546.867 556.225Z" fill="#DBD2CA"/>
<path d="M546.867 556.225C540.49 555.856 534.218 555.994 528.115 556.595C528.249 556.605 528.382 556.605 528.517 556.616C573.11 559.936 607.85 597.346 605.878 639.602C604.391 671.434 582.491 696.833 552.745 705.469C545.8 719.227 532.75 729.868 515.813 733.644C515.73 733.662 515.646 733.678 515.562 733.695C516.563 734.344 517.882 734.718 519.386 734.601C522.504 734.361 525.63 733.954 528.749 733.368C549.29 729.516 565.24 718.813 573.853 705.02C609.964 696.248 636.845 670.743 639.138 638.894C642.181 596.615 600.747 559.348 546.867 556.225Z" fill="#F7EDE3"/>
<path d="M562 1064C562 1072.4 555.401 1079 547 1079H246C237.599 1079 231 1072.4 231 1064C231 1055.6 237.599 1049 246 1049H446.7L472.5 997.399C476.4 989.899 485.4 986.9 492.599 990.5C500.099 994.4 503.1 1003.4 499.5 1010.6L480.3 1049H547C555.401 1049 562 1055.6 562 1064Z" fill="#C27B48"/>
<path d="M562 1064C562 1072.4 555.401 1079 547 1079H306V1049H446.7L472.5 997.399C476.4 989.899 485.4 986.9 492.599 990.5C500.099 994.4 503.1 1003.4 499.5 1010.6L480.3 1049H547C555.401 1049 562 1055.6 562 1064Z" fill="#A66235"/>
<path d="M366 868C357.709 868 351 861.291 351 853V793C351 784.709 357.709 778 366 778H426C434.291 778 441 784.709 441 793C441 834.353 407.353 868 366 868Z" fill="#3A95B6"/>
<path d="M381 689.199C381 689.199 366 699.999 351 710.8V793C351 801.399 357.599 808 366 808H456C464.401 808 471 801.399 471 793C471 740.2 431.7 696.399 381 689.199Z" fill="#2D7D9A"/>
<path d="M366 688H291C224.699 688 171 741.699 171 808V1064C171 1072.4 177.599 1079 186 1079H276C286.499 1079 296.4 1077.5 306 1074.5C349.2 1061.6 381 1021.4 381 974V689.199C376.201 688.3 371.099 688 366 688Z" fill="#1193B0"/>
<path d="M381 689.199V974C381 1021.4 349.2 1061.6 306 1074.5V688H366C371.099 688 376.201 688.3 381 689.199Z" fill="#6EC1D3"/>
<path d="M321 763C321 771.399 314.401 778 306 778C297.599 778 291 771.399 291 763C291 754.599 297.599 748 306 748C314.401 748 321 754.599 321 763Z" fill="#57555C"/>
<path d="M231 870.5C201.3 876.5 177.899 900.2 172.199 930.2C141.901 935.9 117.899 959.9 112.199 990.2C111.3 994.7 111 999.199 111 1004C111 1012.4 117.599 1019 126 1019H189.3C228.9 1019 261 986.9 261 947.3V902.6C247.5 888.799 231 870.5 231 870.5Z" fill="#6EC1D3"/>
<path d="M186 1200C144.647 1200 111 1166.35 111 1125V1065C111 1056.71 117.709 1050 126 1050H186C194.291 1050 201 1056.71 201 1065V1185C201 1193.29 194.291 1200 186 1200Z" fill="#0099BC"/>
<path d="M246 1170C204.647 1170 171 1136.35 171 1095V1065C171 1056.71 177.709 1050 186 1050H246C254.291 1050 261 1056.71 261 1065V1155C261 1163.29 254.291 1170 246 1170Z" fill="#6EC1D3"/>
<path d="M321 763C321 771.399 314.401 778 306 778V748C314.401 748 321 754.599 321 763Z" fill="#3C3A41"/>
<path d="M306 904.8C292.8 885.6 271.201 873 246 873C240.901 873 235.799 873.599 231 874.5V951.3C231 974.401 212.4 993 189.3 993H126C121.201 993 116.7 993.3 112.199 994.199C77.4 1000.8 50 1031.4 50 1068C50 1076.4 56.599 1083 65 1083H189.3C240 1083 284.101 1054.2 306 1012.2C315.6 993.899 321 973.199 321 951.299C321 934.199 315.6 918 306 904.8Z" fill="#2D7D9A"/>
<path d="M583.138 619.961C586.385 637.66 581.019 670.158 542.51 691.119C499.068 685.194 482.514 656.718 479.267 639.019C476.029 621.375 483.821 604.113 499.187 601.294C507.856 599.742 516.803 601.487 524.318 606.197C525.37 606.841 526.375 607.561 527.324 608.353L527.408 608.206C532.673 599.581 541.277 593.616 551.122 591.765C566.488 588.945 579.9 602.316 583.138 619.961Z" fill="#FF5364"/>
<path d="M527.324 608.353L523.541 615.478C523.28 615.97 522.811 616.312 522.267 616.407C521.857 616.483 521.434 616.415 521.065 616.214C520.64 615.982 520.322 615.588 520.184 615.118C520.045 614.649 520.098 614.144 520.33 613.716L524.318 606.197C525.37 606.841 526.375 607.561 527.324 608.353Z" fill="#DF4D60"/>
<path d="M1009.84 401.674C1084.86 401.674 1145.67 340.858 1145.67 265.837C1145.67 190.816 1084.86 130 1009.84 130C934.816 130 874 190.816 874 265.837C874 340.858 934.816 401.674 1009.84 401.674Z" fill="#3A95B6"/>
<path d="M376 368.761C376 393.684 351.619 413.892 321.567 413.892H141.566C141.566 413.892 76.1198 417.789 76.1198 378.821C76.1198 377.883 76 376.932 76 375.972C76 354.936 96.5589 337.876 121.939 337.876C125.866 337.876 129.661 338.285 133.297 339.057C137.212 318.065 159.102 301.998 185.521 301.998C190.487 301.998 195.268 302.584 199.821 303.632C206.879 281.393 236.665 262.642 271.712 266.508C306.185 270.306 331.459 299.492 326.692 323.686C326.679 323.73 326.679 323.785 326.665 323.83C338.636 324.746 349.475 328.888 357.93 335.17C369.023 343.441 376 355.421 376 368.761Z" fill="#F7EDE3"/>
<path d="M1207.11 1208H730.894C725.835 1208 724.115 1198.33 728.541 1194.84C770.871 1161.65 881.401 1069.81 946.432 968.26C947.359 966.806 948.652 966 950.005 966H987.995C989.348 966 990.64 966.806 991.567 968.26C1056.6 1069.81 1167.13 1161.65 1209.46 1194.84C1213.88 1198.33 1212.17 1208 1207.11 1208Z" fill="#00B7C3"/>
<path d="M969 966C903.47 1066.72 826.356 1160 759.758 1208H730.894C725.835 1208 724.115 1198.33 728.541 1194.84C770.871 1161.65 881.401 1069.81 946.432 968.26C947.358 966.806 948.651 966 950.005 966H969Z" fill="#5F95D4"/>
<path d="M1115 1112.34C1109.31 1126.01 1104.19 1141 1092.94 1141C1072.28 1141 1072.28 1090.47 1051.64 1090.47C1030.98 1090.47 1030.98 1141 1010.32 1141C989.651 1141 989.651 1090.47 969.006 1090.47C948.35 1090.47 948.35 1141 927.692 1141C907.023 1141 907.023 1090.47 886.378 1090.47C883.626 1090.47 881.241 1091.36 879.126 1092.94C876.998 1094.49 875.126 1096.73 873.438 1099.39C864.241 1113.9 860.193 1141 845.063 1141C842.067 1141 839.511 1139.93 837.261 1138.11C837.066 1137.96 836.87 1137.78 836.674 1137.59C830.791 1132.43 827.036 1122.02 823 1112.31C865.733 1071.57 912.269 1021.24 946.342 968.257C947.272 966.822 948.569 966 949.926 966H988.036C989.394 966 990.69 966.822 991.62 968.257C1025.71 1021.25 1072.26 1071.61 1115 1112.34Z" fill="white" fill-opacity="0.85"/>
<path d="M968.541 951C927.298 1014.36 881.481 1074.79 836.578 1122.83C830.711 1117.67 826.966 1107.24 822.94 1097.51C865.562 1056.73 911.976 1006.31 945.961 953.26C946.888 951.823 948.182 951 949.536 951H968.541Z" fill="#DBD2CA"/>
<path d="M990.107 1239H513.894C508.835 1239 507.115 1229.33 511.541 1225.84C553.871 1192.65 664.401 1100.81 729.432 999.26C730.359 997.806 731.652 997 733.005 997H770.995C772.348 997 773.64 997.806 774.567 999.26C839.599 1100.81 950.129 1192.65 992.459 1225.84C996.884 1229.33 995.166 1239 990.107 1239Z" fill="#00B7C3"/>
<path d="M752 997C686.47 1097.72 609.356 1191 542.758 1239H513.894C508.835 1239 507.115 1229.33 511.541 1225.84C553.871 1192.65 664.401 1100.81 729.432 999.26C730.358 997.806 731.651 997 733.005 997H752Z" fill="#6EC1D3"/>
<path d="M898 1143.34C892.313 1157.01 887.188 1172 875.937 1172C855.28 1172 855.28 1121.47 834.635 1121.47C813.979 1121.47 813.978 1172 793.321 1172C772.651 1172 772.651 1121.47 752.006 1121.47C731.35 1121.47 731.35 1172 710.692 1172C690.023 1172 690.023 1121.47 669.378 1121.47C666.626 1121.47 664.241 1122.36 662.126 1123.94C659.998 1125.49 658.126 1127.73 656.438 1130.39C647.241 1144.9 643.193 1172 628.063 1172C625.067 1172 622.511 1170.93 620.261 1169.11C620.066 1168.96 619.87 1168.78 619.674 1168.59C613.791 1163.43 610.036 1153.02 606 1143.31C648.733 1102.57 695.269 1052.24 729.342 999.257C730.272 997.822 731.569 997 732.926 997H771.036C772.394 997 773.69 997.822 774.62 999.257C808.707 1052.25 855.255 1102.61 898 1143.34Z" fill="white" fill-opacity="0.85"/>
<path d="M751.541 982C710.298 1045.36 664.481 1105.79 619.578 1153.83C613.711 1148.67 609.966 1138.24 605.94 1128.51C648.562 1087.73 694.976 1037.31 728.961 984.26C729.888 982.823 731.182 982 732.536 982H751.541Z" fill="#DBD2CA"/>
<path d="M1043 611.984C1043 636.233 1019.11 655.895 989.655 655.895H813.255C813.255 655.895 749.117 659.68 749.117 621.772C749.117 620.857 749 619.935 749 619C749 598.533 769.148 581.933 794.02 581.933C797.869 581.933 801.588 582.331 805.151 583.083C808.987 562.659 830.44 547.026 856.33 547.026C861.197 547.026 865.883 547.595 870.345 548.615C877.261 526.977 906.452 508.733 940.798 512.494C974.648 516.201 999.441 544.695 994.652 568.267C1021.77 570.34 1043 589.11 1043 611.984Z" fill="#F7EDE3"/>
<path d="M102.895 383.312C102.895 382.49 102.808 381.662 102.808 380.823C102.808 363.535 118.535 349.567 136.781 352.755C138.671 353.085 140.474 351.876 140.932 350.013C145.593 331.048 166.085 318.473 185.539 321.939C187.277 322.248 188.993 321.326 189.633 319.681C199.372 294.652 220.147 281.939 244.601 285.191C259.159 287.127 271.44 296.6 278.479 308.349C272.448 291.797 256.852 277.044 237.579 274.481C210.077 270.824 186.703 288.566 181.165 309.61C177.591 308.617 173.84 308.064 169.943 308.064C149.212 308.064 132.034 323.267 128.962 343.131C126.109 342.4 123.131 342.013 120.049 342.013C100.133 342.013 84 358.157 84 378.062C84 378.971 84.094 379.868 84.094 380.758C84.094 417.625 135.451 413.944 135.451 413.944H142.768C129.389 413.28 102.895 408.756 102.895 383.312Z" fill="#DBD2CA"/>
<path d="M144.88 316.498C144.621 316.694 144.361 316.889 144.106 317.092C144.319 317.142 144.537 317.181 144.749 317.235C144.787 316.988 144.838 316.744 144.88 316.498Z" fill="#DBD2CA"/>
<path d="M767.895 621.312C767.895 620.49 767.808 619.662 767.808 618.823C767.808 601.535 783.535 587.567 801.781 590.755C803.671 591.085 805.474 589.876 805.932 588.013C810.593 569.048 831.085 556.473 850.539 559.939C852.277 560.248 853.993 559.326 854.633 557.681C864.372 532.652 885.147 519.939 909.601 523.191C924.159 525.127 936.44 534.6 943.479 546.349C937.448 529.797 921.852 515.044 902.579 512.481C875.077 508.824 851.703 526.566 846.165 547.61C842.591 546.617 838.84 546.064 834.943 546.064C814.212 546.064 797.034 561.267 793.962 581.131C791.109 580.4 788.131 580.013 785.049 580.013C765.133 580.013 749 596.157 749 616.062C749 616.971 749.094 617.868 749.094 618.758C749.094 655.625 800.451 651.944 800.451 651.944H807.768C794.389 651.28 767.895 646.756 767.895 621.312Z" fill="#DBD2CA"/>
<path d="M809.88 554.498C809.621 554.694 809.361 554.889 809.106 555.092C809.319 555.142 809.537 555.181 809.749 555.235C809.787 554.988 809.838 554.744 809.88 554.498Z" fill="#DBD2CA"/>
<path d="M1384.11 1208H907.894C902.835 1208 901.115 1193.78 905.541 1188.65C947.871 1139.82 1058.4 1004.71 1123.43 855.324C1124.36 853.186 1125.65 852 1127.01 852H1164.99C1166.35 852 1167.64 853.186 1168.57 855.324C1233.6 1004.71 1344.13 1139.82 1386.46 1188.65C1390.88 1193.78 1389.17 1208 1384.11 1208Z" fill="#00B7C3"/>
<path d="M1146 852C1080.47 1000.17 1003.36 1137.39 936.758 1208H907.894C902.835 1208 901.115 1193.78 905.541 1188.65C947.871 1139.82 1058.4 1004.71 1123.43 855.324C1124.36 853.186 1125.65 852 1127 852H1146Z" fill="#6EC1D3"/>
<path d="M1292 1066.91C1286.31 1086.98 1281.19 1109 1269.94 1109C1249.28 1109 1249.28 1034.79 1228.64 1034.79C1207.98 1034.79 1207.98 1109 1187.32 1109C1166.65 1109 1166.65 1034.79 1146.01 1034.79C1125.35 1034.79 1125.35 1109 1104.69 1109C1084.02 1109 1084.02 1034.79 1063.38 1034.79C1060.63 1034.79 1058.24 1036.1 1056.13 1038.41C1054 1040.7 1052.13 1043.99 1050.44 1047.9C1041.24 1069.2 1037.19 1109 1022.06 1109C1019.07 1109 1016.51 1107.43 1014.26 1104.76C1014.07 1104.53 1013.87 1104.27 1013.67 1103.99C1007.79 1096.41 1004.04 1081.12 1000 1066.86C1042.73 1007.04 1089.27 933.118 1123.34 855.315C1124.27 853.207 1125.57 852 1126.93 852H1165.04C1166.39 852 1167.69 853.207 1168.62 855.315C1202.71 933.145 1249.26 1007.1 1292 1066.91Z" fill="white" fill-opacity="0.85"/>
<path d="M1141.6 852C1100.36 945.189 1054.54 1034.07 1009.64 1104.74C1003.77 1097.14 1000.03 1081.8 996 1067.5C1038.62 1007.5 1085.04 933.358 1119.02 855.325C1119.95 853.211 1121.24 852 1122.6 852H1141.6Z" fill="#DBD2CA"/>
</g>
<defs>
<clipPath id="clip0">
<rect width="1200" height="1200" fill="white"/>
</clipPath>
</defs>
</svg>
