<svg width="780" height="520" viewBox="0 0 780 520" fill="none" xmlns="http://www.w3.org/2000/svg">
<rect width="780" height="520" fill="#3BA4CA"/>
<path d="M516.261 305.901C513.861 305.813 511.165 305.484 508.739 305.11C506.127 304.708 505.647 302.405 507.992 301.547C540.151 289.786 557.705 271.512 565.561 261.187C566.931 259.387 563.712 257.614 561.211 258.771C558.994 259.797 556.913 260.601 554.99 261.23C551.939 262.229 549.156 259.621 551.657 258.097C571.019 246.298 589.217 222.506 597.415 210.863C598.556 209.242 596.028 207.545 593.564 208.291C590.519 209.213 587.261 209.816 584.277 210.211C581.352 210.597 579.539 208.151 581.799 206.869C606.977 192.586 615.96 169.453 618.975 158C619.427 156.285 616.572 155.141 614.368 156.101C610.646 157.721 606.188 158.251 602.63 158.371C600.092 158.457 598.624 156.496 600.249 155.208C630.399 131.318 618.09 111.854 614.222 107.038C613.639 106.312 612.46 105.911 611.225 106.017C603.027 106.719 571.806 111.347 559.642 141.368C558.986 142.986 555.708 143.33 554.348 141.915C552.442 139.932 550.522 137.228 550.377 134.29C550.293 132.55 547.226 131.676 545.363 132.909C532.92 141.149 509.461 159.348 506.322 181.142C506.039 183.099 501.962 183.537 500.751 181.741C499.515 179.908 498.379 177.808 497.761 175.637C497.261 173.881 493.699 173.502 492.351 175.052C482.669 186.189 463.717 209.725 460.293 226.956C459.85 229.182 455.014 229.192 454.487 226.974C454.155 225.576 453.948 223.992 453.937 222.207C453.925 220.193 449.868 219.486 448.43 221.263C440.184 231.455 427.696 251.455 431.713 275.546C432.006 277.303 428.876 278.376 426.868 277.204C425.004 276.116 423.039 274.854 421.542 273.615C420.117 272.436 417.281 272.819 416.516 274.239C413.588 279.674 410.263 290.891 419.311 306.677C420.211 308.246 417.828 309.818 415.487 309.157C415.411 309.136 415.337 309.114 415.261 309.091C412.924 308.404 410.404 309.737 411.126 311.355C414.442 318.788 419.725 329.002 427.523 339.873C428.091 340.665 429.434 341.123 430.744 340.971C448.716 338.882 464.418 335.821 475.541 333.309C477.961 332.763 478.156 330.637 475.954 329.777C475.883 329.749 475.813 329.721 475.743 329.693C473.572 328.816 474.141 326.626 476.605 326.203C501.385 321.947 513.355 313.677 518.394 308.962C519.709 307.732 518.545 305.986 516.261 305.901Z" fill="#2D7D9A"/>
<path d="M593 136C593 136 439.95 289.664 392 403L403.278 392.516C403.277 392.516 535.224 201.054 593 136Z" fill="#D5D6DB"/>
<path d="M382.491 404.552C319.883 405.418 303.229 396.165 298.904 390.601C292.561 382.44 303.807 372.449 304.102 372.185C306.648 369.739 314.393 362.298 307.739 357.006C304.087 354.092 294.374 346.347 201.783 372.929C194.369 375.05 186.764 375.617 179.823 374.567C178.493 374.367 174.127 373.614 173.773 372.354C171.999 366.039 203.326 347.423 233.857 333.885L225.606 331.578C222.055 330.585 218.008 330.885 214.884 332.375C192.885 342.87 157.818 361.727 161.232 373.878C162.099 376.971 165.533 381.024 176.964 382.748C186.61 384.21 196.945 383.473 206.887 380.62C263.651 364.325 291.66 360.76 297.55 362.292C297.386 362.928 296.683 364.462 293.768 367.27C293.105 367.842 277.573 381.49 287.504 394.369C297.047 406.74 326.422 413 374.888 413C377.454 413 380.075 412.98 382.751 412.947C386.269 412.901 389.069 410.983 388.999 408.665C388.929 406.346 386.183 404.48 382.491 404.552Z" fill="#405E76"/>
</svg>
