<svg width="780" height="520" viewBox="0 0 780 520" fill="none" xmlns="http://www.w3.org/2000/svg">
<rect width="780" height="520" fill="#3BA4CA"/>
<path d="M520.667 321.333H272.4C265.181 321.333 259.333 315.844 259.333 309.067V272.267C259.333 265.489 265.181 260 272.4 260H520.667V321.333Z" fill="#3C739C"/>
<path d="M481.467 382.667H233.2C225.981 382.667 220.133 377.177 220.133 370.4V333.6C220.133 326.823 225.981 321.333 233.2 321.333H481.467V382.667Z" fill="#4484B2"/>
<path d="M520.667 444H272.4C265.181 444 259.333 438.511 259.333 431.733V394.933C259.333 388.156 265.181 382.667 272.4 382.667H520.667V444Z" fill="#2E7D99"/>
<path d="M586 100.533C586 114.082 574.299 125.067 559.867 125.067C545.435 125.067 533.733 114.082 533.733 100.533C533.733 86.9849 545.435 76 559.867 76C574.299 76 586 86.9849 586 100.533Z" fill="#2D7D9A"/>
<path d="M246.267 100.533C246.267 114.082 234.565 125.067 220.133 125.067C205.701 125.067 194 114.082 194 100.533C194 86.9849 205.701 76 220.133 76C234.565 76 246.267 86.9849 246.267 100.533Z" fill="#2D7D9A"/>
<path d="M527.2 149.6C527.2 156.374 521.349 161.867 514.133 161.867C506.917 161.867 501.067 156.374 501.067 149.6C501.067 142.826 506.917 137.333 514.133 137.333C521.349 137.333 527.2 142.826 527.2 149.6Z" fill="#3288C7"/>
<path d="M278.933 149.6C278.933 156.374 273.083 161.867 265.867 161.867C258.651 161.867 252.8 156.374 252.8 149.6C252.8 142.826 258.651 137.333 265.867 137.333C273.083 137.333 278.933 142.826 278.933 149.6Z" fill="#3288C7"/>
<path d="M455.333 137.333L481.467 76L409.6 94.4H370.4L298.533 76L324.667 137.333" fill="#4482C3"/>
<path d="M409.6 94.4H350.8L300.932 81.6302L324.667 137.333H435.733L459.468 81.6302L409.6 94.4Z" fill="#285680"/>
<path d="M461.867 192.533C461.867 229.795 429.691 260 390 260C350.309 260 318.133 229.795 318.133 192.533C318.133 155.272 350.309 125.067 390 125.067C429.691 125.067 461.867 155.272 461.867 192.533Z" fill="#285680"/>
<path d="M442.267 192.533C442.267 155.658 414.478 125.764 380.2 125.764C345.922 125.764 318.133 155.658 318.133 192.533C318.133 229.408 345.922 259.302 380.2 259.302C414.478 259.302 442.267 229.408 442.267 192.533Z" fill="#4482C3"/>
<path d="M376.933 137.333C376.933 150.882 365.232 161.867 350.8 161.867C336.368 161.867 324.667 150.882 324.667 137.333C324.667 123.785 336.368 112.8 350.8 112.8C365.232 112.8 376.933 123.785 376.933 137.333Z" fill="#D9D7D8"/>
<path d="M455.333 137.333C455.333 150.882 443.632 161.867 429.2 161.867C414.768 161.867 403.067 150.882 403.067 137.333C403.067 123.785 414.768 112.8 429.2 112.8C443.632 112.8 455.333 123.785 455.333 137.333Z" fill="#D9D7D8"/>
<path d="M429.2 223.2C429.2 243.523 411.648 260 390 260C368.352 260 350.8 243.523 350.8 223.2C350.8 202.877 368.352 186.4 390 186.4C411.648 186.4 429.2 202.877 429.2 223.2Z" fill="#89D5E6"/>
<path d="M409.6 186.4C409.6 176.236 400.827 168 390 168C379.173 168 370.4 176.236 370.4 186.4L390 217.067L409.6 186.4Z" fill="#4958A7"/>
<path d="M292 382.667H305.067V444H292V382.667Z" fill="#529EBD"/>
<path d="M298.533 401.067H461.867V413.333H298.533V401.067Z" fill="#5EA9C9"/>
<path d="M474.933 413.333H520.667V425.6H474.933V413.333Z" fill="#5EA9C9"/>
<path d="M292 260H305.067V321.333H292V260Z" fill="#407AAF"/>
<path d="M298.533 278.4H461.867V290.667H298.533V278.4Z" fill="#4482C3"/>
<path d="M474.933 290.667H520.667V302.933H474.933V290.667Z" fill="#4482C3"/>
<path d="M252.8 321.333H265.867V382.667H252.8V321.333Z" fill="#2A4F75"/>
<path d="M259.333 339.733H422.667V352H259.333V339.733Z" fill="#2A4F75"/>
<path d="M435.733 352H481.467V364.267H435.733V352Z" fill="#2A4F75"/>
<path d="M347.533 143.467C342.129 143.467 337.733 139.34 337.733 134.267C337.733 129.193 342.129 125.067 347.533 125.067C352.937 125.067 357.333 129.193 357.333 134.267C357.333 139.34 352.937 143.467 347.533 143.467ZM347.533 131.2C345.737 131.2 344.267 132.575 344.267 134.267C344.267 135.959 345.737 137.333 347.533 137.333C349.329 137.333 350.8 135.959 350.8 134.267C350.8 132.575 349.329 131.2 347.533 131.2Z" fill="#666666"/>
<path d="M425.933 143.467C420.529 143.467 416.133 139.34 416.133 134.267C416.133 129.193 420.529 125.067 425.933 125.067C431.337 125.067 435.733 129.193 435.733 134.267C435.733 139.34 431.337 143.467 425.933 143.467ZM425.933 131.2C424.137 131.2 422.667 132.575 422.667 134.267C422.667 135.959 424.137 137.333 425.933 137.333C427.729 137.333 429.2 135.959 429.2 134.267C429.2 132.575 427.729 131.2 425.933 131.2Z" fill="#666666"/>
</svg>
