<svg width="780" height="520" viewBox="0 0 780 520" fill="none" xmlns="http://www.w3.org/2000/svg">
<rect width="780" height="520" fill="#3BA4CA"/>
<path d="M396.054 203.413C434.396 203.413 465.479 172.204 465.479 133.706C465.479 95.2086 434.396 64 396.054 64C357.712 64 326.629 95.2086 326.629 133.706C326.629 172.204 357.712 203.413 396.054 203.413Z" fill="#A698A6"/>
<path d="M396.05 64C388.896 64 381.998 65.088 375.504 67.1055C403.818 75.9005 424.387 102.391 424.387 133.706C424.387 165.022 403.818 191.512 375.504 200.307C381.998 202.324 388.897 203.413 396.05 203.413C434.395 203.413 465.479 172.204 465.479 133.706C465.478 95.2084 434.394 64 396.05 64V64Z" fill="#1A4063"/>
<path d="M396.054 226.248C503.72 226.248 591 197.46 591 161.95C591 126.439 503.72 97.6514 396.054 97.6514C288.388 97.6514 201.108 126.439 201.108 161.95C201.108 197.46 288.388 226.248 396.054 226.248Z" fill="#1A4063"/>
<path d="M555.226 125.294C555.919 127.489 556.279 129.716 556.279 131.972C556.279 167.316 469.012 195.968 361.362 195.968C295.645 195.968 237.528 185.29 202.219 168.93C212.391 201.135 295.303 226.248 396.083 226.248C503.733 226.248 591 197.595 591 162.251C591 148.484 577.756 135.732 555.226 125.294Z" fill="#285680"/>
<path d="M497.073 200.363C487.364 196.61 475.241 203.996 467.98 217.259C464.959 160.068 450.009 98.7033 395.266 98.8535C339.53 99.0069 324.556 161.843 321.361 219.648C314.56 204.31 301.373 195.264 290.862 199.203C279.691 203.389 272.707 221.802 279.045 238.913C285.384 256.023 309.241 264.37 320.412 260.184C320.682 260.083 320.936 259.968 321.19 259.854C326.163 322.149 362.648 406.608 393.79 406.523C424.808 406.438 461.992 323.448 467.836 261.353C479.317 264.883 502.142 256.775 508.479 240.195C514.994 223.15 508.2 204.665 497.073 200.363V200.363Z" fill="#FFCBBE"/>
<path d="M497.084 200.577C487.385 196.828 475.273 204.205 468.017 217.454C465.78 175.145 457.003 130.123 430.385 109.67C447.87 140.242 451.349 187.199 451.15 225.589C450.827 288.236 409.982 385.685 376.378 385.777C370.999 385.792 365.461 383.272 359.953 378.79C370.813 395.651 382.694 406.553 393.886 406.523C424.879 406.438 462.032 323.534 467.871 261.503C479.343 265.03 502.149 256.93 508.481 240.367C514.991 223.341 508.203 204.875 497.084 200.577V200.577Z" fill="#FDAD9D"/>
<path d="M366.043 231.251C366.074 224.897 360.972 219.72 354.646 219.688C348.32 219.657 343.166 224.782 343.134 231.136C343.103 237.49 348.205 242.667 354.531 242.699C360.857 242.73 366.011 237.605 366.043 231.251Z" fill="#845151"/>
<path d="M446.599 231.669C446.63 225.315 441.528 220.138 435.202 220.107C428.876 220.075 423.722 225.2 423.69 231.554C423.658 237.908 428.761 243.085 435.087 243.117C441.413 243.148 446.567 238.023 446.599 231.669Z" fill="#845151"/>
<path d="M329.372 208.22C327.694 208.22 326.026 207.537 324.826 206.197C322.6 203.713 322.831 199.914 325.341 197.711C331.654 192.169 341.436 188.991 352.177 188.991C362.919 188.991 372.7 192.169 379.014 197.711C381.524 199.913 381.754 203.712 379.528 206.197C377.302 208.681 373.465 208.91 370.955 206.706C366.955 203.195 359.76 201.014 352.177 201.014C344.595 201.014 337.4 203.195 333.4 206.706C332.244 207.721 330.805 208.22 329.372 208.22V208.22Z" fill="#AD6B6B"/>
<path d="M461.626 208.22C460.193 208.22 458.755 207.722 457.598 206.706C453.597 203.195 446.402 201.014 438.821 201.014C431.239 201.014 424.044 203.195 420.043 206.706C417.533 208.91 413.695 208.68 411.469 206.198C409.243 203.713 409.473 199.914 411.982 197.711C418.297 192.169 428.078 188.991 438.82 188.991C449.562 188.991 459.343 192.169 465.657 197.711C468.167 199.913 468.397 203.713 466.171 206.198C464.972 207.537 463.303 208.22 461.626 208.22V208.22Z" fill="#AD6B6B"/>
<path d="M414.382 293.326L394.943 273.119L375.504 293.326C375.504 293.326 376.969 304.367 394.943 304.367C412.917 304.367 414.382 293.326 414.382 293.326Z" fill="#FA6931"/>
<path d="M406.597 285.138C405.418 288.203 401.314 294.648 387.612 294.648C382.641 294.648 378.938 293.797 376.175 292.569L375.504 293.27C375.504 293.27 376.969 304.367 394.943 304.367C412.917 304.367 414.382 293.27 414.382 293.27L406.597 285.138Z" fill="#FC5327"/>
<path d="M525.905 258.293C524.436 259.992 522.892 261.646 521.27 263.251C486.62 297.532 430.961 297.007 396.953 262.078C396.935 262.059 396.918 262.041 396.9 262.023C396.327 261.433 395.607 261.247 394.943 261.349C394.278 261.247 393.558 261.432 392.986 262.023C392.968 262.041 392.95 262.059 392.932 262.078C358.925 297.007 303.267 297.532 268.616 263.251C266.994 261.646 265.449 259.992 263.98 258.293C262.493 256.575 259.683 257.842 260.006 260.1C262.201 275.403 269.409 290.104 281.633 301.491C308.09 326.135 349.387 326.168 375.847 301.527C379.377 298.24 382.488 294.681 385.182 290.915C389.959 284.234 399.928 284.234 404.705 290.915C407.398 294.681 410.509 298.24 414.039 301.527C440.5 326.168 481.796 326.135 508.254 301.491C520.478 290.104 527.686 275.403 529.88 260.1C530.203 257.843 527.392 256.575 525.905 258.293V258.293Z" fill="#AD6B6B"/>
<path d="M525.957 258.276C524.474 259.993 522.913 261.666 521.273 263.289C516.122 268.386 510.497 272.694 504.557 276.253C500.941 282.741 496.235 288.774 490.409 294.06C471.756 310.981 446.008 315.828 423.269 308.735C449.104 325.651 483.998 323.534 507.566 302.154C520.208 290.686 527.644 275.725 529.88 260.14C530.203 257.89 527.438 256.562 525.957 258.276V258.276Z" fill="#995E5E"/>
<path d="M396.054 129.394C487.206 129.394 563.738 150.142 585.073 178.174C588.938 173.096 591 167.779 591 162.303C591 126.597 503.72 97.6514 396.054 97.6514C288.389 97.6514 201.108 126.596 201.108 162.302C201.108 167.779 203.17 173.096 207.035 178.174C228.371 150.142 304.902 129.394 396.054 129.394V129.394Z" fill="#C8C1C9"/>
<path d="M395.392 97.6514C390.571 97.6514 385.792 97.7114 381.058 97.8252C480.392 100.203 559.151 127.096 562.228 160.288C572.395 165.765 580.17 171.779 585.053 178.174C588.931 173.096 591 167.779 591 162.303C591 126.596 503.424 97.6514 395.392 97.6514Z" fill="#A698A6"/>
<path d="M264.423 448.687C264.423 453.478 259.097 456.289 255.131 453.618C248.868 449.4 239.5 445.139 227.212 445.139C212.372 445.139 201.792 451.352 195.796 456.2C193.463 458.086 190 456.427 190 453.422V394.493C190 392.775 190.666 391.127 191.865 389.899C196.241 385.422 208.248 375.275 227.212 375.275C251.543 375.275 264.424 391.979 264.424 391.979V448.687H264.423Z" fill="#EEDFDA"/>
<path d="M338.846 453.422C338.846 456.426 335.383 458.086 333.051 456.201C327.054 451.353 316.475 445.139 301.635 445.139C289.346 445.139 279.979 449.4 273.716 453.618C269.75 456.289 264.424 453.478 264.424 448.687V391.979C264.424 391.979 277.305 375.275 301.636 375.275C320.6 375.275 332.607 385.422 336.982 389.899C338.182 391.127 338.848 392.775 338.848 394.493V453.422H338.846Z" fill="#EEDFDA"/>
<path d="M324.764 381.284V425.179C324.764 429.307 320.754 432.259 316.81 431.014C312.392 429.62 307.329 428.709 301.637 428.709C277.305 428.709 264.424 445.33 264.424 445.33V448.729C264.424 453.496 269.75 456.293 273.716 453.635C279.979 449.438 289.347 445.198 301.636 445.198C316.476 445.198 327.056 451.38 333.052 456.205C335.384 458.08 338.848 456.429 338.848 453.44V394.806C338.848 393.08 338.162 391.431 336.949 390.201C334.752 387.972 330.661 384.352 324.764 381.284V381.284Z" fill="#DED0CB"/>
<path d="M249.502 380.083V424.596C249.502 428.731 245.557 431.696 241.626 430.514C237.389 429.24 232.58 428.421 227.212 428.421C202.881 428.421 190 445.211 190 445.211V453.404C190 456.423 193.463 458.091 195.795 456.196C201.792 451.323 212.372 445.078 227.212 445.078C239.501 445.078 248.869 449.361 255.131 453.601C259.097 456.286 264.424 453.46 264.424 448.645V391.646C264.425 391.645 259.33 385.011 249.502 380.083V380.083Z" fill="#DED0CB"/>
<path d="M241.555 410.128H210.647C208.104 410.128 206.212 407.73 206.756 405.196L220.398 341.624H231.795L245.446 405.196C245.991 407.73 244.099 410.128 241.555 410.128Z" fill="#285680"/>
<path d="M245.446 405.196L231.815 341.624H221.103L234.735 405.196C235.279 407.73 233.389 410.128 230.85 410.128H241.561C244.101 410.128 245.99 407.73 245.446 405.196Z" fill="#1A4063"/>
<path d="M259.368 305.511L252.904 298.976C252.025 298.087 250.577 298.167 249.799 299.148L226.1 329.013L202.402 299.148C201.624 298.167 200.176 298.087 199.297 298.976L192.833 305.511C191.954 306.4 192.033 307.864 193.003 308.65L222.543 332.61L193.003 356.57C192.033 357.356 191.954 358.82 192.833 359.709L199.297 366.244C200.176 367.133 201.624 367.053 202.402 366.072L226.101 336.207L249.8 366.072C250.578 367.053 252.026 367.133 252.905 366.244L259.369 359.709C260.248 358.82 260.169 357.356 259.199 356.57L229.658 332.61L259.199 308.65C260.168 307.864 260.248 306.4 259.368 305.511Z" fill="#9FD0EF"/>
<path d="M226.101 345.229C233.156 345.229 238.875 339.58 238.875 332.61C238.875 325.641 233.156 319.991 226.101 319.991C219.046 319.991 213.327 325.641 213.327 332.61C213.327 339.58 219.046 345.229 226.101 345.229Z" fill="#142E47"/>
</svg>
