<svg width="780" height="520" viewBox="0 0 780 520" fill="none" xmlns="http://www.w3.org/2000/svg">
<rect width="780" height="520" fill="#3BA4CA"/>
<path d="M573.801 416.395L540.961 374.875L439.027 337.754C429.625 334.328 423.371 325.391 423.371 315.383V293.305H357.074V315.383C357.074 325.391 350.82 334.328 341.418 337.754L239.484 374.875L208 417.785C254.418 464.832 318.91 494 390.223 494C462.234 494 527.289 464.254 573.801 416.395V416.395Z" fill="#FAA68E"/>
<path d="M540.961 374.875L439.027 337.754C429.625 334.328 423.371 325.391 423.371 315.383V293.305H390.031V493.996C390.094 493.996 390.16 494 390.223 494C462.234 494 527.289 464.254 573.805 416.395L540.961 374.875Z" fill="#E09380"/>
<path d="M390.223 494C433.934 494 475.07 483.023 511.066 463.707L524.738 368.969L502.664 360.93C494.711 379.363 454.785 441.223 272.062 465.141C307.414 483.57 347.598 494 390.223 494Z" fill="#00617E"/>
<path d="M502.664 360.93C496.836 374.437 473.828 411.273 390.031 439.402V494H390.223C433.934 494 475.07 483.023 511.066 463.707L524.738 368.969L502.664 360.93Z" fill="#034051"/>
<path d="M332.891 200.238C332.891 215.965 320.145 228.711 304.418 228.711C288.695 228.711 275.949 215.965 275.949 200.238C275.949 184.516 288.695 171.77 304.418 171.77C320.145 171.77 332.891 184.516 332.891 200.238Z" fill="#FFBEAA"/>
<path d="M504.496 200.238C504.496 215.965 491.75 228.711 476.027 228.711C460.301 228.711 447.555 215.965 447.555 200.238C447.555 184.516 460.301 171.77 476.027 171.77C491.75 171.77 504.496 184.516 504.496 200.238Z" fill="#FAA68E"/>
<path d="M428.133 306.836L409.121 316.602C397.258 322.695 383.188 322.695 371.328 316.602L352.316 306.836C324.141 292.359 306.426 263.348 306.426 231.672V157.562C306.426 111.281 343.941 73.7617 390.227 73.7617C436.504 73.7617 474.023 111.281 474.023 157.562V231.672C474.023 263.348 456.309 292.363 428.133 306.836V306.836Z" fill="#FFBEAA"/>
<path d="M390.223 73.7617C390.16 73.7617 390.094 73.7656 390.031 73.7656V321.164C396.578 321.195 403.129 319.68 409.121 316.602L428.133 306.836C456.309 292.359 474.023 263.348 474.023 231.672V157.562C474.023 111.281 436.504 73.7617 390.223 73.7617V73.7617Z" fill="#FAA68E"/>
<path d="M320.223 222.238V171.77H303.723V307.504C303.723 339.258 329.465 365 361.219 365H419.227C450.98 365 476.723 339.258 476.723 307.504V171.77H460.223V222.238C460.223 233.5 451.094 242.629 439.832 242.629H340.609C329.352 242.629 320.223 233.5 320.223 222.238V222.238Z" fill="#00617E"/>
<path d="M460.223 171.77V222.238C460.223 233.5 451.094 242.629 439.832 242.629H390.031V365H419.227C450.98 365 476.723 339.258 476.723 307.504V171.77H460.223Z" fill="#034051"/>
<path d="M361.891 264.332H418.559V279H361.891V264.332Z" fill="#FFBEAA"/>
<path d="M390.031 264.332H418.559V279H390.031V264.332Z" fill="#FAA68E"/>
<path d="M479.938 113.469C480.227 111.629 480.387 109.742 480.387 107.816C480.387 88.8633 465.688 73.5 447.555 73.5C440.035 73.5 433.109 76.1484 427.574 80.5938C420.871 71.5273 410.367 65.6797 398.559 65.6797C394.301 65.6797 390.219 66.4453 386.418 67.8398C380.625 63.8359 373.688 61.5 366.223 61.5C350.535 61.5 337.152 71.8008 331.918 86.2852C329.129 85.5742 326.219 85.1914 323.223 85.1914C302.973 85.1914 286.555 102.352 286.555 123.516C286.555 126.414 286.875 129.234 287.457 131.945C279.086 138.969 273.723 149.746 273.723 161.84C273.723 183.008 290.137 200.164 310.391 200.164C330.641 200.164 347.059 183.008 347.059 161.84C347.059 161.637 347.043 161.43 347.043 161.227C349.156 161.621 351.332 161.84 353.559 161.84C368.078 161.84 380.625 153.02 386.562 140.223C390.324 141.582 394.355 142.328 398.559 142.328C408.41 142.328 417.352 138.258 423.938 131.648C429.059 137.187 435.941 140.93 443.645 141.887C443.352 143.723 443.191 145.609 443.191 147.535C443.191 166.488 457.895 181.855 476.027 181.855C494.16 181.855 508.859 166.488 508.859 147.535C508.859 129.969 496.223 115.492 479.938 113.469V113.469Z" fill="#00617E"/>
<path d="M479.938 113.469C480.227 111.629 480.387 109.742 480.387 107.816C480.387 88.8633 465.688 73.5 447.555 73.5C440.035 73.5 433.109 76.1484 427.574 80.5938C420.871 71.5273 410.367 65.6797 398.559 65.6797C395.621 65.6797 392.77 66.0547 390.031 66.7383V141.273C392.77 141.961 395.621 142.332 398.559 142.332C408.41 142.332 417.352 138.262 423.938 131.648C429.059 137.191 435.941 140.93 443.645 141.887C443.352 143.727 443.191 145.613 443.191 147.539C443.191 166.492 457.895 181.855 476.027 181.855C494.16 181.855 508.859 166.492 508.859 147.539C508.859 129.969 496.223 115.492 479.938 113.469V113.469Z" fill="#034051"/>
<path d="M425.257 203.287C425.284 197.782 422.4 193.305 418.814 193.287C415.229 193.269 412.3 197.717 412.272 203.222C412.245 208.727 415.129 213.204 418.715 213.222C422.301 213.24 425.23 208.792 425.257 203.287Z" fill="#845151"/>
<path d="M434.925 195.455C433.932 195.443 432.942 195.067 432.15 194.318C429.412 191.726 424.451 190.075 419.201 190.008C413.951 189.941 408.948 191.465 406.146 193.986C404.387 195.568 401.732 195.367 400.213 193.54C398.695 191.712 398.889 188.948 400.647 187.366C405.071 183.388 411.873 181.16 419.312 181.255C426.75 181.35 433.493 183.75 437.814 187.84C439.531 189.466 439.656 192.234 438.091 194.023C437.248 194.987 436.086 195.47 434.925 195.455V195.455Z" fill="#AD6B6B"/>
<path d="M372.345 203.542C372.372 198.037 369.488 193.56 365.902 193.542C362.316 193.524 359.387 197.971 359.36 203.476C359.333 208.981 362.217 213.458 365.803 213.476C369.388 213.494 372.317 209.046 372.345 203.542Z" fill="#845151"/>
<path d="M382.013 195.71C381.02 195.697 380.029 195.322 379.238 194.572C376.5 191.98 371.538 190.329 366.288 190.262C361.038 190.195 356.036 191.719 353.233 194.24C351.475 195.823 348.819 195.621 347.3 193.795C345.783 191.966 345.977 189.202 347.735 187.621C352.159 183.642 358.961 181.415 366.399 181.509C373.838 181.604 380.581 184.005 384.902 188.095C386.619 189.72 386.743 192.488 385.179 194.278C384.336 195.242 383.174 195.725 382.013 195.71V195.71Z" fill="#AD6B6B"/>
<path d="M600.131 53.3039C576.976 53.0901 558.029 72.0969 557.811 95.7567C557.417 112.986 566.795 128.685 581.405 135.253L582.596 135.973L587.308 144.585L611.265 144.806L616.136 136.283L617.34 135.585C632.068 129.288 641.735 113.765 641.66 96.5311C641.878 72.8708 623.285 53.5178 600.131 53.3039Z" fill="#285680"/>
<path d="M596.265 150.602L590.33 150.547L590.591 122.325L576.767 106.724L581.005 102.115L595.69 118.687C596.241 119.308 596.546 120.147 596.538 121.019L596.265 150.602Z" fill="#3BA4CA"/>
<path d="M608.134 150.712L602.199 150.657L602.473 121.074C602.481 120.202 602.801 119.369 603.363 118.758L618.352 102.46L622.504 107.146L608.394 122.489L608.134 150.712Z" fill="#3BA4CA"/>
<path d="M587.461 144.587L611.113 144.805C614.379 144.835 616.998 147.839 616.964 151.514C616.93 155.19 614.256 158.145 610.99 158.115L587.338 157.896C584.072 157.866 581.452 154.862 581.486 151.187C581.52 147.511 584.195 144.557 587.461 144.587Z" fill="#285680"/>
<path d="M587.338 157.896L610.99 158.115C614.256 158.145 616.875 161.148 616.841 164.824C616.807 168.499 614.133 171.454 610.867 171.424L587.215 171.206C583.949 171.176 581.329 168.172 581.363 164.496C581.397 160.821 584.072 157.866 587.338 157.896Z" fill="#3379B8"/>
<path d="M536.466 55.3334L539.175 49.477L556.888 59.5026L554.179 65.359L536.466 55.3334Z" fill="#FCD821"/>
<path d="M642.576 58.6745L661.523 51.873L663.343 58.1275L644.396 64.9286L642.576 58.6745Z" fill="#FCD821"/>
<path d="M525.588 91.7408L543.391 91.9053L543.331 98.4793L525.527 98.3149L525.588 91.7408Z" fill="#FCD821"/>
<path d="M656.148 92.9464L673.951 93.1108L673.89 99.6849L656.087 99.5205L656.148 92.9464Z" fill="#FCD821"/>
<path d="M535.672 141.489L553.566 131.793L556.166 137.698L538.271 147.395L535.672 141.489Z" fill="#FCD821"/>
<path d="M642.521 138.495L645.23 132.639L662.942 142.664L660.234 148.521L642.521 138.495Z" fill="#FCD821"/>
<path d="M597.409 26.6577L603.344 26.7125L603.192 43.1477L597.258 43.0929L597.409 26.6577Z" fill="#FCD821"/>
</svg>
