<svg width="780" height="520" viewBox="0 0 780 520" fill="none" xmlns="http://www.w3.org/2000/svg">
<rect width="780" height="520" fill="#3BA4CA"/>
<path d="M380 446C379 445.722 378.013 445.34 377 445C378 445.34 378.994 445.722 380 446Z" fill="#FFB531"/>
<path d="M366.05 443.786C362.743 443.183 359.466 442.502 356.232 441.638C359.466 442.489 362.743 443.183 366.05 443.786Z" fill="#FFA912"/>
<path d="M376.592 445.253C374.105 445.001 371.631 444.678 369.171 444.289C371.628 444.684 374.101 445.005 376.592 445.253Z" fill="#FFA912"/>
<path d="M390 446C386.546 446 383.106 445.821 379.682 445.557C383.106 445.821 386.546 446 390 446Z" fill="#FFA912"/>
<path d="M317.879 339.694H469.546V434.054H317.879V339.694Z" fill="#285680"/>
<path d="M419.697 406.335C388.512 419.571 352.365 410.729 330.745 384.58L319.655 368.901H303.3L274.394 412.411L301.624 436.698C316.758 450.199 334.768 460.054 354.277 465.507C381.465 452.756 404.245 432.152 419.697 406.335Z" fill="#142E47"/>
<path d="M463.568 368.901L449.143 384.493C447.185 386.82 445.092 389.028 442.872 391.108C442.512 391.453 442.112 391.75 441.745 392.081C439.822 393.834 437.811 395.491 435.722 397.042C435.495 397.208 435.259 397.353 434.997 397.518C432.685 399.186 430.282 400.724 427.8 402.127L427.677 402.19C425.029 403.682 422.293 405.011 419.483 406.178C404.001 431.89 381.181 452.409 353.939 465.102C357.372 466.058 360.846 466.837 364.349 467.514C365.452 467.726 366.523 467.898 367.658 468.078C370.266 468.523 372.889 468.882 375.526 469.161C376.622 469.277 377.7 469.408 378.806 469.503C382.426 469.799 386.045 470 389.746 470C422.389 470 453.897 458.05 478.294 436.414L505.606 412.229L483.889 368.901H463.568Z" fill="#142E47"/>
<path d="M266.97 223.992H513.03V368.901H266.97V223.992Z" fill="#142E47"/>
<path d="M266.97 303.748H513.03V318.351H266.97V303.748Z" fill="#1A4063"/>
<path d="M266.97 274.542H513.03V289.145H266.97V274.542Z" fill="#1A4063"/>
<path d="M266.97 332.954H513.03V347.558H266.97V332.954Z" fill="#1A4063"/>
<path d="M317.879 223.992H462.121V274.542H317.879V223.992Z" fill="#142E47"/>
<path d="M491.818 209.389H288.182L292.685 192.812C303.846 151.725 343.97 122.893 390 122.893C436.03 122.893 476.154 151.725 487.315 192.812L491.818 209.389Z" fill="#285680"/>
<path d="M456.131 260.967C449.363 269.222 439.409 274.192 428.766 274.639C418.121 275.082 407.793 270.958 400.363 263.298C394.64 257.551 385.36 257.551 379.637 263.298C372.381 270.575 362.543 274.667 352.282 274.667C341.22 274.713 330.747 269.665 323.869 260.967L312.146 247.582L310.455 247.777V325.458L332.915 370.523C336.877 378.477 344.98 383.504 353.843 383.504H426.157C435.02 383.504 443.123 378.477 447.085 370.523L469.546 325.458V247.777L467.854 247.582L456.131 260.967Z" fill="#46698D"/>
<path d="M467.854 247.582L456.133 260.967C445.747 273.799 428.162 278.199 412.992 271.765C408.024 311.842 393.596 350.148 370.909 383.504H426.164C435.025 383.504 443.127 378.477 447.089 370.523L469.546 325.458V247.777L467.854 247.582Z" fill="#7CA1A9"/>
<path d="M390 303.748C389.21 303.744 388.423 303.617 387.676 303.374L365.606 296.144L370.254 282.405L390 288.897L409.746 282.433L414.394 296.172L392.324 303.402C391.573 303.638 390.79 303.755 390 303.748V303.748Z" fill="#112639"/>
<path d="M416.825 347.294C399.044 344.555 380.952 344.555 363.175 347.294C359.188 348.079 355.061 347.089 351.863 344.576C348.662 342.064 346.71 338.282 346.515 334.212C346.717 327.492 351.792 321.928 358.453 321.133L363.154 320.406C380.931 317.666 399.023 317.666 416.8 320.406L421.505 321.133C428.19 321.91 433.29 327.495 433.485 334.244C433.28 338.307 431.324 342.082 428.126 344.587C424.929 347.092 420.804 348.079 416.825 347.294V347.294Z" fill="#112639"/>
<path d="M331.862 311.611C329.945 311.611 328.105 310.827 326.75 309.434L305.06 287.137C302.32 284.219 302.359 279.585 305.148 276.718C307.937 273.851 312.445 273.811 315.283 276.628L336.973 298.924C339.039 301.051 339.66 304.248 338.541 307.024C337.422 309.8 334.785 311.611 331.862 311.611Z" fill="#285680"/>
<path d="M448.138 311.611C445.215 311.611 442.578 309.8 441.459 307.024C440.34 304.248 440.961 301.051 443.027 298.924L464.717 276.628C467.555 273.811 472.063 273.851 474.852 276.718C477.641 279.585 477.68 284.219 474.94 287.137L453.25 309.434C451.895 310.827 450.055 311.611 448.138 311.611V311.611Z" fill="#285680"/>
<path d="M241.923 147.709L237.697 130.756L180 188.647C193.907 225.856 221.325 256.416 256.752 274.186L277.603 284.651L288.182 210.356C265.095 196.455 248.452 173.92 241.923 147.709V147.709Z" fill="#E94F4F"/>
<path d="M241.923 147.709L237.697 130.756L180 188.647C193.907 225.856 221.325 256.416 256.752 274.186L277.603 284.651L288.182 210.356C265.095 196.455 248.452 173.92 241.923 147.709V147.709Z" fill="#285680"/>
<path d="M277.576 283.888L256.817 273.409C250.972 270.405 245.324 267.03 239.9 263.308L235.283 276.721C227.471 299.37 223.485 323.184 223.485 347.164L266.567 368.901L277.576 283.888Z" fill="#416C94"/>
<path d="M538.077 147.709L542.303 130.756L600 188.647C586.093 225.856 558.675 256.416 523.248 274.186L502.397 284.651L491.818 210.356C514.905 196.455 531.548 173.92 538.077 147.709V147.709Z" fill="#1A4063"/>
<path d="M502.424 283.888L523.183 273.409C529.028 270.405 534.676 267.03 540.1 263.308L544.717 276.721C552.529 299.37 556.515 323.184 556.515 347.164L513.433 368.901L502.424 283.888Z" fill="#416C94"/>
<path d="M505.862 412.71L549.462 416.025C577.979 418.197 600 441.715 600 470H390C422.653 470 454.172 458.15 478.576 436.694L505.862 412.71Z" fill="#416C94"/>
<path d="M568.823 420.574C553.243 443.003 507.001 458.964 484.394 470H600C599.996 448.876 587.86 429.64 568.823 420.574V420.574Z" fill="#25657D"/>
<path d="M532.928 413.834L511.97 470H527.498L548.03 415.001L532.928 413.834Z" fill="#1A4063"/>
<path d="M577.727 426.446C573.797 423.544 569.492 421.19 564.925 419.45L549.091 470H564.08L577.727 426.446Z" fill="#1A4063"/>
<path d="M505.523 412.71L494.183 422.638L476.97 470H492.418L513.03 413.277L505.523 412.71Z" fill="#1A4063"/>
<path d="M472.921 248.554L411.35 241.235C397.166 239.545 382.834 239.545 368.65 241.235L307.079 248.554C299.169 249.498 291.389 245.967 286.812 239.366C282.238 232.761 281.606 224.145 285.165 216.926L288.885 209.389H491.115L494.835 216.926C498.394 224.145 497.763 232.761 493.189 239.366C488.611 245.967 480.831 249.498 472.921 248.554V248.554Z" fill="#FFB531"/>
<path d="M494.839 216.931L491.105 209.389H425.2C413.693 220.708 401.205 230.957 387.879 240.012C395.63 239.923 403.378 240.33 411.077 241.235L472.873 248.559C480.802 249.485 488.592 245.952 493.176 239.354C497.76 232.752 498.397 224.148 494.839 216.931Z" fill="#FFA912"/>
<path d="M467.582 414.107L492.879 388.283L486.064 374.517L457.326 403.853L457.125 404.034L442.67 388.234C439.215 391.646 435.449 394.717 431.415 397.409L446.065 413.408C431.348 424.348 413.847 430.856 395.594 432.177V410.251C393.202 410.479 390.795 410.645 388.367 410.645C385.939 410.645 383.532 410.464 381.139 410.23V432.163C362.89 430.788 345.407 424.23 330.711 413.255L345.392 397.256C341.366 394.55 337.607 391.465 334.159 388.045L319.704 403.825C319.64 403.757 319.566 403.707 319.51 403.644L294.255 378.192L286.061 390.552L309.275 413.969C313.535 418.226 318.126 422.132 323.007 425.654L309.801 442.939C313.722 445.794 317.791 448.435 321.994 450.85L335.229 433.53C349.384 441.252 365.036 445.783 381.104 446.816V468.536C383.511 468.667 385.91 468.869 388.331 468.876C390.752 468.884 393.152 468.681 395.559 468.55V446.837C411.677 445.843 427.385 441.327 441.593 433.601L454.602 451.056C458.812 448.655 462.892 446.031 466.816 443.187L453.808 425.732C458.699 422.235 463.305 418.343 467.582 414.107V414.107Z" fill="#F7A116"/>
<path d="M274.138 412.71L230.538 416.025C202.021 418.197 180 441.715 180 470H390C357.347 470 325.828 458.15 301.424 436.694L274.138 412.71Z" fill="#416C94"/>
<path d="M301.46 436.918L300.735 436.3C281.971 453.166 258.966 464.801 234.091 470H390C357.36 470 325.854 458.23 301.46 436.918V436.918Z" fill="#25657D"/>
<path d="M247.072 413.834L268.03 470H252.502L231.97 415.001L247.072 413.834Z" fill="#1A4063"/>
<path d="M202.273 426.446C206.203 423.544 210.508 421.19 215.075 419.45L230.909 470H215.92L202.273 426.446Z" fill="#1A4063"/>
<path d="M274.477 412.71L285.817 422.638L303.03 470H287.582L266.97 413.277L274.477 412.71Z" fill="#1A4063"/>
<path d="M487.312 192.881C477.439 159.411 449.884 133.886 415.392 126.263C392.632 176.314 340.569 199.341 306.212 209.389H491.818L487.312 192.881Z" fill="#1A4063"/>
<path d="M426.061 87.1069C434.026 87.1069 440.485 93.5736 440.485 101.55V108.771C440.485 136.69 417.884 159.321 390 159.321C362.116 159.321 339.515 136.69 339.515 108.771V101.55C339.515 93.5736 345.974 87.1069 353.939 87.1069C353.939 67.167 337.793 51 317.879 51H281.818C295.672 64.8715 303.454 83.6866 303.454 103.306V115.992C303.454 163.852 342.202 202.649 390 202.649C437.798 202.649 476.545 163.852 476.545 115.992V103.306C476.545 83.6866 484.328 64.8715 498.182 51H462.121C442.207 51 426.061 67.167 426.061 87.1069Z" fill="#FFB531"/>
<path d="M265.019 190.292C257.334 214.658 239.395 234.288 216.061 243.88C227.966 256.138 241.758 266.343 256.893 274.097L277.65 284.651L288.182 209.726C279.55 204.46 271.743 197.911 265.019 190.292V190.292Z" fill="#1A4063"/>
<path d="M600 188.647L542.457 130.756L538.243 147.709C536.736 153.698 534.685 159.536 532.121 165.15C545.323 192.407 553.436 221.868 556.053 252.075C575.717 234.938 590.823 213.137 600 188.647Z" fill="#285680"/>
<path d="M546.97 283.44C546.295 281.246 545.749 279.052 545 276.855L540.325 263.308C534.834 267.067 529.116 270.476 523.199 273.51L502.424 283.983C517.183 286.542 532.279 286.359 546.97 283.44Z" fill="#25657D"/>
<path d="M461.978 51C441.985 51 425.774 67.167 425.774 87.1068H426.043C426.994 83.4996 427.705 79.8325 428.164 76.1302C427.705 79.8325 426.994 83.4996 426.043 87.1068C433.934 87.2513 440.256 93.6758 440.256 101.549V108.771C440.334 123.281 434.122 137.12 423.215 146.725C412.308 156.334 397.773 160.77 383.345 158.901C371.08 170.635 357.263 180.639 342.273 188.625C368.976 205.963 403.052 207.32 431.057 192.162C459.058 177.007 476.488 147.769 476.46 115.992V103.305C476.46 83.6865 484.273 64.8715 498.182 51H461.978Z" fill="#FFA912"/>
<path d="M410.152 130.756H367.727V116.377C367.727 104.467 377.225 94.8097 388.939 94.8097C400.654 94.8097 410.152 104.467 410.152 116.377V130.756Z" fill="#FFB531"/>
</svg>
