<svg width="780" height="520" viewBox="0 0 780 520" fill="none" xmlns="http://www.w3.org/2000/svg">
<rect width="780" height="520" fill="#3BA4CA"/>
<path d="M380 446C379 445.722 378.013 445.34 377 445C378 445.34 378.994 445.722 380 446Z" fill="#FFB531"/>
<path d="M366.05 443.786C362.743 443.183 359.466 442.502 356.232 441.638C359.466 442.489 362.743 443.183 366.05 443.786Z" fill="#FFA912"/>
<path d="M376.592 445.253C374.105 445.001 371.631 444.678 369.171 444.289C371.628 444.684 374.101 445.005 376.592 445.253Z" fill="#FFA912"/>
<path d="M390 446C386.546 446 383.106 445.821 379.682 445.557C383.106 445.821 386.546 446 390 446Z" fill="#FFA912"/>
<path d="M410 144H370V131.2C370 120.597 378.955 112 390 112C401.045 112 410 120.597 410 131.2V144Z" fill="#FFB531"/>
<path d="M342 331H485V415H342V331Z" fill="#285680"/>
<path d="M438 390.324C408.597 402.107 374.515 394.236 354.131 370.958L343.675 357H328.254L301 395.734L326.674 417.354C340.943 429.373 357.924 438.146 376.319 443C401.953 431.649 423.431 413.307 438 390.324Z" fill="#142E47"/>
<path d="M479.364 357L465.763 370.88C463.917 372.952 461.944 374.917 459.851 376.769C459.511 377.077 459.134 377.34 458.788 377.635C456.975 379.196 455.079 380.671 453.109 382.052C452.896 382.199 452.672 382.328 452.426 382.476C450.246 383.96 447.98 385.329 445.64 386.578L445.524 386.635C443.027 387.963 440.448 389.146 437.798 390.185C423.201 413.074 401.685 431.34 376 442.64C379.236 443.491 382.512 444.184 385.815 444.787C386.855 444.975 387.864 445.129 388.934 445.289C391.394 445.685 393.867 446.005 396.353 446.253C397.386 446.357 398.402 446.473 399.446 446.557C402.858 446.821 406.271 447 409.76 447C440.538 447 470.246 436.362 493.248 417.101L519 395.571L498.524 357H479.364Z" fill="#142E47"/>
<path d="M294 228H526V357H294V228Z" fill="#142E47"/>
<path d="M294 299H526V312H294V299Z" fill="#1A4063"/>
<path d="M294 273H526V286H294V273Z" fill="#1A4063"/>
<path d="M294 325H526V338H294V325Z" fill="#1A4063"/>
<path d="M342 228H478V273H342V228Z" fill="#142E47"/>
<path d="M506 215H314L318.246 200.243C328.769 163.667 366.6 138 410 138C453.4 138 491.231 163.667 501.754 200.243L506 215Z" fill="#285680"/>
<path d="M472.352 260.915C465.97 268.264 456.585 272.689 446.551 273.086C436.514 273.481 426.776 269.81 419.771 262.991C414.375 257.875 405.625 257.875 400.229 262.991C393.387 269.469 384.112 273.112 374.438 273.112C364.007 273.153 354.133 268.658 347.648 260.915L336.595 249L335 249.173V318.326L356.177 358.444C359.912 365.525 367.553 370 375.909 370H444.091C452.447 370 460.088 365.525 463.823 358.444L485 318.326V249.173L483.405 249L472.352 260.915Z" fill="#46698D"/>
<path d="M483.406 249L472.354 260.915C462.561 272.339 445.981 276.256 431.678 270.529C426.994 306.206 413.39 340.306 392 370H444.097C452.452 370 460.091 365.525 463.826 358.444L485 318.326V249.173L483.406 249Z" fill="#7CA1A9"/>
<path d="M410 299C409.255 298.997 408.513 298.883 407.809 298.667L387 292.231L391.383 280L410 285.779L428.617 280.025L433 292.256L412.191 298.692C411.483 298.902 410.745 299.006 410 299V299Z" fill="#112639"/>
<path d="M435.292 337.766C418.527 335.327 401.469 335.327 384.708 337.766C380.949 338.464 377.057 337.582 374.042 335.346C371.024 333.11 369.183 329.742 369 326.119C369.19 320.137 373.976 315.184 380.255 314.476L384.688 313.829C401.449 311.39 418.507 311.39 435.269 313.829L439.704 314.476C446.008 315.168 450.817 320.14 451 326.148C450.807 329.765 448.962 333.125 445.948 335.356C442.933 337.586 439.044 338.464 435.292 337.766V337.766Z" fill="#112639"/>
<path d="M355.184 306C353.376 306 351.642 305.302 350.364 304.062L329.913 284.213C327.33 281.615 327.367 277.49 329.997 274.938C332.626 272.386 336.877 272.35 339.553 274.857L360.004 294.706C361.951 296.599 362.537 299.445 361.481 301.917C360.426 304.388 357.94 306 355.184 306Z" fill="#285680"/>
<path d="M464.816 306C462.06 306 459.574 304.388 458.519 301.917C457.463 299.445 458.049 296.599 459.996 294.706L480.447 274.857C483.123 272.35 487.374 272.386 490.003 274.938C492.633 277.49 492.67 281.615 490.087 284.213L469.636 304.062C468.358 305.302 466.624 306 464.816 306V306Z" fill="#285680"/>
<path d="M270.384 160.092L266.4 145L212 196.535C225.112 229.66 250.964 256.865 284.366 272.683L304.026 282L314 215.861C292.232 203.486 276.54 183.425 270.384 160.092V160.092Z" fill="#E94F4F"/>
<path d="M270.384 160.092L266.4 145L212 196.535C225.112 229.66 250.964 256.865 284.366 272.683L304.026 282L314 215.861C292.232 203.486 276.54 183.425 270.384 160.092V160.092Z" fill="#285680"/>
<path d="M304 281.321L284.427 271.992C278.917 269.318 273.591 266.313 268.477 263L264.124 274.94C256.759 295.103 253 316.302 253 337.649L293.62 357L304 281.321Z" fill="#416C94"/>
<path d="M549.616 160.092L553.6 145L608 196.535C594.888 229.66 569.036 256.865 535.634 272.683L515.974 282L506 215.861C527.768 203.486 543.46 183.425 549.616 160.092V160.092Z" fill="#1A4063"/>
<path d="M516 281.321L535.573 271.992C541.083 269.318 546.409 266.313 551.523 263L555.876 274.94C563.241 295.103 567 316.302 567 337.649L526.38 357L516 281.321Z" fill="#416C94"/>
<path d="M519.241 396L560.35 398.951C587.237 400.884 608 421.821 608 447H410C440.787 447 470.505 436.451 493.515 417.351L519.241 396Z" fill="#416C94"/>
<path d="M578.604 403C563.915 422.967 520.316 437.176 499 447H608C607.997 428.195 596.554 411.071 578.604 403V403Z" fill="#25657D"/>
<path d="M544.761 397L525 447H539.641L559 398.039L544.761 397Z" fill="#1A4063"/>
<path d="M587 408.228C583.294 405.644 579.235 403.548 574.93 402L560 447H574.133L587 408.228Z" fill="#1A4063"/>
<path d="M518.921 396L508.23 404.837L492 447H506.566L526 396.504L518.921 396Z" fill="#1A4063"/>
<path d="M488.183 249.866L430.13 243.35C416.757 241.845 403.243 241.845 389.87 243.35L331.817 249.866C324.359 250.706 317.024 247.562 312.708 241.686C308.395 235.807 307.8 228.136 311.155 221.71L314.663 215H505.337L508.845 221.71C512.2 228.136 511.605 235.807 507.292 241.686C502.976 247.562 495.641 250.706 488.183 249.866V249.866Z" fill="#FFB531"/>
<path d="M508.848 221.714L505.328 215H443.188C432.339 225.076 420.565 234.2 408 242.261C415.309 242.182 422.614 242.545 429.872 243.35L488.137 249.87C495.613 250.695 502.958 247.549 507.28 241.676C511.602 235.799 512.202 228.139 508.848 221.714Z" fill="#FFA912"/>
<path d="M483.149 397.244L507 374.255L500.575 362L473.479 388.115L473.289 388.276L459.66 374.21C456.402 377.248 452.852 379.982 449.049 382.378L462.861 396.621C448.985 406.36 432.485 412.153 415.275 413.329V393.811C413.019 394.013 410.749 394.162 408.46 394.162C406.171 394.162 403.902 394.001 401.645 393.792V413.317C384.439 412.093 367.955 406.255 354.099 396.485L367.942 382.242C364.145 379.834 360.601 377.087 357.35 374.043L343.721 388.09C343.661 388.03 343.591 387.985 343.538 387.929L319.726 365.271L312 376.274L333.888 397.12C337.904 400.91 342.233 404.387 346.835 407.523L334.384 422.91C338.081 425.451 341.917 427.803 345.88 429.952L358.358 414.533C371.705 421.408 386.462 425.442 401.612 426.361V445.696C403.882 445.813 406.144 445.994 408.427 446C410.71 446.006 412.972 445.826 415.242 445.709V426.38C430.438 425.495 445.249 421.475 458.645 414.597L470.91 430.135C474.88 427.999 478.726 425.663 482.427 423.131L470.162 407.592C474.773 404.479 479.116 401.014 483.149 397.244V397.244Z" fill="#F7A116"/>
<path d="M300.759 396L259.65 398.951C232.763 400.884 212 421.821 212 447H410C379.213 447 349.495 436.451 326.485 417.351L300.759 396Z" fill="#416C94"/>
<path d="M326.519 417.55L325.836 417C308.144 432.014 286.454 442.372 263 447H410C379.225 447 349.52 436.522 326.519 417.55V417.55Z" fill="#25657D"/>
<path d="M275.239 397L295 447H280.359L261 398.039L275.239 397Z" fill="#1A4063"/>
<path d="M233 408.228C236.706 405.644 240.765 403.548 245.07 402L260 447H245.867L233 408.228Z" fill="#1A4063"/>
<path d="M301.079 396L311.77 404.837L328 447H313.434L294 396.504L301.079 396Z" fill="#1A4063"/>
<path d="M501.751 200.305C492.442 170.509 466.462 147.786 433.941 141C412.482 185.557 363.394 206.055 331 215H506L501.751 200.305Z" fill="#1A4063"/>
<path d="M444 106.143C451.511 106.143 457.6 111.9 457.6 119V125.429C457.6 150.283 436.29 170.429 410 170.429C383.71 170.429 362.4 150.283 362.4 125.429V119C362.4 111.9 368.489 106.143 376 106.143C376 88.3921 360.776 74 342 74H308C321.062 86.3486 328.4 103.098 328.4 120.563V131.857C328.4 174.462 364.933 209 410 209C455.067 209 491.6 174.462 491.6 131.857V120.563C491.6 103.098 498.938 86.3486 512 74H478C459.224 74 444 88.3921 444 106.143Z" fill="#FFB531"/>
<path d="M292.161 198C284.915 219.691 268.001 237.166 246 245.705C257.225 256.617 270.229 265.702 284.499 272.604L304.07 282L314 215.301C305.862 210.612 298.501 204.782 292.161 198V198Z" fill="#1A4063"/>
<path d="M608 196.536L553.746 145L549.772 160.092C548.351 165.424 546.417 170.62 544 175.618C556.448 199.882 564.097 226.109 566.564 253C585.105 237.744 599.347 218.337 608 196.536Z" fill="#285680"/>
<path d="M558 280.922C557.364 278.968 556.849 277.015 556.143 275.059L551.735 263C546.558 266.346 541.167 269.381 535.588 272.082L516 281.405C529.915 283.683 544.148 283.52 558 280.922Z" fill="#25657D"/>
<path d="M477.865 74C459.014 74 443.73 88.3921 443.73 106.143H443.984C444.88 102.932 445.55 99.6671 445.984 96.3713C445.55 99.6671 444.88 102.932 443.984 106.143C451.424 106.271 457.384 111.991 457.384 119V125.428C457.458 138.345 451.601 150.666 441.317 159.216C431.033 167.77 417.329 171.718 403.725 170.055C392.161 180.501 379.134 189.406 365 196.516C390.178 211.95 422.306 213.159 448.71 199.664C475.112 186.173 491.546 160.145 491.519 131.857V120.563C491.519 103.098 498.886 86.3486 512 74H477.865Z" fill="#FFA912"/>
</svg>
