<svg width="780" height="520" viewBox="0 0 780 520" fill="none" xmlns="http://www.w3.org/2000/svg">
<rect width="780" height="520" fill="#3BA4CA"/>
<path d="M251.001 82C267.015 82 280.001 96.7608 280.001 114.963V147.926H251.001C234.986 147.926 222 133.165 222 114.963C222 96.7608 234.981 82 251.001 82Z" fill="#868491"/>
<path d="M465.605 405.037V355.593C465.605 348.308 460.414 342.407 454.005 342.407C460.414 342.407 465.605 336.507 465.605 329.222V200.667V144.63C465.605 137.345 460.414 131.444 454.005 131.444C460.414 131.444 465.605 125.544 465.605 118.259V114.963C465.605 96.7608 452.619 82 436.605 82H251C267.015 82 280.001 96.7608 280.001 114.963V184.185C280.001 191.47 285.192 197.37 291.601 197.37C285.192 197.37 280.001 203.271 280.001 210.556V405.037C280.001 423.239 292.988 438 309.002 438H494.606C478.586 438 465.605 423.239 465.605 405.037Z" fill="#FFD788"/>
<path d="M355.403 144.63H425.004C428.206 144.63 430.804 141.676 430.804 138.037C430.804 134.398 428.206 131.444 425.004 131.444H355.403C352.201 131.444 349.603 134.398 349.603 138.037C349.603 141.676 352.195 144.63 355.403 144.63Z" fill="#868491"/>
<path d="M320.602 177.593H425.004C428.206 177.593 430.805 174.639 430.805 171C430.805 167.361 428.206 164.407 425.004 164.407H320.602C317.4 164.407 314.802 167.361 314.802 171C314.802 174.639 317.395 177.593 320.602 177.593Z" fill="#868491"/>
<path d="M320.602 210.556H425.004C428.206 210.556 430.805 207.602 430.805 203.963C430.805 200.324 428.206 197.37 425.004 197.37H320.602C317.4 197.37 314.802 200.324 314.802 203.963C314.802 207.602 317.395 210.556 320.602 210.556Z" fill="#868491"/>
<path d="M320.602 243.518H425.004C428.206 243.518 430.805 240.565 430.805 236.926C430.805 233.287 428.206 230.333 425.004 230.333H320.602C317.4 230.333 314.802 233.287 314.802 236.926C314.802 240.565 317.395 243.518 320.602 243.518Z" fill="#868491"/>
<path d="M320.602 276.481H425.004C428.206 276.481 430.805 273.528 430.805 269.889C430.805 266.25 428.206 263.296 425.004 263.296H320.602C317.4 263.296 314.802 266.25 314.802 269.889C314.802 273.528 317.395 276.481 320.602 276.481Z" fill="#868491"/>
<path d="M320.602 309.444H425.004C428.206 309.444 430.805 306.491 430.805 302.852C430.805 299.213 428.206 296.259 425.004 296.259H320.602C317.4 296.259 314.802 299.213 314.802 302.852C314.802 306.491 317.395 309.444 320.602 309.444Z" fill="#868491"/>
<path d="M320.602 342.407H369.903C373.105 342.407 375.703 339.454 375.703 335.815C375.703 332.176 373.105 329.222 369.903 329.222H320.602C317.4 329.222 314.802 332.176 314.802 335.815C314.802 339.454 317.395 342.407 320.602 342.407Z" fill="#868491"/>
<path d="M309.002 372.074C300.992 372.074 294.502 379.451 294.502 388.556C294.502 397.66 300.992 405.037 309.002 405.037H352.503V372.074H309.002Z" fill="#868491"/>
<path d="M309.002 372.074C325.016 372.074 338.003 386.835 338.003 405.037C338.003 423.239 325.016 438 309.002 438H494.606C510.62 438 523.607 423.239 523.607 405.037C523.607 386.835 510.62 372.074 494.606 372.074H309.002Z" fill="#ECC489"/>
<path d="M407.604 309.444H441.993C449.684 309.444 457.062 305.97 462.502 299.793L549.504 200.904C560.832 188.029 560.832 167.163 549.504 154.288L544.116 148.163C532.788 135.288 514.431 135.288 503.103 148.163L416.101 247.052C410.661 253.236 407.61 261.615 407.61 270.364V309.444H407.604Z" fill="#4482C3"/>
<path d="M407.604 309.444H441.993C449.684 309.444 457.062 305.97 462.502 299.793L549.504 200.904C560.832 188.029 560.832 167.163 549.504 154.288L546.807 151.222L407.604 309.444Z" fill="#4482C3"/>
<path d="M483.006 223.741V171L503.098 148.163C514.425 135.288 532.783 135.288 544.11 148.163L549.499 154.288C560.826 167.163 560.826 188.029 549.499 200.904L529.407 223.741H483.006Z" fill="#285680"/>
<path d="M483.006 223.741L546.807 151.222L549.499 154.281C560.826 167.157 560.826 188.022 549.499 200.897L529.407 223.741H483.006Z" fill="#285680"/>
<path d="M384.404 339.111C383.661 339.111 382.919 338.788 382.35 338.149C381.219 336.863 381.219 334.773 382.35 333.488L544.754 148.895C545.885 147.61 547.724 147.61 548.855 148.895C549.986 150.181 549.986 152.27 548.855 153.556L386.451 338.149C385.889 338.788 385.146 339.111 384.404 339.111Z" fill="#DBDEE3"/>
</svg>
