<svg width="780" height="520" viewBox="0 0 780 520" fill="none" xmlns="http://www.w3.org/2000/svg">
<rect width="780" height="520" fill="#3BA4CA"/>
<path d="M256.051 98C271.541 98 284.102 111.393 284.102 127.907V157.815H256.051C240.561 157.815 228 144.422 228 127.907C228 111.393 240.556 98 256.051 98Z" fill="#868491"/>
<path d="M463.63 391.093V346.231C463.63 339.622 458.609 334.269 452.41 334.269C458.609 334.269 463.63 328.915 463.63 322.306V205.667V154.824C463.63 148.215 458.609 142.861 452.41 142.861C458.609 142.861 463.63 137.508 463.63 130.898V127.907C463.63 111.393 451.069 98 435.579 98H256.051C271.541 98 284.102 111.393 284.102 127.907V190.713C284.102 197.323 289.123 202.676 295.323 202.676C289.123 202.676 284.102 208.029 284.102 214.639V391.093C284.102 407.607 296.664 421 312.153 421H491.681C476.186 421 463.63 407.607 463.63 391.093Z" fill="#FFD788"/>
<path d="M357.035 154.824H424.358C427.455 154.824 429.968 152.144 429.968 148.843C429.968 145.541 427.455 142.861 424.358 142.861H357.035C353.938 142.861 351.425 145.541 351.425 148.843C351.425 152.144 353.933 154.824 357.035 154.824Z" fill="#868491"/>
<path d="M323.374 184.731H424.359C427.455 184.731 429.969 182.052 429.969 178.75C429.969 175.448 427.455 172.769 424.359 172.769H323.374C320.277 172.769 317.764 175.448 317.764 178.75C317.764 182.052 320.272 184.731 323.374 184.731Z" fill="#868491"/>
<path d="M323.374 214.639H424.359C427.455 214.639 429.969 211.959 429.969 208.657C429.969 205.356 427.455 202.676 424.359 202.676H323.374C320.277 202.676 317.764 205.356 317.764 208.657C317.764 211.959 320.272 214.639 323.374 214.639Z" fill="#868491"/>
<path d="M323.374 244.546H424.359C427.455 244.546 429.969 241.867 429.969 238.565C429.969 235.263 427.455 232.583 424.359 232.583H323.374C320.277 232.583 317.764 235.263 317.764 238.565C317.764 241.867 320.272 244.546 323.374 244.546Z" fill="#868491"/>
<path d="M323.374 274.454H424.359C427.455 274.454 429.969 271.774 429.969 268.472C429.969 265.17 427.455 262.491 424.359 262.491H323.374C320.277 262.491 317.764 265.17 317.764 268.472C317.764 271.774 320.272 274.454 323.374 274.454Z" fill="#868491"/>
<path d="M323.374 304.361H424.359C427.455 304.361 429.969 301.681 429.969 298.38C429.969 295.078 427.455 292.398 424.359 292.398H323.374C320.277 292.398 317.764 295.078 317.764 298.38C317.764 301.681 320.272 304.361 323.374 304.361Z" fill="#868491"/>
<path d="M323.374 334.269H371.061C374.158 334.269 376.671 331.589 376.671 328.287C376.671 324.985 374.158 322.306 371.061 322.306H323.374C320.277 322.306 317.764 324.985 317.764 328.287C317.764 331.589 320.272 334.269 323.374 334.269Z" fill="#868491"/>
<path d="M312.154 361.185C304.406 361.185 298.128 367.878 298.128 376.139C298.128 384.399 304.406 391.093 312.154 391.093H354.231V361.185H312.154Z" fill="#868491"/>
<path d="M312.154 361.185C327.643 361.185 340.205 374.578 340.205 391.093C340.205 407.607 327.643 421 312.154 421H491.681C507.171 421 519.733 407.607 519.733 391.093C519.733 374.578 507.171 361.185 491.681 361.185H312.154Z" fill="#ECC489"/>
<path d="M407.528 304.361H440.791C448.23 304.361 455.366 301.209 460.629 295.604L544.782 205.882C555.739 194.2 555.739 175.269 544.782 163.587L539.571 158.03C528.614 146.348 510.857 146.348 499.9 158.03L415.747 247.752C410.484 253.363 407.533 260.965 407.533 268.903V304.361H407.528Z" fill="#4482C3"/>
<path d="M407.528 304.361H440.791C448.23 304.361 455.366 301.209 460.629 295.604L544.782 205.882C555.739 194.2 555.739 175.269 544.782 163.587L542.174 160.806L407.528 304.361Z" fill="#4482C3"/>
<path d="M480.461 226.602V178.75L499.895 158.03C510.852 146.348 528.608 146.348 539.565 158.03L544.777 163.587C555.734 175.269 555.734 194.2 544.777 205.882L525.343 226.602H480.461Z" fill="#285680"/>
<path d="M480.461 226.602L542.174 160.806L544.777 163.581C555.734 175.263 555.734 194.194 544.777 205.876L525.343 226.602H480.461Z" fill="#285680"/>
<path d="M385.087 331.278C384.369 331.278 383.651 330.985 383.101 330.404C382.007 329.238 382.007 327.342 383.101 326.176L540.188 158.694C541.282 157.528 543.06 157.528 544.154 158.694C545.248 159.86 545.248 161.757 544.154 162.923L387.067 330.404C386.523 330.985 385.805 331.278 385.087 331.278Z" fill="#DBDEE3"/>
</svg>
