<svg width="780" height="520" viewBox="0 0 780 520" fill="none" xmlns="http://www.w3.org/2000/svg">
<rect width="780" height="520" fill="#3BA4CA"/>
<path d="M453.413 415H226.587C224.054 415 222 413.529 222 411.715V87.2853C222 85.4706 224.054 84 226.587 84H453.413C455.946 84 458 85.4706 458 87.2853V411.715C458 413.529 455.947 415 453.413 415V415Z" fill="#EEDFDA"/>
<path d="M302.184 130.836C300.576 130.296 298.852 130.003 297.059 130C292.784 129.994 288.899 131.642 286.029 134.332C284.881 135.407 283.06 135.385 281.906 134.317C279.009 131.637 275.097 130.01 270.796 130.057C260.83 130.165 253.572 139.124 255.239 148.8C255.818 152.163 257.58 154.604 261.425 158.372C265.448 162.317 278.1 174.225 282.53 178.39C283.398 179.207 284.761 179.202 285.626 178.383C290.192 174.047 303.514 161.391 306.749 158.193C310.669 154.316 312.992 150.816 313 145.742C313.011 138.828 308.484 132.948 302.184 130.836" fill="#ED500A"/>
<path d="M453.271 84H415.108V382.316C415.108 384.186 412.99 385.703 410.378 385.703H222V411.613C222 413.483 224.118 415 226.73 415H453.27C455.882 415 458 413.483 458 411.613V87.3873C458.001 85.5168 455.883 84 453.271 84V84Z" fill="#DED0CB"/>
<path d="M365.35 181.466H313.961C309.86 181.466 306.537 179.078 306.537 176.134C306.537 173.189 309.86 170.802 313.961 170.802H365.35C369.45 170.802 372.773 173.189 372.773 176.134C372.773 179.078 369.45 181.466 365.35 181.466Z" fill="#C8C1C9"/>
<path d="M388.752 222.373H290.557C286.456 222.373 283.133 219.986 283.133 217.041C283.133 214.096 286.456 211.709 290.557 211.709H388.751C392.852 211.709 396.175 214.096 396.175 217.041C396.175 219.986 392.852 222.373 388.752 222.373Z" fill="#C8C1C9"/>
<path d="M388.752 243.268H290.557C286.456 243.268 283.133 240.88 283.133 237.936C283.133 234.991 286.456 232.603 290.557 232.603H388.751C392.852 232.603 396.175 234.991 396.175 237.936C396.175 240.881 392.852 243.268 388.752 243.268Z" fill="#C8C1C9"/>
<path d="M388.752 264.163H290.557C286.456 264.163 283.133 261.776 283.133 258.831C283.133 255.886 286.456 253.499 290.557 253.499H388.751C392.852 253.499 396.175 255.886 396.175 258.831C396.175 261.776 392.852 264.163 388.752 264.163Z" fill="#C8C1C9"/>
<path d="M388.752 310.745H290.557C286.456 310.745 283.133 308.358 283.133 305.413C283.133 302.468 286.456 300.081 290.557 300.081H388.751C392.852 300.081 396.175 302.468 396.175 305.413C396.175 308.358 392.852 310.745 388.752 310.745Z" fill="#C8C1C9"/>
<path d="M388.752 331.641H290.557C286.456 331.641 283.133 329.253 283.133 326.308C283.133 323.364 286.456 320.976 290.557 320.976H388.751C392.852 320.976 396.175 323.364 396.175 326.308C396.175 329.253 392.852 331.641 388.752 331.641Z" fill="#C8C1C9"/>
<path d="M388.752 352.535H290.557C286.456 352.535 283.133 350.148 283.133 347.203C283.133 344.258 286.456 341.871 290.557 341.871H388.751C392.852 341.871 396.175 344.258 396.175 347.203C396.175 350.148 392.852 352.535 388.752 352.535Z" fill="#C8C1C9"/>
<path d="M500.752 352C497.298 352 494.224 350.218 493.567 347.667C484.067 310.718 503.93 269.286 504.781 267.54C506.126 264.778 510.302 263.328 514.117 264.304C517.926 265.279 519.925 268.308 518.582 271.069C518.387 271.471 499.184 311.612 507.955 345.723C508.695 348.602 506.075 351.372 502.102 351.909C501.649 351.971 501.197 352 500.752 352V352Z" fill="#E7B467"/>
<path d="M546.876 365.499C539.224 365.499 533.021 361.026 533.021 355.507V349H452.979V355.507C452.979 361.025 446.776 365.499 439.124 365.499C423.039 365.499 410 374.901 410 386.501V415.998C410 427.597 423.039 437 439.124 437H546.876C562.961 437 576 427.597 576 415.998V386.501C576 374.901 562.96 365.499 546.876 365.499V365.499Z" fill="#304EC7"/>
<path d="M546.816 365.499C539.148 365.499 532.932 361.026 532.932 355.507V349H491V355.507C491 361.025 497.216 365.499 504.884 365.499C521.001 365.499 534.068 374.901 534.068 386.501V415.998C534.068 427.597 521.002 437 504.884 437H546.816C562.933 437 576 427.597 576 415.998V386.501C576 374.901 562.933 365.499 546.816 365.499Z" fill="#2740AD"/>
<path d="M540.392 354H444.608C437.644 354 432 349.924 432 344.895V343.105C432 338.076 437.644 334 444.608 334H540.392C547.356 334 553 338.076 553 343.105V344.895C553.001 349.923 547.356 354 540.392 354Z" fill="#304EC7"/>
<path d="M539.335 334H518C525.547 334 531.665 338.477 531.665 344C531.665 349.523 525.547 354 518 354H539.335C546.882 354 553 349.523 553 344C553 338.477 546.882 334 539.335 334Z" fill="#2740AD"/>
<path d="M600.857 136.142C580.783 128.716 553.348 158.414 522.998 199.051C522.704 199.443 522.642 199.906 522.826 200.33L526.423 208.603C526.607 209.025 526.208 209.463 525.593 209.515L515.836 210.336C515.07 210.401 514.398 210.731 514.043 211.22C514.042 211.223 514.04 211.225 514.038 211.228C478.22 260.555 485.674 293.684 493.426 309.179C495.709 313.74 504.366 314.377 507.863 310.227C521.733 293.764 551.847 257.405 576.988 222.781C588.375 207.099 597.289 193.096 603.275 181.102C603.755 180.139 602.904 179.098 601.494 178.913L588.501 177.199C587.786 177.105 587.569 176.448 588.149 176.136L606.744 166.114C608.994 164.901 610.475 163.107 610.933 161.121C613.851 148.452 610.877 139.848 600.857 136.142V136.142Z" fill="#E0DDE2"/>
<path d="M508.452 310.234C522.246 293.838 552.187 257.634 577.185 223.158C588.505 207.545 597.366 193.604 603.318 181.663C603.798 180.699 602.96 179.658 601.553 179.472L588.633 177.766C587.922 177.672 587.706 177.018 588.283 176.707L606.773 166.728C608.99 165.531 610.474 163.766 610.927 161.808C613.819 149.295 610.955 140.758 601.225 137L542.297 210.899C522.143 236.172 507.567 263.517 499.081 291.968L494 309.004C494.037 309.079 494.074 309.155 494.111 309.229C496.374 313.754 504.987 314.351 508.452 310.234V310.234Z" fill="#C8C1C9"/>
</svg>
