<svg width="780" height="520" viewBox="0 0 780 520" fill="none" xmlns="http://www.w3.org/2000/svg">
<rect width="780" height="520" fill="#3BA4CA"/>
<path d="M446.699 458.813H227.434C224.986 458.813 223 457.33 223 455.5V128.313C223 126.483 224.986 125 227.434 125H446.699C449.147 125 451.133 126.483 451.133 128.313V455.501C451.133 457.33 449.148 458.813 446.699 458.813V458.813Z" fill="#EEDFDA"/>
<path d="M300.511 172.234C298.957 171.689 297.29 171.394 295.557 171.391C291.424 171.385 287.669 173.047 284.894 175.759C283.785 176.844 282.025 176.821 280.909 175.744C278.109 173.042 274.327 171.401 270.17 171.448C260.535 171.557 253.52 180.593 255.131 190.35C255.69 193.742 257.394 196.204 261.111 200.004C265 203.982 277.229 215.992 281.512 220.193C282.351 221.016 283.669 221.011 284.505 220.185C288.919 215.813 301.797 203.049 304.924 199.823C308.713 195.913 310.959 192.384 310.967 187.267C310.977 180.294 306.601 174.364 300.511 172.234" fill="#ED500A"/>
<path d="M446.562 125H409.671V425.851C409.671 427.737 407.623 429.267 405.098 429.267H223V455.397C223 457.283 225.047 458.813 227.572 458.813H446.561C449.086 458.813 451.133 457.283 451.133 455.397V128.416C451.134 126.53 449.087 125 446.562 125V125Z" fill="#DED0CB"/>
<path d="M361.571 223.294H311.896C307.932 223.294 304.719 220.886 304.719 217.917C304.719 214.947 307.932 212.539 311.896 212.539H361.571C365.535 212.539 368.748 214.947 368.748 217.917C368.748 220.886 365.535 223.294 361.571 223.294Z" fill="#C8C1C9"/>
<path d="M384.194 264.549H289.272C285.308 264.549 282.095 262.141 282.095 259.172C282.095 256.202 285.308 253.794 289.272 253.794H384.193C388.157 253.794 391.369 256.202 391.369 259.172C391.369 262.141 388.157 264.549 384.194 264.549Z" fill="#C8C1C9"/>
<path d="M384.194 285.621H289.272C285.308 285.621 282.095 283.214 282.095 280.244C282.095 277.274 285.308 274.866 289.272 274.866H384.193C388.157 274.866 391.369 277.274 391.369 280.244C391.369 283.214 388.157 285.621 384.194 285.621Z" fill="#C8C1C9"/>
<path d="M384.194 306.694H289.272C285.308 306.694 282.095 304.286 282.095 301.317C282.095 298.347 285.308 295.939 289.272 295.939H384.193C388.157 295.939 391.369 298.347 391.369 301.317C391.369 304.286 388.157 306.694 384.194 306.694Z" fill="#C8C1C9"/>
<path d="M384.194 353.672H289.272C285.308 353.672 282.095 351.264 282.095 348.295C282.095 345.325 285.308 342.917 289.272 342.917H384.193C388.157 342.917 391.369 345.325 391.369 348.295C391.369 351.264 388.157 353.672 384.194 353.672Z" fill="#C8C1C9"/>
<path d="M384.194 374.745H289.272C285.308 374.745 282.095 372.337 282.095 369.368C282.095 366.398 285.308 363.99 289.272 363.99H384.193C388.157 363.99 391.369 366.398 391.369 369.368C391.369 372.337 388.157 374.745 384.194 374.745Z" fill="#C8C1C9"/>
<path d="M384.194 395.817H289.272C285.308 395.817 282.095 393.409 282.095 390.44C282.095 387.47 285.308 385.062 289.272 385.062H384.193C388.157 385.062 391.369 387.47 391.369 390.44C391.369 393.41 388.157 395.817 384.194 395.817Z" fill="#C8C1C9"/>
<path d="M492.46 395.278C489.121 395.278 486.15 393.481 485.515 390.908C476.331 353.645 495.532 311.861 496.355 310.1C497.655 307.314 501.692 305.852 505.38 306.837C509.062 307.82 510.994 310.874 509.696 313.659C509.507 314.064 490.944 354.547 499.423 388.947C500.138 391.851 497.606 394.644 493.766 395.186C493.327 395.248 492.89 395.278 492.46 395.278V395.278Z" fill="#E7B467"/>
<path d="M537.047 408.891C529.65 408.891 523.654 404.38 523.654 398.815V392.252H446.279V398.815C446.279 404.379 440.283 408.891 432.886 408.891C417.338 408.891 404.733 418.374 404.733 430.071V459.819C404.733 471.517 417.338 481 432.886 481H537.047C552.596 481 565.2 471.517 565.2 459.819V430.071C565.2 418.374 552.595 408.891 537.047 408.891V408.891Z" fill="#304EC7"/>
<path d="M536.989 408.891C529.576 408.891 523.568 404.38 523.568 398.815V392.252H483.033V398.815C483.033 404.379 489.042 408.891 496.454 408.891C512.034 408.891 524.666 418.374 524.666 430.071V459.819C524.666 471.517 512.035 481 496.454 481H536.989C552.569 481 565.2 471.517 565.2 459.819V430.071C565.2 418.374 552.569 408.891 536.989 408.891Z" fill="#2740AD"/>
<path d="M530.779 397.295H438.188C431.456 397.295 426 393.184 426 388.112V386.307C426 381.235 431.456 377.125 438.188 377.125H530.779C537.51 377.125 542.967 381.235 542.967 386.307V388.112C542.968 393.183 537.51 397.295 530.779 397.295Z" fill="#304EC7"/>
<path d="M529.757 377.125H509.133C516.429 377.125 522.343 381.64 522.343 387.21C522.343 392.78 516.429 397.295 509.133 397.295H529.757C537.053 397.295 542.967 392.78 542.967 387.21C542.967 381.64 537.053 377.125 529.757 377.125Z" fill="#2740AD"/>
<path d="M589.229 177.585C569.824 170.096 543.303 200.046 513.964 241.029C513.681 241.424 513.621 241.891 513.799 242.319L517.276 250.661C517.454 251.088 517.068 251.529 516.473 251.582L507.042 252.41C506.301 252.475 505.652 252.809 505.309 253.301C505.307 253.304 505.305 253.307 505.303 253.309C470.68 303.055 477.885 336.466 485.379 352.093C487.585 356.692 495.953 357.335 499.334 353.15C512.742 336.547 541.852 299.879 566.155 264.961C577.163 249.145 585.779 235.023 591.566 222.927C592.03 221.956 591.207 220.906 589.845 220.72L577.284 218.991C576.593 218.896 576.383 218.234 576.944 217.919L594.919 207.812C597.094 206.588 598.526 204.779 598.969 202.776C601.79 190 598.915 181.322 589.229 177.585V177.585Z" fill="#E0DDE2"/>
<path d="M499.904 353.156C513.238 336.621 542.181 300.11 566.345 265.34C577.288 249.595 585.854 235.536 591.607 223.493C592.072 222.521 591.262 221.471 589.901 221.284L577.412 219.563C576.724 219.468 576.516 218.809 577.074 218.495L594.947 208.431C597.09 207.224 598.525 205.444 598.963 203.469C601.759 190.85 598.99 182.241 589.585 178.45L532.621 252.977C513.138 278.466 499.049 306.043 490.845 334.736L485.933 351.917C485.97 351.992 486.005 352.069 486.041 352.143C488.229 356.706 496.555 357.309 499.904 353.156V353.156Z" fill="#C8C1C9"/>
</svg>
