<svg width="1258" height="1610" viewBox="0 0 1258 1610" fill="none" xmlns="http://www.w3.org/2000/svg">
<g clip-path="url(#clip0)">
<path fill-rule="evenodd" clip-rule="evenodd" d="M724.464 837.824C989.26 923.92 993.81 968.054 931.622 1000.29C843.534 951.969 706.094 897.867 503.416 838.564L501.915 838.514C698.486 902.427 828.638 959.92 909.24 1010.45C867.945 1027.1 812.595 1041.07 776.171 1057.52C305.449 1195.26 554.333 1275.93 691.149 1266.23C911.204 1276.82 1249.71 1179.33 939.082 1004.48C1017.78 971.837 1029.42 926.836 725.214 837.824H724.464ZM914.402 1013.75C1168.25 1176.28 907.118 1265.88 702.786 1265.14C703.469 1265.06 704.175 1264.98 704.85 1264.9C703.942 1264.98 703.001 1265.02 702.082 1265.09C683.742 1265.01 665.918 1264.23 648.92 1262.68C660.701 1264.15 673.053 1265.26 685.847 1265.98C554.006 1269.34 360.115 1193.03 776.875 1057.52C811.729 1042.53 868.664 1029.37 914.402 1013.75ZM648.92 1262.68C647.596 1262.51 646.287 1262.36 644.979 1262.18H643.477C645.27 1262.37 647.107 1262.51 648.92 1262.68ZM704.85 1264.9C705.789 1264.81 706.739 1264.74 707.666 1264.65H706.962C706.272 1264.74 705.549 1264.81 704.85 1264.9Z" fill="#3BA4CA"/>
<path fill-rule="evenodd" clip-rule="evenodd" d="M409.878 839.998C115.088 750.221 110.022 704.2 179.254 670.582C277.32 720.973 430.329 777.387 655.964 839.227L657.635 839.278C438.799 772.632 293.904 712.681 204.171 659.994C250.144 642.632 311.764 628.059 352.314 610.906C876.356 467.283 599.28 383.156 446.966 393.277C201.984 382.23 -174.869 483.885 170.949 666.213C83.3342 700.255 70.3738 747.179 409.042 839.998H409.878ZM198.425 656.55C-84.1827 487.068 206.534 393.635 434.011 394.408C433.251 394.49 432.465 394.577 431.713 394.665C432.725 394.578 433.772 394.536 434.795 394.459C455.212 394.548 475.056 395.355 493.979 396.978C480.863 395.439 467.112 394.288 452.869 393.534C599.644 390.033 815.498 469.607 351.53 610.906C312.728 626.539 249.344 640.26 198.425 656.55ZM493.979 396.978C495.452 397.15 496.91 397.309 498.366 397.492H500.038C498.043 397.301 495.997 397.151 493.979 396.978ZM431.713 394.665C430.668 394.754 429.611 394.823 428.579 394.922H429.362C430.131 394.825 430.935 394.755 431.713 394.665Z" fill="#3BA4CA"/>
<path fill-rule="evenodd" clip-rule="evenodd" d="M431.717 815.67C128.668 968.794 123.461 1047.29 194.633 1104.63C295.446 1018.68 452.74 922.459 684.697 816.985L686.415 816.897C461.448 930.569 312.494 1032.82 220.247 1122.69C267.508 1152.3 330.855 1177.15 372.54 1206.41C911.262 1451.38 626.424 1594.86 469.844 1577.6C217.999 1596.44 -169.411 1423.06 186.094 1112.08C96.0255 1054.02 82.7018 973.982 430.858 815.67H431.717ZM214.34 1128.56C-76.1842 1417.63 222.676 1576.99 456.526 1575.67C455.744 1575.53 454.937 1575.38 454.164 1575.23C455.204 1575.38 456.28 1575.45 457.332 1575.58C478.321 1575.43 498.721 1574.06 518.174 1571.29C504.691 1573.91 490.554 1575.88 475.912 1577.16C626.799 1583.13 848.7 1447.41 371.734 1206.41C331.845 1179.75 266.686 1156.34 214.34 1128.56ZM518.174 1571.29C519.689 1570.99 521.187 1570.72 522.684 1570.41H524.403C522.352 1570.74 520.248 1570.99 518.174 1571.29ZM454.164 1575.23C453.09 1575.08 452.003 1574.96 450.942 1574.8H451.747C452.537 1574.96 453.364 1575.08 454.164 1575.23Z" fill="#3BA4CA"/>
<path fill-rule="evenodd" clip-rule="evenodd" d="M679.096 819.33C982.145 666.205 987.352 587.712 916.181 530.373C815.367 616.319 658.073 712.541 426.116 818.015L424.398 818.103C649.366 704.431 798.319 602.178 890.566 512.313C843.305 482.702 779.959 457.846 738.273 428.59C199.551 183.624 484.389 40.1379 640.969 57.3995C892.814 38.5589 1280.22 211.941 924.719 522.921C1014.79 580.984 1028.11 661.018 679.955 819.33H679.096ZM896.473 506.44C1187 217.371 888.137 58.0105 654.287 59.3282C655.069 59.4688 655.876 59.6169 656.65 59.7666C655.61 59.6195 654.533 59.5475 653.481 59.4158C632.492 59.5673 612.093 60.9443 592.639 63.7116C606.122 61.0877 620.259 59.1244 634.901 57.8378C484.014 51.8672 262.113 187.588 739.079 428.59C778.968 455.254 844.127 478.656 896.473 506.44ZM592.639 63.7116C591.125 64.0065 589.626 64.2765 588.129 64.5883H586.41C588.461 64.2631 590.565 64.0068 592.639 63.7116ZM656.65 59.7666C657.723 59.9183 658.81 60.0367 659.872 60.2049H659.066C658.276 60.0403 657.45 59.9214 656.65 59.7666Z" fill="#3BA4CA"/>
<path d="M127.174 1140.13L83.0333 1172.38L82.2056 1173.72C79.4565 1171.57 76.7643 1169.32 74.1292 1166.98C73.1853 1166.14 72.3419 1165.21 71.5966 1164.21C56.3268 1143.61 82.574 1090.83 110.688 1089.7C116.864 1089.45 122.936 1089.48 128.917 1089.76L128.921 1089.76L135.003 1142.78L127.174 1140.13Z" fill="#0099BC"/>
<path d="M82.7886 1173.19L83.6164 1171.85L127.768 1139.6L135.601 1142.25L165.518 1152.4L175.897 1155.92L121.468 1195.67C107.64 1190.01 94.7038 1182.5 82.7886 1173.19Z" fill="#51B7CE"/>
<path d="M122.077 1195.16L176.469 1155.39L190.608 1160.18L212.234 1167.54C209.927 1167.54 170.391 1197.72 159.958 1205.72C146.722 1203.59 134.061 1200.07 122.077 1195.16Z" fill="#2D7D9A"/>
<path d="M165.438 1152.47L135.383 1142.4L129.165 1089.5C139.231 1089.96 149.009 1091.17 158.454 1093.12L165.438 1152.47Z" fill="#2D7D9A"/>
<path d="M160.716 1204.96C171.161 1196.97 210.745 1166.81 213.057 1166.81C213.067 1166.81 213.078 1166.8 213.082 1166.81L241.45 1176.41L291.292 1193.28L230.687 1203.82C206.058 1208.12 182.601 1208.45 160.716 1204.96Z" fill="#0099BC"/>
<path d="M176.104 1155.7L165.673 1152.2L158.679 1092.86C167.118 1094.58 175.291 1096.89 183.176 1099.78L190.328 1160.45L176.104 1155.7Z" fill="#00B7C3"/>
<path d="M212.471 1167.35C212.467 1167.34 212.456 1167.35 212.446 1167.35L190.661 1160.08L183.467 1099.45C193.959 1103.25 203.956 1108.07 213.395 1113.88C221.125 1118.63 228.483 1124.04 235.443 1130.1L235.447 1130.11L240.987 1176.85L212.471 1167.35Z" fill="#0099BC"/>
<path d="M291.68 1192.93L241.416 1176.38L235.797 1129.7C242.963 1135.88 249.712 1142.75 256.007 1150.28L286.253 1186.44L286.265 1186.45L291.68 1192.93Z" fill="#2D7D9A"/>
<path d="M213.445 1113.74L213.452 1113.73C210.929 1109.23 208.547 1104.55 206.319 1099.72L251.536 1097.96L261.124 1119.51L293.374 1192.02L293.371 1192.03L286.12 1186.56L286.107 1186.54L255.83 1150.42C249.529 1142.89 242.773 1136.03 235.6 1129.86L235.596 1129.85C228.602 1123.83 221.209 1118.45 213.445 1113.74Z" fill="#00B7C3"/>
<path d="M251.039 1098.44L206.055 1099.99C202.648 1092.47 199.598 1084.57 196.908 1076.31L197.65 1075.6L239.495 1072.06L251.039 1098.44Z" fill="#2D7D9A"/>
<path d="M196.517 1076.67C191.878 1062.47 188.322 1047.19 185.909 1030.93L184.557 1021.84L215.774 1019.18L229.518 1050.49L239.14 1072.4L197.26 1075.96L196.517 1076.67Z" fill="#51B7CE"/>
<path d="M289.714 1128.86L293.182 1192.12L261.271 1119.31L278.591 1059.96C284.608 1080.93 288.356 1104.01 289.714 1128.86Z" fill="#00B7C3"/>
<path d="M215.155 1019.75L183.887 1022.45L167.182 911.028L167.198 911.049L215.155 1019.75Z" fill="#2D7D9A"/>
<path d="M260.524 1120.01L251.035 1098.36L239.48 1071.99L229.868 1050.07L246.155 994.268C259.893 1012.83 270.537 1035.18 277.839 1060.66L277.843 1060.66L260.524 1120.01Z" fill="#2D7D9A"/>
<path d="M215.325 1019.55L167.14 911.059L233.205 980.5C237.518 985.02 241.585 989.851 245.414 994.984L245.418 994.989L229.184 1050.75L215.325 1019.55Z" fill="#00B7C3"/>
<path d="M299.651 1224.89L191.317 967.419L308.848 1215.11C309.96 1217.45 308.816 1221.57 306.295 1224.31C303.773 1227.05 300.828 1227.38 299.717 1225.03C299.697 1224.99 299.67 1224.93 299.651 1224.89Z" fill="#666666"/>
<path d="M313.765 1208.8L107.925 1132.37L319.811 1196C322.027 1196.66 322.503 1200.08 320.874 1203.63C319.246 1207.17 316.13 1209.51 313.915 1208.85C313.869 1208.83 313.809 1208.81 313.765 1208.8Z" fill="#666666"/>
<path d="M847.899 1185.28L790.046 1125.34L787.802 1124.48C790.757 1119.3 793.873 1114.19 797.149 1109.14C798.324 1107.33 799.657 1105.65 801.123 1104.1C831.17 1072.4 918.56 1096.42 924.793 1141.3C926.167 1151.16 927.092 1160.95 927.596 1170.67L927.589 1170.68L844.957 1198.8L847.899 1185.28Z" fill="#0099BC"/>
<path d="M788.739 1125.23L790.983 1126.1L848.831 1186.05L845.89 1199.58L834.643 1251.26L830.73 1269.19L759.419 1195.29C766.161 1171.06 775.945 1147.63 788.739 1125.23Z" fill="#51B7CE"/>
<path d="M760.333 1196.09L831.666 1269.93L826.35 1294.35L818.181 1331.72C817.815 1328 763.958 1274.77 749.693 1260.74C750.938 1238.69 754.488 1217.08 760.333 1196.09Z" fill="#2D7D9A"/>
<path d="M834.519 1251.16L845.629 1199.28L928.036 1170.99C928.915 1187.35 928.564 1203.51 926.989 1219.4L834.519 1251.16Z" fill="#2D7D9A"/>
<path d="M750.998 1261.7C765.257 1275.75 819.092 1329.07 819.458 1332.79C819.465 1332.81 819.472 1332.83 819.464 1332.83L808.827 1381.83L790.128 1467.93L763.894 1373.98C753.223 1335.8 748.968 1298.14 750.998 1261.7Z" fill="#0099BC"/>
<path d="M831.118 1269.45L834.979 1251.44L927.432 1219.67C926.058 1233.85 923.709 1247.81 920.4 1261.51L825.878 1294L831.118 1269.45Z" fill="#00B7C3"/>
<path d="M818.514 1332.04C818.522 1332.03 818.515 1332.01 818.509 1332L826.522 1294.4L920.975 1261.86C916.634 1280.08 910.624 1297.84 902.957 1315.05C896.707 1329.13 889.332 1342.85 880.887 1356.16L880.88 1356.16L808.053 1381.24L818.514 1332.04Z" fill="#0099BC"/>
<path d="M790.751 1468.43L808.869 1381.77L881.571 1356.59C872.963 1370.26 863.213 1383.5 852.336 1396.24L800.122 1457.44L800.099 1457.47L790.751 1468.43Z" fill="#2D7D9A"/>
<path d="M903.195 1315.08L903.21 1315.08C909.909 1309.47 916.904 1304.01 924.172 1298.75L934.124 1370.96L901.652 1393.85L792.455 1470.84L792.433 1470.84L799.911 1457.27L799.934 1457.25L852.093 1396C862.958 1383.26 872.697 1370.01 881.293 1356.32L881.3 1356.32C889.687 1342.97 897.004 1329.21 903.195 1315.08Z" fill="#00B7C3"/>
<path d="M933.28 1370.33L923.707 1298.42C935.014 1290.34 946.982 1282.7 959.58 1275.51L960.823 1276.46L973.039 1342.62L933.28 1370.33Z" fill="#2D7D9A"/>
<path d="M958.952 1275.01C980.606 1262.63 1004.14 1251.62 1029.39 1242.12L1043.52 1236.8L1052.65 1286.15L1005.47 1319.1L972.454 1342.16L960.196 1275.96L958.952 1275.01Z" fill="#51B7CE"/>
<path d="M891.452 1443.12L792.257 1470.57L901.998 1394.02L998.326 1401.39C966.206 1418.33 930.412 1432.34 891.452 1443.12Z" fill="#00B7C3"/>
<path d="M1051.65 1285.35L1042.45 1235.93L1215.47 1170.52L1215.44 1170.55L1051.65 1285.35Z" fill="#2D7D9A"/>
<path d="M900.774 1393.05L933.405 1370.29L973.148 1342.57L1006.18 1319.52L1096.75 1326.46C1069.67 1354.99 1036.12 1379.86 997.106 1400.42L997.099 1400.43L900.774 1393.05Z" fill="#2D7D9A"/>
<path d="M1052 1285.55L1215.41 1170.46L1116.41 1300.84C1109.96 1309.35 1102.99 1317.57 1095.51 1325.51L1095.5 1325.52L1005.01 1318.65L1052 1285.55Z" fill="#00B7C3"/>
<path d="M741.629 1492.31L1130.38 1228.87L758.506 1503.74C754.99 1506.34 748.312 1505.92 743.59 1502.81C738.867 1499.69 737.889 1495.06 741.404 1492.46C741.469 1492.42 741.562 1492.35 741.629 1492.31Z" fill="#666666"/>
<path d="M769.237 1509.47L857.083 1151.6L790.371 1514.79C789.674 1518.59 784.365 1520.53 778.514 1519.14C772.663 1517.74 768.484 1513.53 769.182 1509.73C769.195 1509.65 769.218 1509.55 769.237 1509.47Z" fill="#666666"/>
<path d="M340.143 702.178L288.295 729.911L287.282 731.275C284.282 728.223 281.351 725.073 278.49 721.824C277.465 720.659 276.56 719.412 275.769 718.1C259.577 691.212 292.254 636.105 324.211 640.753C331.231 641.77 338.118 643.08 344.887 644.668L344.892 644.675L348.879 706.881L340.143 702.178Z" fill="#0099BC"/>
<path d="M287.973 730.783L288.986 729.418L340.846 701.693L349.587 706.396L382.97 724.371L394.551 730.615L330.619 764.793C315.242 755.36 300.979 744.001 287.973 730.783Z" fill="#51B7CE"/>
<path d="M331.338 764.326L395.229 730.12L411.006 738.616L435.137 751.638C432.519 751.15 386.009 777.476 373.734 784.462C358.834 779.228 344.664 772.503 331.338 764.326Z" fill="#2D7D9A"/>
<path d="M382.875 724.436L349.332 706.515L345.182 644.429C356.578 647.079 367.604 650.53 378.212 654.765L382.875 724.436Z" fill="#2D7D9A"/>
<path d="M374.634 783.759C386.923 776.781 433.487 750.488 436.11 750.976C436.122 750.975 436.134 750.973 436.138 750.98L467.793 768.004L523.412 797.923L454.078 797.231C425.901 796.958 399.27 792.391 374.634 783.759Z" fill="#0099BC"/>
<path d="M394.798 730.4L383.156 724.177L378.481 654.515C387.961 658.275 397.106 662.659 405.893 667.647L410.674 738.869L394.798 730.4Z" fill="#00B7C3"/>
<path d="M435.415 751.473C435.411 751.466 435.399 751.467 435.387 751.469L411.072 738.508L406.242 667.324C417.935 673.917 429.012 681.564 439.401 690.237C447.909 697.318 455.96 705.098 463.524 713.527L463.528 713.534L467.244 768.417L435.415 751.473Z" fill="#0099BC"/>
<path d="M523.871 797.596L467.757 767.963L463.946 713.144C471.737 721.759 479.016 731.071 485.744 741.055L518.071 788.992L518.084 789.014L523.871 797.596Z" fill="#2D7D9A"/>
<path d="M439.462 690.084L439.47 690.075C436.855 684.369 434.41 678.492 432.147 672.467L483.543 679.994L493.237 706.791L525.843 796.908L525.84 796.924L517.913 789.104L517.9 789.083L485.534 741.177C478.798 731.199 471.51 721.894 463.712 713.286L463.707 713.279C456.103 704.881 448.012 697.133 439.462 690.084Z" fill="#00B7C3"/>
<path d="M482.956 680.443L431.837 672.716C428.384 663.362 425.359 653.643 422.761 643.583L423.642 642.92L471.308 647.695L482.956 680.443Z" fill="#2D7D9A"/>
<path d="M422.298 643.913C417.815 626.617 414.62 608.303 412.775 589.114L411.742 578.378L447.302 581.924L461.174 620.799L470.886 648.005L423.179 643.249L422.298 643.913Z" fill="#51B7CE"/>
<path d="M525.161 723.568L525.62 796.99L493.417 706.584L516.327 642.047C522 667.421 524.984 694.73 525.161 723.568Z" fill="#00B7C3"/>
<path d="M446.569 582.448L410.948 578.939L398.117 447.389L398.134 447.417L446.569 582.448Z" fill="#2D7D9A"/>
<path d="M492.529 707.232L482.953 680.35L471.293 647.61L461.593 620.396L483.136 559.715C497.702 583.944 508.549 611.871 515.434 642.689L515.438 642.696L492.529 707.232Z" fill="#2D7D9A"/>
<path d="M446.772 582.251L398.067 447.416L469.201 541.161C473.846 547.266 478.196 553.676 482.257 560.382L482.261 560.389L460.781 621.028L446.772 582.251Z" fill="#00B7C3"/>
<path d="M531.16 836.001L422.409 517.272L542.131 826.707C543.263 829.633 541.739 834.126 538.728 836.743C535.717 839.361 532.358 839.111 531.226 836.186C531.206 836.133 531.178 836.055 531.16 836.001Z" fill="#666666"/>
<path d="M548.056 820.494L318.733 689.194L555.618 807.069C558.094 808.301 558.447 812.325 556.404 816.057C554.362 819.788 550.699 821.815 548.223 820.583C548.172 820.558 548.104 820.522 548.056 820.494Z" fill="#666666"/>
<path d="M937.097 342.588L887.18 292.205L885.28 291.444C887.622 287.269 890.1 283.145 892.713 279.073C893.651 277.614 894.723 276.266 895.911 275.029C920.248 249.683 993.97 271.262 1000.32 308.194C1001.72 316.306 1002.74 324.349 1003.41 332.336L1003.4 332.342L934.977 353.613L937.097 342.588Z" fill="#0099BC"/>
<path d="M886.084 292.082L887.983 292.844L937.897 343.243L935.778 354.272L927.674 396.399L924.854 411.017L863.323 348.886C868.352 329.169 875.946 310.175 886.084 292.082Z" fill="#51B7CE"/>
<path d="M864.109 349.563L925.656 411.64L921.825 431.55L915.935 462.009C915.535 458.955 869.13 414.15 856.84 402.336C857.325 384.287 859.749 366.65 864.109 349.563Z" fill="#2D7D9A"/>
<path d="M927.568 396.311L935.553 354.019L1003.78 332.6C1004.93 346.038 1005.05 359.28 1004.13 372.268L927.568 396.311Z" fill="#2D7D9A"/>
<path d="M857.956 403.151C870.242 414.984 916.63 459.857 917.03 462.917C917.036 462.93 917.042 462.943 917.036 462.95L909.375 502.891L895.906 573.071L871.583 495.482C861.69 463.952 857.179 432.988 857.956 403.151Z" fill="#0099BC"/>
<path d="M925.185 411.234L927.96 396.555L1004.51 372.501C1003.72 384.1 1002.1 395.495 999.682 406.653L921.421 431.247L925.185 411.234Z" fill="#00B7C3"/>
<path d="M916.222 462.276C916.228 462.269 916.222 462.256 916.216 462.242L921.971 431.594L1000.17 406.955C997.001 421.792 992.422 436.225 986.442 450.168C981.568 461.581 975.745 472.672 969.016 483.395L969.01 483.401L908.713 502.389L916.222 462.276Z" fill="#0099BC"/>
<path d="M896.44 573.495L909.408 502.839L969.598 483.763C962.743 494.789 954.919 505.434 946.141 515.644L904.003 564.694L903.984 564.714L896.44 573.495Z" fill="#2D7D9A"/>
<path d="M986.641 450.198L986.654 450.205C992.117 445.742 997.832 441.424 1003.78 437.269L1013.93 496.679L987.341 514.746L897.926 575.511L897.908 575.511L903.821 564.547L903.84 564.527L945.932 515.444C954.7 505.227 962.513 494.575 969.359 483.542L969.365 483.535C976.045 472.776 981.818 461.648 986.641 450.198Z" fill="#00B7C3"/>
<path d="M1013.21 496.143L1003.38 436.987C1012.64 430.603 1022.46 424.598 1032.82 418.978L1033.88 419.782L1045.77 474.285L1013.21 496.143Z" fill="#2D7D9A"/>
<path d="M1032.28 418.55C1050.08 408.868 1069.5 400.35 1090.38 393.103L1102.06 389.046L1110.95 429.704L1072.31 455.701L1045.27 473.899L1033.34 419.354L1032.28 418.55Z" fill="#51B7CE"/>
<path d="M980.052 554.919L897.754 575.283L987.635 514.89L1068.41 523.016C1041.97 536.21 1012.38 546.925 980.052 554.919Z" fill="#00B7C3"/>
<path d="M1110.1 429.026L1101.15 388.311L1244.25 338.419L1244.23 338.445L1110.1 429.026Z" fill="#2D7D9A"/>
<path d="M986.586 514.076L1013.31 496.117L1045.86 474.248L1072.92 456.061L1148.87 463.703C1126.93 486.514 1099.49 506.175 1067.37 522.194L1067.36 522.2L986.586 514.076Z" fill="#2D7D9A"/>
<path d="M1110.39 429.199L1244.2 338.371L1164.67 443.129C1159.49 449.965 1153.86 456.554 1147.8 462.901L1147.8 462.908L1071.91 455.323L1110.39 429.199Z" fill="#00B7C3"/>
<path d="M855.945 592.015L1174.54 384.425L870.354 601.75C867.478 603.805 861.88 603.319 857.85 600.665C853.82 598.011 852.885 594.194 855.761 592.139C855.813 592.103 855.89 592.05 855.945 592.015Z" fill="#666666"/>
<path d="M879.477 606.685L943.93 315.176L897.293 611.497C896.806 614.595 892.413 616.076 887.483 614.805C882.553 613.534 878.95 609.993 879.438 606.896C879.447 606.832 879.463 606.746 879.477 606.685Z" fill="#666666"/>
</g>
<defs>
<clipPath id="clip0">
<rect width="1258" height="1610" fill="white"/>
</clipPath>
</defs>
</svg>
